Merriweather-BlackItalic.ufo
<glyph name="exclam" format="2">
  <advance width="631"/>
  <unicode hex="0021"/>
  <outline>
    <contour>
      <point x="330" y="1736" type="line"/>
      <point x="207" y="515" type="line"/>
      <point x="402" y="515" type="line"/>
      <point x="653" y="1736" type="line"/>
    </contour>
    <contour>
      <point x="85" y="137" type="curve" smooth="yes"/>
      <point x="84" y="48"/>
      <point x="149" y="-20"/>
      <point x="223" y="-20" type="curve" smooth="yes"/>
      <point x="334" y="-20"/>
      <point x="412" y="60"/>
      <point x="412" y="172" type="curve" smooth="yes"/>
      <point x="412" y="261"/>
      <point x="355" y="330"/>
      <point x="269" y="330" type="curve" smooth="yes"/>
      <point x="170" y="330"/>
      <point x="86" y="248"/>
    </contour>
  </outline>
</glyph>
<glyph name="numbersign" format="2">
  <advance width="1349"/>
  <unicode hex="0023"/>
  <outline>
    <contour>
      <point x="351" y="413" type="line"/>
      <point x="287" y="0" type="line"/>
      <point x="405" y="0" type="line"/>
      <point x="470" y="413" type="line"/>
      <point x="815" y="413" type="line"/>
      <point x="752" y="0" type="line"/>
      <point x="870" y="0" type="line"/>
      <point x="933" y="413" type="line"/>
      <point x="1201" y="413" type="line"/>
      <point x="1229" y="616" type="line"/>
      <point x="965" y="616" type="line"/>
      <point x="1015" y="907" type="line"/>
      <point x="1269" y="907" type="line"/>
      <point x="1297" y="1108" type="line"/>
      <point x="1044" y="1108" type="line"/>
      <point x="1114" y="1539" type="line"/>
      <point x="995" y="1539" type="line"/>
      <point x="925" y="1108" type="line"/>
      <point x="581" y="1108" type="line"/>
      <point x="649" y="1539" type="line"/>
      <point x="531" y="1539" type="line"/>
      <point x="463" y="1108" type="line"/>
      <point x="204" y="1108" type="line"/>
      <point x="176" y="907" type="line"/>
      <point x="432" y="907" type="line"/>
      <point x="385" y="616" type="line"/>
      <point x="137" y="616" type="line"/>
      <point x="109" y="413" type="line"/>
    </contour>
    <contour>
      <point x="847" y="616" type="line"/>
      <point x="502" y="616" type="line"/>
      <point x="551" y="907" type="line"/>
      <point x="896" y="907" type="line"/>
    </contour>
  </outline>
</glyph>
<glyph name="dollar" format="2">
  <advance width="1216"/>
  <unicode hex="0024"/>
  <outline>
    <contour>
      <point x="391" y="-245" type="line"/>
      <point x="566" y="-245" type="line"/>
      <point x="604" y="-20" type="line"/>
      <point x="953" y="6"/>
      <point x="1101" y="208"/>
      <point x="1100" y="434" type="curve" smooth="yes"/>
      <point x="1100" y="640"/>
      <point x="954" y="763"/>
      <point x="788" y="864" type="curve" smooth="yes"/>
      <point x="599" y="981"/>
      <point x="507" y="1059"/>
      <point x="507" y="1202" type="curve" smooth="yes"/>
      <point x="507" y="1308"/>
      <point x="575" y="1383"/>
      <point x="714" y="1383" type="curve" smooth="yes"/>
      <point x="787" y="1383"/>
      <point x="840" y="1365"/>
      <point x="886" y="1333" type="curve"/>
      <point x="914" y="1139" type="line"/>
      <point x="1097" y="1139" type="line"/>
      <point x="1151" y="1432" type="line"/>
      <point x="1099" y="1460"/>
      <point x="1013" y="1490"/>
      <point x="873" y="1500" type="curve"/>
      <point x="909" y="1717" type="line"/>
      <point x="732" y="1717" type="line"/>
      <point x="698" y="1502" type="line"/>
      <point x="410" y="1484"/>
      <point x="202" y="1330"/>
      <point x="202" y="1067" type="curve" smooth="yes"/>
      <point x="202" y="862"/>
      <point x="354" y="731"/>
      <point x="525" y="622" type="curve" smooth="yes"/>
      <point x="706" y="507"/>
      <point x="786" y="435"/>
      <point x="786" y="309" type="curve" smooth="yes"/>
      <point x="786" y="196"/>
      <point x="724" y="103"/>
      <point x="531" y="103" type="curve" smooth="yes"/>
      <point x="443" y="103"/>
      <point x="373" y="131"/>
      <point x="325" y="169" type="curve"/>
      <point x="315" y="383" type="line"/>
      <point x="120" y="383" type="line"/>
      <point x="58" y="74" type="line"/>
      <point x="96" y="42"/>
      <point x="250" y="-4"/>
      <point x="427" y="-18" type="curve"/>
    </contour>
  </outline>
</glyph>
<glyph name="quotesingle" format="2">
  <advance width="586"/>
  <unicode hex="0027"/>
  <outline>
    <contour>
      <point x="294" y="1648" type="line"/>
      <point x="214" y="944" type="line"/>
      <point x="407" y="944" type="line"/>
      <point x="571" y="1648" type="line"/>
    </contour>
  </outline>
</glyph>
<glyph name="hyphen" format="2">
  <advance width="1103"/>
  <unicode hex="002D"/>
  <outline>
    <contour>
      <point x="961" y="744" type="line"/>
      <point x="194" y="744" type="line"/>
      <point x="166" y="542" type="line"/>
      <point x="933" y="542" type="line"/>
    </contour>
  </outline>
</glyph>
<glyph name="period" format="2">
  <advance width="507"/>
  <unicode hex="002E"/>
  <outline>
    <contour>
      <point x="37" y="137" type="curve" smooth="yes"/>
      <point x="36" y="48"/>
      <point x="101" y="-20"/>
      <point x="175" y="-20" type="curve" smooth="yes"/>
      <point x="286" y="-20"/>
      <point x="364" y="60"/>
      <point x="364" y="172" type="curve" smooth="yes"/>
      <point x="364" y="261"/>
      <point x="307" y="330"/>
      <point x="221" y="330" type="curve" smooth="yes"/>
      <point x="122" y="330"/>
      <point x="38" y="248"/>
    </contour>
  </outline>
</glyph>
<glyph name="one" format="2">
  <advance width="884"/>
  <unicode hex="0031"/>
  <anchor x="476" y="1660" name="top"/>
  <outline>
    <contour>
      <point x="41" y="116" type="line"/>
      <point x="24" y="0" type="line"/>
      <point x="772" y="0" type="line"/>
      <point x="787" y="116" type="line"/>
      <point x="573" y="144" type="line"/>
      <point x="755" y="1470" type="line"/>
      <point x="587" y="1506" type="line"/>
      <point x="483" y="1432"/>
      <point x="271" y="1342"/>
      <point x="135" y="1312" type="curve"/>
      <point x="163" y="1162" type="line"/>
      <point x="247" y="1176"/>
      <point x="323" y="1188"/>
      <point x="399" y="1206" type="curve"/>
      <point x="253" y="144" type="line"/>
    </contour>
  </outline>
</glyph>
<glyph name="three" format="2">
  <advance width="1078"/>
  <unicode hex="0033"/>
  <outline>
    <contour>
      <point x="272" y="-21" type="curve" smooth="yes"/>
      <point x="710" y="-21"/>
      <point x="1010" y="198"/>
      <point x="1010" y="496" type="curve" smooth="yes"/>
      <point x="1010" y="670"/>
      <point x="866" y="798"/>
      <point x="619" y="772" type="curve"/>
      <point x="809" y="860"/>
      <point x="1023" y="1046"/>
      <point x="1023" y="1222" type="curve" smooth="yes"/>
      <point x="1023" y="1404"/>
      <point x="877" y="1496"/>
      <point x="651" y="1496" type="curve" smooth="yes"/>
      <point x="387" y="1496"/>
      <point x="217" y="1394"/>
      <point x="131" y="1312" type="curve"/>
      <point x="189" y="1196" type="line"/>
      <point x="274" y="1264"/>
      <point x="386" y="1303"/>
      <point x="524" y="1303" type="curve" smooth="yes"/>
      <point x="648" y="1303"/>
      <point x="688" y="1230"/>
      <point x="688" y="1158" type="curve" smooth="yes"/>
      <point x="688" y="1004"/>
      <point x="519" y="855"/>
      <point x="295" y="803" type="curve"/>
      <point x="273" y="648" type="line"/>
      <point x="307" y="658"/>
      <point x="345" y="670"/>
      <point x="381" y="680" type="curve"/>
      <point x="602" y="704"/>
      <point x="672" y="599"/>
      <point x="672" y="495" type="curve" smooth="yes"/>
      <point x="672" y="319"/>
      <point x="534" y="147"/>
      <point x="274" y="147" type="curve" smooth="yes"/>
      <point x="160" y="147"/>
      <point x="104" y="163"/>
      <point x="66" y="173" type="curve"/>
      <point x="24" y="15" type="line"/>
      <point x="70" y="5"/>
      <point x="148" y="-21"/>
    </contour>
  </outline>
</glyph>
<glyph name="four" format="2">
  <advance width="1203"/>
  <unicode hex="0034"/>
  <outline>
    <contour>
      <point x="611" y="0" type="line"/>
      <point x="908" y="0" type="line"/>
      <point x="954" y="322" type="line"/>
      <point x="1134" y="321" type="line"/>
      <point x="1159" y="538" type="line"/>
      <point x="983" y="528" type="line"/>
      <point x="1031" y="879" type="line"/>
      <point x="773" y="832" type="line"/>
      <point x="691" y="509" type="line"/>
      <point x="253" y="486" type="line"/>
      <point x="305" y="534"/>
      <point x="349" y="590"/>
      <point x="391" y="638" type="curve"/>
      <point x="489" y="760"/>
      <point x="761" y="1192"/>
      <point x="871" y="1382" type="curve"/>
      <point x="623" y="1507" type="line"/>
      <point x="565" y="1507" type="line"/>
      <point x="437" y="1205"/>
      <point x="228" y="753"/>
      <point x="26" y="451" type="curve"/>
      <point x="87" y="321" type="line"/>
      <point x="661" y="322" type="line"/>
    </contour>
  </outline>
</glyph>
<glyph name="five" format="2">
  <advance width="1127"/>
  <unicode hex="0035"/>
  <outline>
    <contour>
      <point x="94" y="126" type="curve"/>
      <point x="70" y="-14" type="line"/>
      <point x="96" y="-20"/>
      <point x="206" y="-38"/>
      <point x="268" y="-38" type="curve" smooth="yes"/>
      <point x="738" y="-38"/>
      <point x="1044" y="223"/>
      <point x="1044" y="571" type="curve" smooth="yes"/>
      <point x="1044" y="749"/>
      <point x="932" y="928"/>
      <point x="686" y="928" type="curve" smooth="yes"/>
      <point x="528" y="928"/>
      <point x="449" y="898"/>
      <point x="373" y="860" type="curve"/>
      <point x="529" y="1262" type="line"/>
      <point x="1041" y="1260" type="line"/>
      <point x="1097" y="1514" type="line"/>
      <point x="945" y="1514" type="line"/>
      <point x="921" y="1486" type="line"/>
      <point x="299" y="1486" type="line"/>
      <point x="136" y="744" type="line"/>
      <point x="196" y="698" type="line"/>
      <point x="242" y="722"/>
      <point x="354" y="756"/>
      <point x="454" y="756" type="curve" smooth="yes"/>
      <point x="616" y="756"/>
      <point x="730" y="668"/>
      <point x="730" y="524" type="curve" smooth="yes"/>
      <point x="730" y="324"/>
      <point x="582" y="110"/>
      <point x="200" y="110" type="curve" smooth="yes"/>
      <point x="164" y="110"/>
      <point x="114" y="120"/>
    </contour>
  </outline>
</glyph>
<glyph name="eight" format="2">
  <advance width="1166"/>
  <unicode hex="0038"/>
  <outline>
    <contour>
      <point x="522" y="-23" type="curve" smooth="yes"/>
      <point x="861" y="-23"/>
      <point x="1088" y="147"/>
      <point x="1087" y="413" type="curve" smooth="yes"/>
      <point x="1086" y="601"/>
      <point x="951" y="710"/>
      <point x="810" y="810" type="curve"/>
      <point x="1011" y="902"/>
      <point x="1147" y="1044"/>
      <point x="1145" y="1204" type="curve" smooth="yes"/>
      <point x="1143" y="1360"/>
      <point x="993" y="1502"/>
      <point x="701" y="1502" type="curve" smooth="yes"/>
      <point x="402" y="1502"/>
      <point x="188" y="1326"/>
      <point x="190" y="1126" type="curve" smooth="yes"/>
      <point x="192" y="954"/>
      <point x="312" y="839"/>
      <point x="415" y="753" type="curve"/>
      <point x="212" y="695"/>
      <point x="27" y="540"/>
      <point x="30" y="350" type="curve" smooth="yes"/>
      <point x="32" y="82"/>
      <point x="289" y="-23"/>
    </contour>
    <contour>
      <point x="686" y="906" type="curve"/>
      <point x="560" y="990"/>
      <point x="491" y="1070"/>
      <point x="490" y="1174" type="curve" smooth="yes"/>
      <point x="489" y="1312"/>
      <point x="578" y="1392"/>
      <point x="700" y="1392" type="curve" smooth="yes"/>
      <point x="798" y="1392"/>
      <point x="885" y="1340"/>
      <point x="886" y="1210" type="curve" smooth="yes"/>
      <point x="887" y="1060"/>
      <point x="787" y="964"/>
    </contour>
    <contour>
      <point x="542" y="99" type="curve" smooth="yes"/>
      <point x="382" y="99"/>
      <point x="314" y="206"/>
      <point x="313" y="334" type="curve" smooth="yes"/>
      <point x="312" y="492"/>
      <point x="445" y="613"/>
      <point x="551" y="659" type="curve"/>
      <point x="697" y="547"/>
      <point x="771" y="490"/>
      <point x="772" y="348" type="curve" smooth="yes"/>
      <point x="773" y="190"/>
      <point x="692" y="99"/>
    </contour>
  </outline>
</glyph>
<glyph name="nine" format="2">
  <advance width="1189"/>
  <unicode hex="0039"/>
  <outline>
    <contour>
      <point x="298" y="-39" type="line"/>
      <point x="802" y="80"/>
      <point x="1178" y="537"/>
      <point x="1181" y="988" type="curve" smooth="yes"/>
      <point x="1183" y="1270"/>
      <point x="1009" y="1506"/>
      <point x="678" y="1505" type="curve" smooth="yes"/>
      <point x="338" y="1504"/>
      <point x="109" y="1226"/>
      <point x="109" y="948" type="curve" smooth="yes"/>
      <point x="109" y="683"/>
      <point x="278" y="516"/>
      <point x="509" y="516" type="curve" smooth="yes"/>
      <point x="650" y="516"/>
      <point x="740" y="563"/>
      <point x="793" y="628" type="curve"/>
      <point x="733" y="388"/>
      <point x="497" y="166"/>
      <point x="237" y="89" type="curve"/>
    </contour>
    <contour>
      <point x="616" y="684" type="curve" smooth="yes"/>
      <point x="533" y="684"/>
      <point x="438" y="761"/>
      <point x="438" y="973" type="curve" smooth="yes"/>
      <point x="438" y="1134"/>
      <point x="485" y="1372"/>
      <point x="680" y="1372" type="curve" smooth="yes"/>
      <point x="809" y="1372"/>
      <point x="852" y="1231"/>
      <point x="852" y="1026" type="curve" smooth="yes"/>
      <point x="852" y="956"/>
      <point x="845" y="883"/>
      <point x="825" y="801" type="curve"/>
      <point x="790" y="749"/>
      <point x="721" y="684"/>
    </contour>
  </outline>
</glyph>
<glyph name="less" format="2">
  <advance width="1226"/>
  <unicode hex="003C"/>
  <outline>
    <contour>
      <point x="139" y="705" type="line"/>
      <point x="123" y="581" type="line"/>
      <point x="993" y="83" type="line"/>
      <point x="1017" y="317" type="line"/>
      <point x="423" y="641" type="line"/>
      <point x="1093" y="952" type="line"/>
      <point x="1125" y="1203" type="line"/>
    </contour>
  </outline>
</glyph>
<glyph name="equal" format="2">
  <advance width="1138"/>
  <unicode hex="003D"/>
  <outline>
    <contour>
      <point x="229" y="1001" type="line"/>
      <point x="203" y="811" type="line"/>
      <point x="1004" y="811" type="line"/>
      <point x="1030" y="1001" type="line"/>
    </contour>
    <contour>
      <point x="157" y="474" type="line"/>
      <point x="132" y="284" type="line"/>
      <point x="933" y="284" type="line"/>
      <point x="959" y="474" type="line"/>
    </contour>
  </outline>
</glyph>
<glyph name="question" format="2">
  <advance width="930"/>
  <unicode hex="003F"/>
  <outline>
    <contour>
      <point x="269" y="481" type="curve"/>
      <point x="283" y="479" type="line"/>
      <point x="449" y="526" type="line"/>
      <point x="439" y="561"/>
      <point x="432" y="618"/>
      <point x="438" y="684" type="curve" smooth="yes"/>
      <point x="444" y="753"/>
      <point x="508" y="801"/>
      <point x="577" y="832" type="curve" smooth="yes"/>
      <point x="689" y="882"/>
      <point x="817" y="966"/>
      <point x="908" y="1088" type="curve" smooth="yes"/>
      <point x="957" y="1157"/>
      <point x="991" y="1247"/>
      <point x="991" y="1370" type="curve" smooth="yes"/>
      <point x="991" y="1562"/>
      <point x="903" y="1789"/>
      <point x="526" y="1789" type="curve" smooth="yes"/>
      <point x="381" y="1789"/>
      <point x="256" y="1727"/>
      <point x="234" y="1708" type="curve"/>
      <point x="189" y="1511" type="line"/>
      <point x="246" y="1541"/>
      <point x="346" y="1553"/>
      <point x="418" y="1553" type="curve" smooth="yes"/>
      <point x="628" y="1553"/>
      <point x="752" y="1442"/>
      <point x="745" y="1275" type="curve" smooth="yes"/>
      <point x="743" y="1238"/>
      <point x="737" y="1191"/>
      <point x="724" y="1164" type="curve"/>
      <point x="688" y="1124"/>
      <point x="600" y="1061"/>
      <point x="488" y="1003" type="curve" smooth="yes"/>
      <point x="341" y="917"/>
      <point x="209" y="847"/>
      <point x="209" y="702" type="curve" smooth="yes"/>
      <point x="209" y="627"/>
      <point x="237" y="525"/>
    </contour>
    <contour>
      <point x="242" y="137" type="curve" smooth="yes"/>
      <point x="241" y="48"/>
      <point x="306" y="-20"/>
      <point x="380" y="-20" type="curve" smooth="yes"/>
      <point x="491" y="-20"/>
      <point x="569" y="60"/>
      <point x="569" y="172" type="curve" smooth="yes"/>
      <point x="569" y="261"/>
      <point x="512" y="330"/>
      <point x="426" y="330" type="curve" smooth="yes"/>
      <point x="327" y="330"/>
      <point x="243" y="248"/>
    </contour>
  </outline>
</glyph>
<glyph name="at" format="2">
  <advance width="2010"/>
  <unicode hex="0040"/>
  <outline>
    <contour>
      <point x="102" y="312" type="curve" smooth="yes"/>
      <point x="102" y="-129"/>
      <point x="405" y="-500"/>
      <point x="926" y="-500" type="curve" smooth="yes"/>
      <point x="1126" y="-500"/>
      <point x="1272" y="-454"/>
      <point x="1362" y="-386" type="curve"/>
      <point x="1337" y="-316" type="line"/>
      <point x="1275" y="-346"/>
      <point x="1139" y="-398"/>
      <point x="945" y="-398" type="curve" smooth="yes"/>
      <point x="562" y="-398"/>
      <point x="290" y="-129"/>
      <point x="290" y="365" type="curve" smooth="yes"/>
      <point x="290" y="895"/>
      <point x="651" y="1407"/>
      <point x="1175" y="1407" type="curve" smooth="yes"/>
      <point x="1485" y="1407"/>
      <point x="1766" y="1253"/>
      <point x="1766" y="825" type="curve" smooth="yes"/>
      <point x="1766" y="515"/>
      <point x="1589" y="138"/>
      <point x="1469" y="138" type="curve" smooth="yes"/>
      <point x="1458" y="138"/>
      <point x="1443" y="151"/>
      <point x="1443" y="204" type="curve" smooth="yes"/>
      <point x="1443" y="244"/>
      <point x="1437" y="291"/>
      <point x="1447" y="391" type="curve" smooth="yes"/>
      <point x="1467" y="587"/>
      <point x="1515" y="891"/>
      <point x="1553" y="1041" type="curve"/>
      <point x="1355" y="991" type="line"/>
      <point x="1301" y="1029"/>
      <point x="1209" y="1053"/>
      <point x="1155" y="1053" type="curve" smooth="yes"/>
      <point x="773" y="1053"/>
      <point x="557" y="723"/>
      <point x="557" y="410" type="curve" smooth="yes"/>
      <point x="556" y="120"/>
      <point x="724" y="-40"/>
      <point x="885" y="-40" type="curve" smooth="yes"/>
      <point x="1029" y="-40"/>
      <point x="1146" y="158"/>
      <point x="1249" y="436" type="curve"/>
      <point x="1229" y="347"/>
      <point x="1233" y="225"/>
      <point x="1233" y="179" type="curve" smooth="yes"/>
      <point x="1233" y="64"/>
      <point x="1264" y="-20"/>
      <point x="1354" y="-20" type="curve" smooth="yes"/>
      <point x="1659" y="-20"/>
      <point x="1942" y="365"/>
      <point x="1942" y="879" type="curve" smooth="yes"/>
      <point x="1942" y="1327"/>
      <point x="1560" y="1513"/>
      <point x="1239" y="1513" type="curve" smooth="yes"/>
      <point x="626" y="1513"/>
      <point x="102" y="1081"/>
    </contour>
    <contour>
      <point x="819" y="426" type="curve" smooth="yes"/>
      <point x="819" y="666"/>
      <point x="915" y="907"/>
      <point x="1135" y="907" type="curve" smooth="yes"/>
      <point x="1183" y="907"/>
      <point x="1270" y="865"/>
      <point x="1290" y="827" type="curve"/>
      <point x="1221" y="545"/>
      <point x="1045" y="174"/>
      <point x="946" y="174" type="curve" smooth="yes"/>
      <point x="865" y="174"/>
      <point x="819" y="306"/>
    </contour>
  </outline>
</glyph>
<glyph name="B" format="2">
  <advance width="1378"/>
  <unicode hex="0042"/>
  <anchor x="613" y="0" name="bottom"/>
  <anchor x="837" y="1486" name="top"/>
  <outline>
    <contour>
      <point x="177" y="1486" type="line"/>
      <point x="165" y="1379" type="line"/>
      <point x="307" y="1355" type="line"/>
      <point x="143" y="131" type="line"/>
      <point x="7" y="103" type="line"/>
      <point x="-1" y="0" type="line"/>
      <point x="286" y="0" type="line" smooth="yes"/>
      <point x="374" y="0"/>
      <point x="503" y="-20"/>
      <point x="597" y="-20" type="curve" smooth="yes"/>
      <point x="1061" y="-20"/>
      <point x="1309" y="122"/>
      <point x="1309" y="488" type="curve" smooth="yes"/>
      <point x="1309" y="646"/>
      <point x="1175" y="789"/>
      <point x="953" y="784" type="curve"/>
      <point x="1201" y="844"/>
      <point x="1325" y="968"/>
      <point x="1317" y="1182" type="curve" smooth="yes"/>
      <point x="1311" y="1342"/>
      <point x="1232" y="1502"/>
      <point x="852" y="1502" type="curve" smooth="yes"/>
      <point x="725" y="1502"/>
      <point x="617" y="1488"/>
      <point x="504" y="1486" type="curve"/>
    </contour>
    <contour>
      <point x="455" y="49" type="line"/>
      <point x="544" y="714" type="line"/>
      <point x="474" y="695" type="line"/>
      <point x="566" y="701"/>
      <point x="592" y="703"/>
      <point x="668" y="703" type="curve" smooth="yes"/>
      <point x="870" y="703"/>
      <point x="951" y="622"/>
      <point x="957" y="456" type="curve" smooth="yes"/>
      <point x="967" y="211"/>
      <point x="854" y="101"/>
      <point x="639" y="101" type="curve" smooth="yes"/>
      <point x="575" y="101"/>
      <point x="432" y="124"/>
      <point x="420" y="149" type="curve"/>
    </contour>
    <contour>
      <point x="557" y="824" type="line"/>
      <point x="642" y="1448" type="line"/>
      <point x="590" y="1337" type="line"/>
      <point x="573" y="1374"/>
      <point x="726" y="1379"/>
      <point x="775" y="1379" type="curve" smooth="yes"/>
      <point x="918" y="1379"/>
      <point x="994" y="1301"/>
      <point x="1000" y="1156" type="curve" smooth="yes"/>
      <point x="1008" y="924"/>
      <point x="856" y="836"/>
      <point x="685" y="836" type="curve" smooth="yes"/>
      <point x="636" y="836"/>
      <point x="600" y="835"/>
      <point x="539" y="837" type="curve"/>
    </contour>
  </outline>
</glyph>
<glyph name="C" format="2">
  <advance width="1289"/>
  <unicode hex="0043"/>
  <anchor x="671" y="0" name="bottom"/>
  <anchor x="823" y="1486" name="top"/>
  <outline>
    <contour>
      <point x="670" y="-16" type="curve" smooth="yes"/>
      <point x="958" y="-16"/>
      <point x="1091" y="71"/>
      <point x="1165" y="130" type="curve"/>
      <point x="1207" y="409" type="line"/>
      <point x="1014" y="409" type="line"/>
      <point x="994" y="334"/>
      <point x="970" y="254"/>
      <point x="936" y="213" type="curve"/>
      <point x="863" y="141"/>
      <point x="765" y="140"/>
      <point x="722" y="140" type="curve" smooth="yes"/>
      <point x="533" y="140"/>
      <point x="454" y="314"/>
      <point x="444" y="642" type="curve" smooth="yes"/>
      <point x="436" y="968"/>
      <point x="566" y="1379"/>
      <point x="880" y="1379" type="curve" smooth="yes"/>
      <point x="917" y="1379"/>
      <point x="948" y="1372"/>
      <point x="976" y="1362" type="curve"/>
      <point x="1014" y="1059" type="line"/>
      <point x="1257" y="1059" type="line"/>
      <point x="1317" y="1450" type="line"/>
      <point x="1245" y="1457"/>
      <point x="1095" y="1504"/>
      <point x="933" y="1504" type="curve" smooth="yes"/>
      <point x="413" y="1504"/>
      <point x="69" y="1179"/>
      <point x="69" y="622" type="curve" smooth="yes"/>
      <point x="69" y="281"/>
      <point x="231" y="-16"/>
    </contour>
  </outline>
</glyph>
<glyph name="D" format="2">
  <advance width="1485"/>
  <unicode hex="0044"/>
  <anchor x="364.811" y="748" name="bar"/>
  <anchor x="598" y="0" name="bottom"/>
  <anchor x="832" y="1486" name="top"/>
  <outline>
    <contour>
      <point x="179" y="1486" type="line"/>
      <point x="169" y="1378" type="line"/>
      <point x="307" y="1356" type="line"/>
      <point x="139" y="130" type="line"/>
      <point x="-13" y="102" type="line"/>
      <point x="-25" y="0" type="line"/>
      <point x="331" y="0" type="line"/>
      <point x="415" y="0"/>
      <point x="537" y="-16"/>
      <point x="591" y="-16" type="curve" smooth="yes"/>
      <point x="1209" y="-16"/>
      <point x="1469" y="362"/>
      <point x="1469" y="900" type="curve" smooth="yes"/>
      <point x="1469" y="1242"/>
      <point x="1303" y="1504"/>
      <point x="833" y="1502" type="curve" smooth="yes"/>
      <point x="717" y="1502"/>
      <point x="595" y="1488"/>
      <point x="487" y="1486" type="curve"/>
    </contour>
    <contour>
      <point x="462" y="63" type="line"/>
      <point x="650" y="1397" type="line"/>
      <point x="632" y="1343" type="line"/>
      <point x="658" y="1360"/>
      <point x="700" y="1378"/>
      <point x="801" y="1378" type="curve" smooth="yes"/>
      <point x="1011" y="1378"/>
      <point x="1107" y="1236"/>
      <point x="1107" y="866" type="curve" smooth="yes"/>
      <point x="1107" y="532"/>
      <point x="975" y="108"/>
      <point x="615" y="108" type="curve" smooth="yes"/>
      <point x="549" y="108"/>
      <point x="428" y="141"/>
      <point x="442" y="152" type="curve"/>
    </contour>
  </outline>
</glyph>
<glyph name="E" format="2">
  <advance width="1328"/>
  <unicode hex="0045"/>
  <anchor x="599" y="0" name="bottom"/>
  <anchor x="956" y="0" name="ogonek"/>
  <anchor x="747" y="1486" name="top"/>
  <anchor x="148" y="1486" name="topleft"/>
  <outline>
    <contour>
      <point x="-23" y="0" type="line"/>
      <point x="1185" y="0" type="line"/>
      <point x="1256" y="440" type="line"/>
      <point x="1086" y="454" type="line"/>
      <point x="945" y="180" type="line"/>
      <point x="484" y="146" type="line"/>
      <point x="557" y="708" type="line"/>
      <point x="990" y="679" type="line"/>
      <point x="1026" y="902" type="line"/>
      <point x="577" y="859" type="line"/>
      <point x="645" y="1371" type="line"/>
      <point x="988" y="1345" type="line"/>
      <point x="1062" y="1128" type="line"/>
      <point x="1228" y="1128" type="line"/>
      <point x="1261" y="1486" type="line"/>
      <point x="177" y="1486" type="line"/>
      <point x="165" y="1379" type="line"/>
      <point x="307" y="1355" type="line"/>
      <point x="140" y="130" type="line"/>
      <point x="-9" y="103" type="line"/>
    </contour>
  </outline>
</glyph>
<glyph name="G" format="2">
  <advance width="1400"/>
  <unicode hex="0047"/>
  <anchor x="943.797" y="397" name="bar"/>
  <anchor x="649" y="0" name="bottom"/>
  <anchor x="882" y="1486" name="top"/>
  <outline>
    <contour>
      <point x="639" y="-16" type="curve" smooth="yes"/>
      <point x="820" y="-16"/>
      <point x="939" y="20"/>
      <point x="1052" y="50" type="curve" smooth="yes"/>
      <point x="1110" y="66"/>
      <point x="1194" y="82"/>
      <point x="1236" y="82" type="curve"/>
      <point x="1324" y="735" type="line"/>
      <point x="784" y="735" type="line"/>
      <point x="766" y="593" type="line"/>
      <point x="966" y="577" type="line"/>
      <point x="914" y="160" type="line"/>
      <point x="856" y="137"/>
      <point x="785" y="130"/>
      <point x="694" y="130" type="curve" smooth="yes"/>
      <point x="508" y="130"/>
      <point x="425" y="358"/>
      <point x="425" y="642" type="curve" smooth="yes"/>
      <point x="425" y="1038"/>
      <point x="525" y="1379"/>
      <point x="888" y="1379" type="curve" smooth="yes"/>
      <point x="958" y="1379"/>
      <point x="1015" y="1363"/>
      <point x="1063" y="1336" type="curve"/>
      <point x="1073" y="1113" type="line"/>
      <point x="1303" y="1113" type="line"/>
      <point x="1366" y="1436" type="line"/>
      <point x="1346" y="1440"/>
      <point x="1327" y="1444"/>
      <point x="1307" y="1448" type="curve" smooth="yes"/>
      <point x="1222" y="1468"/>
      <point x="1127" y="1504"/>
      <point x="884" y="1504" type="curve" smooth="yes"/>
      <point x="341" y="1504"/>
      <point x="57" y="1148"/>
      <point x="67" y="612" type="curve" smooth="yes"/>
      <point x="73" y="281"/>
      <point x="243" y="-16"/>
    </contour>
  </outline>
</glyph>
<glyph name="H" format="2">
  <advance width="1602"/>
  <unicode hex="0048"/>
  <anchor x="741" y="0" name="bottom"/>
  <anchor x="1483" y="0" name="bottomright"/>
  <anchor x="929" y="1486" name="top"/>
  <outline>
    <contour>
      <point x="-8" y="0" type="line"/>
      <point x="638" y="0" type="line"/>
      <point x="646" y="102" type="line"/>
      <point x="476" y="130" type="line"/>
      <point x="643" y="1355" type="line"/>
      <point x="818" y="1379" type="line"/>
      <point x="830" y="1486" type="line"/>
      <point x="177" y="1486" type="line"/>
      <point x="163" y="1379" type="line"/>
      <point x="305" y="1355" type="line"/>
      <point x="138" y="130" type="line"/>
      <point x="2" y="102" type="line"/>
    </contour>
    <contour>
      <point x="500" y="688" type="line"/>
      <point x="1162" y="688" type="line"/>
      <point x="1162" y="824" type="line"/>
      <point x="500" y="824" type="line"/>
    </contour>
    <contour>
      <point x="840" y="0" type="line"/>
      <point x="1477" y="0" type="line"/>
      <point x="1489" y="102" type="line"/>
      <point x="1340" y="130" type="line"/>
      <point x="1506" y="1356" type="line"/>
      <point x="1657" y="1378" type="line"/>
      <point x="1669" y="1486" type="line"/>
      <point x="1028" y="1486" type="line"/>
      <point x="1016" y="1378" type="line"/>
      <point x="1168" y="1356" type="line"/>
      <point x="1002" y="130" type="line"/>
      <point x="854" y="102" type="line"/>
    </contour>
  </outline>
</glyph>
<glyph name="I" format="2">
  <advance width="779"/>
  <unicode hex="0049"/>
  <anchor x="312" y="0" name="bottom"/>
  <anchor x="492" y="-164" name="btm"/>
  <anchor x="325" y="0" name="ogonek"/>
  <anchor x="510" y="1486" name="top"/>
  <anchor x="183" y="1486" name="topleft"/>
  <outline>
    <contour>
      <point x="-18" y="0" type="line"/>
      <point x="658" y="0" type="line"/>
      <point x="666" y="102" type="line"/>
      <point x="496" y="130" type="line"/>
      <point x="663" y="1355" type="line"/>
      <point x="838" y="1379" type="line"/>
      <point x="850" y="1486" type="line"/>
      <point x="173" y="1486" type="line"/>
      <point x="159" y="1379" type="line"/>
      <point x="325" y="1355" type="line"/>
      <point x="158" y="130" type="line"/>
      <point x="-8" y="102" type="line"/>
    </contour>
  </outline>
</glyph>
<glyph name="J" format="2">
  <advance width="702"/>
  <unicode hex="004A"/>
  <anchor x="264" y="-164" name="btm"/>
  <anchor x="493" y="1486" name="top"/>
  <outline>
    <contour>
      <point x="-131" y="-336" type="line"/>
      <point x="158" y="-298"/>
      <point x="368" y="-148"/>
      <point x="448" y="74" type="curve" smooth="yes"/>
      <point x="481" y="166"/>
      <point x="556" y="804"/>
      <point x="624" y="1355" type="curve"/>
      <point x="761" y="1379" type="line"/>
      <point x="777" y="1486" type="line"/>
      <point x="162" y="1486" type="line"/>
      <point x="148" y="1379" type="line"/>
      <point x="290" y="1353" type="line"/>
      <point x="240" y="929"/>
      <point x="180" y="462"/>
      <point x="122" y="84" type="curve" smooth="yes"/>
      <point x="102" y="-45"/>
      <point x="4" y="-168"/>
      <point x="-182" y="-233" type="curve"/>
    </contour>
  </outline>
</glyph>
<glyph name="K" format="2">
  <advance width="1480"/>
  <unicode hex="004B"/>
  <anchor x="784" y="0" name="bottom"/>
  <anchor x="907" y="1486" name="top"/>
  <outline>
    <contour>
      <point x="-11" y="0" type="line"/>
      <point x="643" y="0" type="line"/>
      <point x="652" y="103" type="line"/>
      <point x="477" y="131" type="line"/>
      <point x="637" y="1355" type="line"/>
      <point x="812" y="1379" type="line"/>
      <point x="824" y="1486" type="line"/>
      <point x="177" y="1486" type="line"/>
      <point x="165" y="1379" type="line"/>
      <point x="305" y="1355" type="line"/>
      <point x="145" y="131" type="line"/>
      <point x="3" y="103" type="line"/>
    </contour>
    <contour>
      <point x="494" y="456" type="line"/>
      <point x="1399" y="1355" type="line"/>
      <point x="1522" y="1379" type="line"/>
      <point x="1534" y="1486" type="line"/>
      <point x="1047" y="1486" type="line"/>
      <point x="1037" y="1381" type="line"/>
      <point x="1169" y="1355" type="line"/>
      <point x="520" y="672" type="line"/>
    </contour>
    <contour>
      <point x="1450" y="0" type="line"/>
      <point x="1469" y="110" type="line"/>
      <point x="1357" y="140" type="line"/>
      <point x="1313" y="168"/>
      <point x="1265" y="287"/>
      <point x="1185" y="484" type="curve" smooth="yes"/>
      <point x="1140" y="597"/>
      <point x="1043" y="886"/>
      <point x="999" y="992" type="curve"/>
      <point x="755" y="748" type="line"/>
      <point x="808" y="588"/>
      <point x="861" y="356"/>
      <point x="903" y="218" type="curve" smooth="yes"/>
      <point x="955" y="52"/>
      <point x="972" y="6"/>
      <point x="1030" y="0" type="curve"/>
    </contour>
  </outline>
</glyph>
<glyph name="L" format="2">
  <advance width="1247"/>
  <unicode hex="004C"/>
  <anchor x="580" y="0" name="bottom"/>
  <anchor x="848" y="1110" name="car"/>
  <anchor x="942" y="1618" name="caron"/>
  <anchor x="398" y="743" name="center"/>
  <anchor x="508" y="1486" name="top"/>
  <anchor x="1378.205" y="1486" name="topright"/>
  <outline>
    <contour>
      <point x="-1" y="0" type="line"/>
      <point x="1114" y="0" type="line"/>
      <point x="1215" y="560" type="line"/>
      <point x="1042" y="582" type="line"/>
      <point x="838" y="145" type="line"/>
      <point x="481" y="125" type="line"/>
      <point x="643" y="1355" type="line"/>
      <point x="821" y="1379" type="line"/>
      <point x="833" y="1486" type="line"/>
      <point x="177" y="1486" type="line"/>
      <point x="163" y="1379" type="line"/>
      <point x="305" y="1355" type="line"/>
      <point x="145" y="131" type="line"/>
      <point x="11" y="103" type="line"/>
    </contour>
  </outline>
</glyph>
<glyph name="M" format="2">
  <advance width="2004"/>
  <unicode hex="004D"/>
  <anchor x="867" y="0" name="bottom"/>
  <anchor x="1930.064" y="0" name="bottomright"/>
  <anchor x="1121" y="1486" name="top"/>
  <outline>
    <contour>
      <point x="-85" y="0" type="line"/>
      <point x="511" y="0" type="line"/>
      <point x="521" y="103" type="line"/>
      <point x="302" y="131" type="line"/>
      <point x="506" y="979" type="line"/>
      <point x="590" y="1355" type="line"/>
      <point x="644" y="989" type="line"/>
      <point x="778" y="0" type="line"/>
      <point x="942" y="-2" type="line"/>
      <point x="1371" y="1013" type="line"/>
      <point x="1511" y="1356" type="line"/>
      <point x="1491" y="965" type="line"/>
      <point x="1436" y="131" type="line"/>
      <point x="1252" y="105" type="line"/>
      <point x="1244" y="0" type="line"/>
      <point x="1934" y="0" type="line"/>
      <point x="1942" y="103" type="line"/>
      <point x="1766" y="131" type="line"/>
      <point x="1804" y="1355" type="line"/>
      <point x="1976" y="1379" type="line"/>
      <point x="1990" y="1486" type="line"/>
      <point x="1395" y="1486" type="line"/>
      <point x="1071" y="639" type="line"/>
      <point x="1015" y="471" type="line"/>
      <point x="995" y="639" type="line"/>
      <point x="904" y="1486" type="line"/>
      <point x="229" y="1486" type="line"/>
      <point x="213" y="1379" type="line"/>
      <point x="403" y="1355" type="line"/>
      <point x="85" y="131" type="line"/>
      <point x="-73" y="103" type="line"/>
    </contour>
  </outline>
</glyph>
<glyph name="R" format="2">
  <advance width="1421"/>
  <unicode hex="0052"/>
  <anchor x="714" y="0" name="bottom"/>
  <anchor x="771" y="1486" name="top"/>
  <outline>
    <contour>
      <point x="-8" y="0" type="line"/>
      <point x="642" y="0" type="line"/>
      <point x="650" y="102" type="line"/>
      <point x="468" y="130" type="line"/>
      <point x="645" y="1432" type="line"/>
      <point x="587" y="1351" type="line"/>
      <point x="643" y="1379"/>
      <point x="725" y="1379"/>
      <point x="763" y="1379" type="curve" smooth="yes"/>
      <point x="913" y="1379"/>
      <point x="1004" y="1305"/>
      <point x="1010" y="1150" type="curve" smooth="yes"/>
      <point x="1020" y="907"/>
      <point x="904" y="792"/>
      <point x="718" y="778" type="curve" smooth="yes"/>
      <point x="697" y="776"/>
      <point x="576" y="777"/>
      <point x="532" y="779" type="curve"/>
      <point x="518" y="645" type="line"/>
      <point x="574" y="644"/>
      <point x="696" y="642"/>
      <point x="710" y="646" type="curve"/>
      <point x="752" y="600"/>
      <point x="802" y="376"/>
      <point x="860" y="196" type="curve" smooth="yes"/>
      <point x="892" y="102"/>
      <point x="938" y="0"/>
      <point x="987" y="0" type="curve"/>
      <point x="1361" y="0" type="line"/>
      <point x="1373" y="103" type="line"/>
      <point x="1253" y="105"/>
      <point x="1228" y="224"/>
      <point x="1174" y="359" type="curve" smooth="yes"/>
      <point x="1142" y="446"/>
      <point x="1036" y="675"/>
      <point x="967" y="671" type="curve"/>
      <point x="886" y="657" type="line"/>
      <point x="1155" y="658"/>
      <point x="1356" y="888"/>
      <point x="1356" y="1129" type="curve" smooth="yes"/>
      <point x="1356" y="1363"/>
      <point x="1235" y="1502"/>
      <point x="834" y="1502" type="curve" smooth="yes"/>
      <point x="663" y="1502"/>
      <point x="608" y="1486"/>
      <point x="479" y="1486" type="curve" smooth="yes"/>
      <point x="177" y="1486" type="line"/>
      <point x="164" y="1378" type="line"/>
      <point x="305" y="1355" type="line"/>
      <point x="138" y="130" type="line"/>
      <point x="2" y="102" type="line"/>
    </contour>
  </outline>
</glyph>
<glyph name="X" format="2">
  <advance width="1342"/>
  <unicode hex="0058"/>
  <anchor x="595" y="0" name="bottom"/>
  <anchor x="1305" y="0" name="bottomright"/>
  <anchor x="699" y="746" name="center"/>
  <anchor x="954" y="1660" name="top"/>
  <outline>
    <contour>
      <point x="-66" y="0" type="line"/>
      <point x="436" y="0" type="line"/>
      <point x="446" y="103" type="line"/>
      <point x="309" y="131" type="line"/>
      <point x="608" y="580" type="line"/>
      <point x="850" y="780" type="line"/>
      <point x="1314" y="1355" type="line"/>
      <point x="1446" y="1379" type="line"/>
      <point x="1460" y="1486" type="line"/>
      <point x="955" y="1486" type="line"/>
      <point x="944" y="1379" type="line"/>
      <point x="1075" y="1355" type="line"/>
      <point x="778" y="924" type="line"/>
      <point x="538" y="744" type="line"/>
      <point x="64" y="131" type="line"/>
      <point x="-54" y="103" type="line"/>
    </contour>
    <contour>
      <point x="624" y="0" type="line"/>
      <point x="1289" y="0" type="line"/>
      <point x="1302" y="103" type="line"/>
      <point x="1164" y="131" type="line"/>
      <point x="854" y="780" type="line"/>
      <point x="782" y="924" type="line"/>
      <point x="610" y="1356" type="line"/>
      <point x="763" y="1381" type="line"/>
      <point x="776" y="1486" type="line"/>
      <point x="135" y="1486" type="line"/>
      <point x="120" y="1379" type="line"/>
      <point x="246" y="1355" type="line"/>
      <point x="542" y="744" type="line"/>
      <point x="612" y="580" type="line"/>
      <point x="780" y="130" type="line"/>
      <point x="632" y="103" type="line"/>
    </contour>
  </outline>
</glyph>
<glyph name="Z" format="2">
  <advance width="1239"/>
  <unicode hex="005A"/>
  <anchor x="541" y="0" name="bottom"/>
  <anchor x="734" y="1486" name="top"/>
  <outline>
    <contour>
      <point x="-2" y="0" type="line"/>
      <point x="1086" y="0" type="line"/>
      <point x="1184" y="422" type="line"/>
      <point x="1017" y="469" type="line"/>
      <point x="827" y="154" type="line"/>
      <point x="346" y="133" type="line"/>
      <point x="457" y="231" type="line"/>
      <point x="1288" y="1402" type="line"/>
      <point x="1258" y="1486" type="line"/>
      <point x="215" y="1486" type="line"/>
      <point x="153" y="1103" type="line"/>
      <point x="321" y="1082" type="line"/>
      <point x="459" y="1345" type="line"/>
      <point x="928" y="1363" type="line"/>
      <point x="806" y="1264" type="line"/>
      <point x="-36" y="86" type="line"/>
    </contour>
  </outline>
</glyph>
<glyph name="asciicircum" format="2">
  <advance width="1306"/>
  <unicode hex="005E"/>
  <outline>
    <contour>
      <point x="670" y="1496" type="line"/>
      <point x="147" y="404" type="line"/>
      <point x="393" y="404" type="line"/>
      <point x="719" y="1097" type="line"/>
      <point x="871" y="404" type="line"/>
      <point x="1117" y="404" type="line"/>
      <point x="866" y="1496" type="line"/>
    </contour>
  </outline>
</glyph>
<glyph name="grave" format="2">
  <advance width="881"/>
  <unicode hex="0060"/>
  <anchor x="707" y="1110" name="_top"/>
  <anchor x="787" y="1701" name="top"/>
  <outline>
    <contour>
      <point x="729" y="1264" type="curve"/>
      <point x="821" y="1342" type="line"/>
      <point x="509" y="1782" type="line"/>
      <point x="313" y="1612" type="line"/>
      <point x="375" y="1504"/>
      <point x="649" y="1298"/>
    </contour>
  </outline>
</glyph>
<glyph name="a" format="2">
  <advance width="1169"/>
  <unicode hex="0061"/>
  <anchor x="538" y="0" name="bottom"/>
  <anchor x="1143" y="1622" name="caron"/>
  <anchor x="924" y="20" name="ogonek"/>
  <anchor x="720" y="1108" name="top"/>
  <outline>
    <contour>
      <point x="981" y="220" type="curve" smooth="yes"/>
      <point x="1108" y="1136" type="line"/>
      <point x="959" y="1094" type="line"/>
      <point x="901" y="1114"/>
      <point x="805" y="1136"/>
      <point x="728" y="1136" type="curve" smooth="yes"/>
      <point x="307" y="1136"/>
      <point x="59" y="770"/>
      <point x="59" y="387" type="curve" smooth="yes"/>
      <point x="59" y="168"/>
      <point x="161" y="-20"/>
      <point x="404" y="-20" type="curve" smooth="yes"/>
      <point x="540" y="-20"/>
      <point x="639" y="42"/>
      <point x="702" y="109" type="curve"/>
      <point x="701" y="97" type="line"/>
      <point x="709" y="20"/>
      <point x="772" y="-20"/>
      <point x="856" y="-20" type="curve" smooth="yes"/>
      <point x="1008" y="-20"/>
      <point x="1114" y="86"/>
      <point x="1137" y="121" type="curve"/>
      <point x="1109" y="190" type="line"/>
      <point x="1064" y="155"/>
      <point x="1038" y="146"/>
      <point x="1019" y="146" type="curve" smooth="yes"/>
      <point x="990" y="146"/>
      <point x="974" y="166"/>
    </contour>
    <contour>
      <point x="775" y="994" type="curve"/>
      <point x="667" y="208" type="line"/>
      <point x="630" y="174"/>
      <point x="586" y="148"/>
      <point x="539" y="148" type="curve" smooth="yes"/>
      <point x="448" y="148"/>
      <point x="392" y="243"/>
      <point x="392" y="399" type="curve" smooth="yes"/>
      <point x="392" y="665"/>
      <point x="476" y="1001"/>
      <point x="706" y="1001" type="curve" smooth="yes"/>
      <point x="729" y="1001"/>
      <point x="752" y="999"/>
    </contour>
  </outline>
</glyph>
<glyph name="b" format="2">
  <advance width="1149"/>
  <unicode hex="0062"/>
  <anchor x="445" y="0" name="bottom"/>
  <anchor x="830" y="1110" name="top"/>
  <outline>
    <contour>
      <point x="475" y="1032" type="curve"/>
      <point x="555" y="1606" type="line"/>
      <point x="503" y="1634" type="line"/>
      <point x="146" y="1596" type="line"/>
      <point x="126" y="1515" type="line"/>
      <point x="228" y="1473" type="line"/>
      <point x="24" y="-20" type="line"/>
      <point x="186" y="22" type="line"/>
      <point x="247" y="2"/>
      <point x="342" y="-20"/>
      <point x="422" y="-20" type="curve" smooth="yes"/>
      <point x="833" y="-20"/>
      <point x="1086" y="305"/>
      <point x="1086" y="712" type="curve" smooth="yes"/>
      <point x="1086" y="981"/>
      <point x="976" y="1136"/>
      <point x="750" y="1136" type="curve" smooth="yes"/>
      <point x="632" y="1136"/>
      <point x="539" y="1087"/>
    </contour>
    <contour>
      <point x="357" y="126" type="curve"/>
      <point x="455" y="876" type="line"/>
      <point x="495" y="925"/>
      <point x="549" y="966"/>
      <point x="616" y="966" type="curve" smooth="yes"/>
      <point x="715" y="966"/>
      <point x="760" y="848"/>
      <point x="760" y="712" type="curve" smooth="yes"/>
      <point x="760" y="417"/>
      <point x="674" y="115"/>
      <point x="448" y="115" type="curve" smooth="yes"/>
      <point x="413" y="115"/>
      <point x="384" y="117"/>
    </contour>
  </outline>
</glyph>
<glyph name="c" format="2">
  <advance width="935"/>
  <unicode hex="0063"/>
  <anchor x="448" y="0" name="bottom"/>
  <anchor x="639" y="1112" name="top"/>
  <outline>
    <contour>
      <point x="780" y="789" type="curve"/>
      <point x="851" y="789" type="line"/>
      <point x="930" y="1098" type="line"/>
      <point x="866" y="1124"/>
      <point x="761" y="1136"/>
      <point x="681" y="1136" type="curve" smooth="yes"/>
      <point x="251" y="1136"/>
      <point x="47" y="769"/>
      <point x="53" y="439" type="curve" smooth="yes"/>
      <point x="57" y="136"/>
      <point x="202" y="-20"/>
      <point x="430" y="-20" type="curve" smooth="yes"/>
      <point x="661" y="-20"/>
      <point x="810" y="104"/>
      <point x="863" y="189" type="curve"/>
      <point x="802" y="288" type="line"/>
      <point x="749" y="220"/>
      <point x="679" y="164"/>
      <point x="553" y="164" type="curve" smooth="yes"/>
      <point x="438" y="164"/>
      <point x="385" y="243"/>
      <point x="379" y="450" type="curve" smooth="yes"/>
      <point x="372" y="765"/>
      <point x="502" y="983"/>
      <point x="612" y="983" type="curve" smooth="yes"/>
      <point x="656" y="983"/>
      <point x="736" y="858"/>
    </contour>
  </outline>
</glyph>
<glyph name="e" format="2">
  <advance width="1028"/>
  <unicode hex="0065"/>
  <anchor x="468" y="0" name="bottom"/>
  <anchor x="567" y="0" name="ogonek"/>
  <anchor x="652" y="1110" name="top"/>
  <outline>
    <contour>
      <point x="915" y="212" type="curve"/>
      <point x="854" y="311" type="line"/>
      <point x="802" y="242"/>
      <point x="718" y="149"/>
      <point x="567" y="149" type="curve" smooth="yes"/>
      <point x="454" y="149"/>
      <point x="386" y="249"/>
      <point x="387" y="449" type="curve"/>
      <point x="626" y="455"/>
      <point x="990" y="575"/>
      <point x="981" y="897" type="curve" smooth="yes"/>
      <point x="977" y="1035"/>
      <point x="885" y="1143"/>
      <point x="669" y="1143" type="curve" smooth="yes"/>
      <point x="317" y="1143"/>
      <point x="46" y="840"/>
      <point x="50" y="425" type="curve" smooth="yes"/>
      <point x="52" y="203"/>
      <point x="160" y="-23"/>
      <point x="467" y="-23" type="curve" smooth="yes"/>
      <point x="710" y="-23"/>
      <point x="862" y="126"/>
    </contour>
    <contour>
      <point x="599" y="1006" type="curve" smooth="yes"/>
      <point x="649" y="1006"/>
      <point x="676" y="960"/>
      <point x="680" y="871" type="curve" smooth="yes"/>
      <point x="689" y="677"/>
      <point x="501" y="572"/>
      <point x="387" y="566" type="curve"/>
      <point x="396" y="749"/>
      <point x="448" y="1006"/>
    </contour>
  </outline>
</glyph>
<glyph name="k" format="2">
  <advance width="1156"/>
  <unicode hex="006B"/>
  <anchor x="496" y="0" name="bottom"/>
  <anchor x="374" y="1292" name="tbar"/>
  <anchor x="818" y="1462" name="top"/>
  <outline>
    <contour>
      <point x="61" y="0" type="line"/>
      <point x="375" y="0" type="line"/>
      <point x="593" y="1605" type="line"/>
      <point x="539" y="1633" type="line"/>
      <point x="143" y="1592" type="line"/>
      <point x="126" y="1512" type="line"/>
      <point x="268" y="1470" type="line"/>
    </contour>
    <contour>
      <point x="848" y="-18" type="curve" smooth="yes"/>
      <point x="1012" y="-18"/>
      <point x="1142" y="104"/>
      <point x="1179" y="152" type="curve"/>
      <point x="1147" y="220" type="line"/>
      <point x="1109" y="191"/>
      <point x="1058" y="176"/>
      <point x="1034" y="176" type="curve" smooth="yes"/>
      <point x="1002" y="176"/>
      <point x="962" y="206"/>
      <point x="930" y="266" type="curve"/>
      <point x="709" y="714" type="line"/>
      <point x="670" y="605" type="line"/>
      <point x="794" y="652"/>
      <point x="958" y="738"/>
      <point x="1049" y="854" type="curve"/>
      <point x="1077" y="890"/>
      <point x="1105" y="940"/>
      <point x="1104" y="1011" type="curve" smooth="yes"/>
      <point x="1104" y="1078"/>
      <point x="1061" y="1136"/>
      <point x="978" y="1136" type="curve" smooth="yes"/>
      <point x="913" y="1136"/>
      <point x="820" y="1109"/>
      <point x="820" y="1005" type="curve" smooth="yes"/>
      <point x="820" y="943"/>
      <point x="804" y="891"/>
      <point x="768" y="843" type="curve" smooth="yes"/>
      <point x="652" y="692"/>
      <point x="566" y="649"/>
      <point x="467" y="596" type="curve"/>
      <point x="657" y="98" type="line" smooth="yes"/>
      <point x="683" y="29"/>
      <point x="735" y="-18"/>
    </contour>
  </outline>
</glyph>
<glyph name="q" format="2">
  <advance width="1151"/>
  <unicode hex="0071"/>
  <anchor x="495" y="1580" name="cr"/>
  <anchor x="715" y="1226" name="top"/>
  <outline>
    <contour>
      <point x="930" y="-271" type="curve" smooth="yes"/>
      <point x="1123" y="1135" type="line"/>
      <point x="967" y="1088" type="line"/>
      <point x="911" y="1110"/>
      <point x="805" y="1136"/>
      <point x="720" y="1136" type="curve" smooth="yes"/>
      <point x="269" y="1136"/>
      <point x="61" y="770"/>
      <point x="61" y="392" type="curve" smooth="yes"/>
      <point x="61" y="168"/>
      <point x="153" y="-22"/>
      <point x="397" y="-22" type="curve" smooth="yes"/>
      <point x="556" y="-22"/>
      <point x="611" y="29"/>
      <point x="672" y="84" type="curve"/>
      <point x="614" y="-340" type="line" smooth="yes"/>
      <point x="603" y="-422"/>
      <point x="641" y="-506"/>
      <point x="793" y="-506" type="curve" smooth="yes"/>
      <point x="967" y="-506"/>
      <point x="1063" y="-394"/>
      <point x="1084" y="-365" type="curve"/>
      <point x="1057" y="-293" type="line"/>
      <point x="1015" y="-328"/>
      <point x="990" y="-340"/>
      <point x="968" y="-340" type="curve" smooth="yes"/>
      <point x="936" y="-340"/>
      <point x="926" y="-305"/>
    </contour>
    <contour>
      <point x="794" y="984" type="curve"/>
      <point x="694" y="247" type="line"/>
      <point x="657" y="196"/>
      <point x="598" y="148"/>
      <point x="531" y="148" type="curve" smooth="yes"/>
      <point x="440" y="148"/>
      <point x="388" y="243"/>
      <point x="388" y="404" type="curve" smooth="yes"/>
      <point x="388" y="664"/>
      <point x="458" y="1001"/>
      <point x="698" y="1001" type="curve" smooth="yes"/>
      <point x="731" y="1001"/>
      <point x="763" y="997"/>
    </contour>
  </outline>
</glyph>
<glyph name="t" format="2">
  <advance width="709"/>
  <unicode hex="0074"/>
  <anchor x="273" y="0" name="bottom"/>
  <anchor x="768" y="1309" name="car"/>
  <anchor x="671" y="1618" name="caron"/>
  <anchor x="267" y="580" name="tbar"/>
  <anchor x="490" y="1362" name="top"/>
  <outline>
    <contour>
      <point x="439" y="379" type="curve" smooth="yes"/>
      <point x="510" y="953" type="line"/>
      <point x="716" y="953" type="line"/>
      <point x="738" y="1110" type="line"/>
      <point x="532" y="1110" type="line"/>
      <point x="576" y="1382" type="line"/>
      <point x="380" y="1382" type="line"/>
      <point x="340" y="1286"/>
      <point x="280" y="1154"/>
      <point x="223" y="1106" type="curve"/>
      <point x="85" y="1060" type="line"/>
      <point x="62" y="953" type="line"/>
      <point x="197" y="953" type="line"/>
      <point x="126" y="384" type="line" smooth="yes"/>
      <point x="102" y="195"/>
      <point x="100" y="170"/>
      <point x="100" y="156" type="curve" smooth="yes"/>
      <point x="100" y="22"/>
      <point x="191" y="-20"/>
      <point x="288" y="-20" type="curve" smooth="yes"/>
      <point x="498" y="-20"/>
      <point x="608" y="79"/>
      <point x="665" y="143" type="curve"/>
      <point x="641" y="221" type="line"/>
      <point x="592" y="179"/>
      <point x="547" y="164"/>
      <point x="495" y="164" type="curve" smooth="yes"/>
      <point x="447" y="164"/>
      <point x="423" y="190"/>
      <point x="423" y="244" type="curve" smooth="yes"/>
      <point x="423" y="277"/>
      <point x="431" y="315"/>
    </contour>
  </outline>
</glyph>
<glyph name="u" format="2">
  <advance width="1228"/>
  <unicode hex="0075"/>
  <anchor x="520" y="0" name="bottom"/>
  <anchor x="1025" y="0" name="bottomright"/>
  <anchor x="982" y="20" name="ogonek"/>
  <anchor x="672" y="1110" name="top"/>
  <anchor x="989" y="1125" name="topright"/>
  <outline>
    <contour>
      <point x="378" y="-20" type="curve" smooth="yes"/>
      <point x="550" y="-20"/>
      <point x="650" y="66"/>
      <point x="716" y="144" type="curve"/>
      <point x="720" y="142" type="line"/>
      <point x="716" y="122"/>
      <point x="716" y="100"/>
      <point x="720" y="84" type="curve" smooth="yes"/>
      <point x="734" y="20"/>
      <point x="788" y="-20"/>
      <point x="896" y="-20" type="curve" smooth="yes"/>
      <point x="1050" y="-20"/>
      <point x="1148" y="88"/>
      <point x="1168" y="122" type="curve"/>
      <point x="1140" y="190" type="line"/>
      <point x="1090" y="154"/>
      <point x="1074" y="146"/>
      <point x="1052" y="146" type="curve" smooth="yes"/>
      <point x="1022" y="146"/>
      <point x="1006" y="168"/>
      <point x="1012" y="220" type="curve" smooth="yes"/>
      <point x="1138" y="1128" type="line"/>
      <point x="824" y="1128" type="line"/>
      <point x="704" y="244" type="line"/>
      <point x="656" y="190"/>
      <point x="588" y="142"/>
      <point x="510" y="142" type="curve" smooth="yes"/>
      <point x="444" y="142"/>
      <point x="416" y="180"/>
      <point x="416" y="276" type="curve" smooth="yes"/>
      <point x="416" y="334"/>
      <point x="436" y="460"/>
      <point x="452" y="576" type="curve" smooth="yes"/>
      <point x="518" y="1112" type="line"/>
      <point x="468" y="1136" type="line"/>
      <point x="80" y="1104" type="line"/>
      <point x="64" y="1018" type="line"/>
      <point x="188" y="942" type="line"/>
      <point x="134" y="584" type="line" smooth="yes"/>
      <point x="118" y="462"/>
      <point x="94" y="322"/>
      <point x="94" y="230" type="curve" smooth="yes"/>
      <point x="98" y="42"/>
      <point x="258" y="-20"/>
    </contour>
  </outline>
</glyph>
<glyph name="v" format="2">
  <advance width="1073"/>
  <unicode hex="0076"/>
  <anchor x="610" y="1110" name="top"/>
  <outline>
    <contour>
      <point x="114" y="907" type="curve" smooth="yes"/>
      <point x="233" y="346" type="line"/>
      <point x="309" y="-20" type="line"/>
      <point x="512" y="-6" type="line"/>
      <point x="564" y="60" type="line" smooth="yes"/>
      <point x="859" y="434"/>
      <point x="1063" y="725"/>
      <point x="1059" y="925" type="curve" smooth="yes"/>
      <point x="1058" y="1031"/>
      <point x="1014" y="1136"/>
      <point x="888" y="1136" type="curve" smooth="yes"/>
      <point x="793" y="1136"/>
      <point x="736" y="1073"/>
      <point x="736" y="996" type="curve" smooth="yes"/>
      <point x="736" y="927"/>
      <point x="764" y="879"/>
      <point x="764" y="824" type="curve" smooth="yes"/>
      <point x="764" y="639"/>
      <point x="725" y="482"/>
      <point x="611" y="310" type="curve" smooth="yes"/>
      <point x="481" y="117" type="line"/>
      <point x="571" y="95" type="line"/>
      <point x="522" y="441" type="line"/>
      <point x="431" y="1002" type="line" smooth="yes"/>
      <point x="417" y="1088"/>
      <point x="364" y="1136"/>
      <point x="247" y="1136" type="curve" smooth="yes"/>
      <point x="114" y="1136"/>
      <point x="11" y="1042"/>
      <point x="-7" y="1022" type="curve"/>
      <point x="23" y="947" type="line"/>
      <point x="37" y="955"/>
      <point x="50" y="962"/>
      <point x="72" y="962" type="curve" smooth="yes"/>
      <point x="92" y="962"/>
      <point x="106" y="947"/>
    </contour>
  </outline>
</glyph>
<glyph name="braceleft" format="2">
  <advance width="959"/>
  <unicode hex="007B"/>
  <outline>
    <contour>
      <point x="429" y="-331" type="curve" smooth="yes"/>
      <point x="531" y="-331"/>
      <point x="620" y="-307"/>
      <point x="709" y="-287" type="curve"/>
      <point x="729" y="-161" type="line"/>
      <point x="690" y="-162"/>
      <point x="629" y="-163"/>
      <point x="589" y="-163" type="curve" smooth="yes"/>
      <point x="498" y="-163"/>
      <point x="418" y="-139"/>
      <point x="439" y="-12" type="curve" smooth="yes"/>
      <point x="457" y="99"/>
      <point x="562" y="331"/>
      <point x="582" y="464" type="curve" smooth="yes"/>
      <point x="603" y="606"/>
      <point x="484" y="677"/>
      <point x="334" y="699" type="curve"/>
      <point x="491" y="722"/>
      <point x="633" y="784"/>
      <point x="655" y="926" type="curve" smooth="yes"/>
      <point x="676" y="1061"/>
      <point x="621" y="1295"/>
      <point x="639" y="1405" type="curve" smooth="yes"/>
      <point x="659" y="1530"/>
      <point x="747" y="1556"/>
      <point x="838" y="1556" type="curve" smooth="yes"/>
      <point x="877" y="1556"/>
      <point x="938" y="1556"/>
      <point x="977" y="1555" type="curve"/>
      <point x="996" y="1676" type="line"/>
      <point x="913" y="1696"/>
      <point x="832" y="1720"/>
      <point x="730" y="1720" type="curve" smooth="yes"/>
      <point x="485" y="1720"/>
      <point x="376" y="1619"/>
      <point x="350" y="1451" type="curve" smooth="yes"/>
      <point x="322" y="1268"/>
      <point x="424" y="1085"/>
      <point x="398" y="916" type="curve" smooth="yes"/>
      <point x="385" y="832"/>
      <point x="366" y="788"/>
      <point x="137" y="788" type="curve"/>
      <point x="111" y="622" type="line"/>
      <point x="340" y="622"/>
      <point x="342" y="555"/>
      <point x="328" y="470" type="curve" smooth="yes"/>
      <point x="300" y="301"/>
      <point x="163" y="119"/>
      <point x="134" y="-63" type="curve" smooth="yes"/>
      <point x="107" y="-230"/>
      <point x="183" y="-331"/>
    </contour>
  </outline>
</glyph>
<glyph name="asciitilde" format="2">
  <advance width="1275"/>
  <unicode hex="007E"/>
  <outline>
    <contour>
      <point x="178" y="630" type="curve"/>
      <point x="260" y="516" type="line"/>
      <point x="306" y="584"/>
      <point x="380" y="611"/>
      <point x="448" y="611" type="curve" smooth="yes"/>
      <point x="570" y="611"/>
      <point x="623" y="452"/>
      <point x="809" y="452" type="curve" smooth="yes"/>
      <point x="957" y="452"/>
      <point x="1095" y="570"/>
      <point x="1123" y="675" type="curve"/>
      <point x="1024" y="790" type="line"/>
      <point x="978" y="722"/>
      <point x="922" y="685"/>
      <point x="836" y="685" type="curve" smooth="yes"/>
      <point x="716" y="685"/>
      <point x="659" y="834"/>
      <point x="482" y="834" type="curve" smooth="yes"/>
      <point x="334" y="834"/>
      <point x="208" y="724"/>
    </contour>
  </outline>
</glyph>
<glyph name="currency" format="2">
  <advance width="1591"/>
  <unicode hex="00A4"/>
  <outline>
    <contour>
      <point x="248" y="238" type="line"/>
      <point x="384" y="101" type="line"/>
      <point x="590" y="307" type="line"/>
      <point x="654" y="268"/>
      <point x="730" y="246"/>
      <point x="811" y="246" type="curve" smooth="yes"/>
      <point x="893" y="246"/>
      <point x="972" y="270"/>
      <point x="1038" y="311" type="curve"/>
      <point x="1243" y="105" type="line"/>
      <point x="1380" y="242" type="line"/>
      <point x="1174" y="447" type="line"/>
      <point x="1216" y="513"/>
      <point x="1241" y="590"/>
      <point x="1241" y="674" type="curve" smooth="yes"/>
      <point x="1241" y="754"/>
      <point x="1217" y="829"/>
      <point x="1178" y="893" type="curve"/>
      <point x="1382" y="1096" type="line"/>
      <point x="1247" y="1233" type="line"/>
      <point x="1046" y="1033" type="line"/>
      <point x="977" y="1076"/>
      <point x="897" y="1102"/>
      <point x="811" y="1102" type="curve" smooth="yes"/>
      <point x="728" y="1102"/>
      <point x="652" y="1078"/>
      <point x="586" y="1039" type="curve"/>
      <point x="380" y="1247" type="line"/>
      <point x="244" y="1108" type="line"/>
      <point x="447" y="905" type="line"/>
      <point x="405" y="837"/>
      <point x="381" y="758"/>
      <point x="381" y="674" type="curve" smooth="yes"/>
      <point x="381" y="588"/>
      <point x="407" y="507"/>
      <point x="449" y="439" type="curve"/>
    </contour>
    <contour>
      <point x="605" y="674" type="curve" smooth="yes"/>
      <point x="605" y="792"/>
      <point x="697" y="887"/>
      <point x="811" y="887" type="curve" smooth="yes"/>
      <point x="925" y="887"/>
      <point x="1014" y="792"/>
      <point x="1014" y="674" type="curve" smooth="yes"/>
      <point x="1014" y="556"/>
      <point x="925" y="459"/>
      <point x="811" y="459" type="curve" smooth="yes"/>
      <point x="697" y="459"/>
      <point x="605" y="556"/>
    </contour>
  </outline>
</glyph>
<glyph name="yen" format="2">
  <advance width="1529"/>
  <unicode hex="00A5"/>
  <outline>
    <contour>
      <point x="317" y="832" type="line"/>
      <point x="299" y="685" type="line"/>
      <point x="651" y="685" type="line"/>
      <point x="629" y="511" type="line"/>
      <point x="279" y="511" type="line"/>
      <point x="263" y="368" type="line"/>
      <point x="613" y="368" type="line"/>
      <point x="583" y="131" type="line"/>
      <point x="312" y="103" type="line"/>
      <point x="300" y="0" type="line"/>
      <point x="1143" y="0" type="line"/>
      <point x="1153" y="103" type="line"/>
      <point x="868" y="131" type="line"/>
      <point x="898" y="368" type="line"/>
      <point x="1225" y="368" type="line"/>
      <point x="1239" y="511" type="line"/>
      <point x="916" y="511" type="line"/>
      <point x="940" y="685" type="line"/>
      <point x="1261" y="685" type="line"/>
      <point x="1279" y="832" type="line"/>
      <point x="1051" y="832" type="line"/>
      <point x="1456" y="1361" type="line"/>
      <point x="1584" y="1387" type="line"/>
      <point x="1598" y="1496" type="line"/>
      <point x="1055" y="1496" type="line"/>
      <point x="1042" y="1387" type="line"/>
      <point x="1159" y="1371" type="line"/>
      <point x="912" y="973" type="line"/>
      <point x="815" y="802" type="line"/>
      <point x="775" y="973" type="line"/>
      <point x="631" y="1363" type="line"/>
      <point x="839" y="1387" type="line"/>
      <point x="855" y="1496" type="line"/>
      <point x="193" y="1496" type="line"/>
      <point x="179" y="1387" type="line"/>
      <point x="311" y="1363" type="line"/>
      <point x="574" y="832" type="line"/>
    </contour>
  </outline>
</glyph>
<glyph name="brokenbar" format="2">
  <advance width="834"/>
  <unicode hex="00A6"/>
  <outline>
    <contour>
      <point x="333" y="1738" type="line"/>
      <point x="333" y="893" type="line"/>
      <point x="539" y="893" type="line"/>
      <point x="539" y="1738" type="line"/>
    </contour>
    <contour>
      <point x="333" y="663" type="line"/>
      <point x="333" y="-182" type="line"/>
      <point x="539" y="-182" type="line"/>
      <point x="539" y="663" type="line"/>
    </contour>
  </outline>
</glyph>
<glyph name="dieresis" format="2">
  <advance width="1092"/>
  <unicode hex="00A8"/>
  <anchor x="622" y="1110" name="_top"/>
  <anchor x="671" y="1456" name="top"/>
  <outline>
    <contour>
      <point x="424" y="1242" type="curve" smooth="yes"/>
      <point x="549" y="1242"/>
      <point x="601" y="1331"/>
      <point x="601" y="1438" type="curve" smooth="yes"/>
      <point x="601" y="1515"/>
      <point x="549" y="1594"/>
      <point x="456" y="1594" type="curve" smooth="yes"/>
      <point x="350" y="1594"/>
      <point x="289" y="1509"/>
      <point x="286" y="1404" type="curve" smooth="yes"/>
      <point x="284" y="1323"/>
      <point x="347" y="1242"/>
    </contour>
    <contour>
      <point x="865" y="1242" type="curve" smooth="yes"/>
      <point x="988" y="1242"/>
      <point x="1041" y="1331"/>
      <point x="1042" y="1438" type="curve" smooth="yes"/>
      <point x="1043" y="1515"/>
      <point x="988" y="1594"/>
      <point x="897" y="1594" type="curve" smooth="yes"/>
      <point x="789" y="1594"/>
      <point x="730" y="1509"/>
      <point x="727" y="1404" type="curve" smooth="yes"/>
      <point x="725" y="1323"/>
      <point x="788" y="1242"/>
    </contour>
  </outline>
</glyph>
<glyph name="guillemetleft" format="2">
  <advance width="1435"/>
  <unicode hex="00AB"/>
  <outline>
    <contour>
      <point x="686" y="1131" type="line"/>
      <point x="155" y="676" type="line"/>
      <point x="130" y="517" type="line"/>
      <point x="517" y="69" type="line"/>
      <point x="664" y="122" type="line"/>
      <point x="450" y="594" type="line"/>
      <point x="817" y="1080" type="line"/>
    </contour>
    <contour>
      <point x="1226" y="1121" type="line"/>
      <point x="733" y="676" type="line"/>
      <point x="707" y="517" type="line"/>
      <point x="1075" y="79" type="line"/>
      <point x="1223" y="132" type="line"/>
      <point x="1030" y="594" type="line"/>
      <point x="1356" y="1070" type="line"/>
    </contour>
  </outline>
</glyph>
<glyph name="logicalnot" format="2">
  <advance width="1259"/>
  <unicode hex="00AC"/>
  <outline>
    <contour>
      <point x="153" y="738" type="line"/>
      <point x="128" y="548" type="line"/>
      <point x="881" y="548" type="line"/>
      <point x="834" y="203" type="line"/>
      <point x="1043" y="203" type="line"/>
      <point x="1116" y="738" type="line"/>
    </contour>
  </outline>
</glyph>
<glyph name="macron" format="2">
  <advance width="899"/>
  <unicode hex="00AF"/>
  <anchor x="524" y="1110" name="_top"/>
  <anchor x="568" y="1436" name="top"/>
  <outline>
    <contour>
      <point x="300" y="1519" type="line"/>
      <point x="273" y="1314" type="line"/>
      <point x="835" y="1314" type="line"/>
      <point x="862" y="1519" type="line"/>
    </contour>
  </outline>
</glyph>
<glyph name="paragraph" format="2">
  <advance width="1413"/>
  <unicode hex="00B6"/>
  <outline>
    <contour>
      <point x="180" y="0" type="line"/>
      <point x="634" y="0" type="line"/>
      <point x="827" y="1515" type="line"/>
      <point x="1019" y="1515" type="line"/>
      <point x="828" y="0" type="line"/>
      <point x="1254" y="0" type="line"/>
      <point x="1264" y="84" type="line"/>
      <point x="1112" y="113" type="line"/>
      <point x="1159" y="511"/>
      <point x="1244" y="1122"/>
      <point x="1291" y="1517" type="curve"/>
      <point x="1455" y="1551" type="line"/>
      <point x="1465" y="1650" type="line"/>
      <point x="1177" y="1650" type="line"/>
      <point x="983" y="1654"/>
      <point x="930" y="1668"/>
      <point x="762" y="1668" type="curve" smooth="yes"/>
      <point x="318" y="1668"/>
      <point x="125" y="1495"/>
      <point x="125" y="1182" type="curve" smooth="yes"/>
      <point x="125" y="968"/>
      <point x="282" y="796"/>
      <point x="479" y="796" type="curve"/>
      <point x="387" y="113" type="line"/>
      <point x="188" y="84" type="line"/>
    </contour>
  </outline>
</glyph>
<glyph name="guillemetright" format="2">
  <advance width="1434"/>
  <unicode hex="00BB"/>
  <outline>
    <contour>
      <point x="761" y="69" type="line"/>
      <point x="1292" y="524" type="line"/>
      <point x="1317" y="683" type="line"/>
      <point x="930" y="1131" type="line"/>
      <point x="783" y="1078" type="line"/>
      <point x="997" y="606" type="line"/>
      <point x="630" y="120" type="line"/>
    </contour>
    <contour>
      <point x="222" y="79" type="line"/>
      <point x="715" y="524" type="line"/>
      <point x="741" y="683" type="line"/>
      <point x="373" y="1121" type="line"/>
      <point x="225" y="1068" type="line"/>
      <point x="418" y="606" type="line"/>
      <point x="92" y="130" type="line"/>
    </contour>
  </outline>
</glyph>
<glyph name="AE" format="2">
  <advance width="1984"/>
  <unicode hex="00C6"/>
  <anchor x="1127" y="1486" name="top"/>
  <outline>
    <contour>
      <point x="-201" y="0" type="line"/>
      <point x="411" y="0" type="line"/>
      <point x="417" y="103" type="line"/>
      <point x="232" y="131" type="line"/>
      <point x="376" y="408" type="line"/>
      <point x="841" y="408" type="line"/>
      <point x="804" y="131" type="line"/>
      <point x="649" y="103" type="line"/>
      <point x="635" y="0" type="line"/>
      <point x="1844" y="0" type="line"/>
      <point x="1912" y="439" type="line"/>
      <point x="1708" y="454" type="line"/>
      <point x="1594" y="164" type="line"/>
      <point x="1139" y="131" type="line"/>
      <point x="1215" y="697" type="line"/>
      <point x="1643" y="665" type="line"/>
      <point x="1676" y="886" type="line"/>
      <point x="1232" y="847" type="line"/>
      <point x="1305" y="1371" type="line"/>
      <point x="1639" y="1345" type="line"/>
      <point x="1673" y="1128" type="line"/>
      <point x="1885" y="1128" type="line"/>
      <point x="1920" y="1486" type="line"/>
      <point x="401" y="1486" type="line"/>
      <point x="385" y="1371" type="line"/>
      <point x="671" y="1345" type="line"/>
      <point x="-38" y="131" type="line"/>
      <point x="-193" y="103" type="line"/>
    </contour>
    <contour>
      <point x="453" y="555" type="line"/>
      <point x="880" y="1371" type="line"/>
      <point x="966" y="1370" type="line"/>
      <point x="860" y="555" type="line"/>
    </contour>
  </outline>
</glyph>
<glyph name="multiply" format="2">
  <advance width="1262"/>
  <unicode hex="00D7"/>
  <outline>
    <contour>
      <point x="903" y="175" type="line"/>
      <point x="1062" y="322" type="line"/>
      <point x="767" y="642" type="line"/>
      <point x="1140" y="960" type="line"/>
      <point x="1015" y="1109" type="line"/>
      <point x="655" y="769" type="line"/>
      <point x="380" y="1111" type="line"/>
      <point x="224" y="964" type="line"/>
      <point x="518" y="644" type="line"/>
      <point x="144" y="326" type="line"/>
      <point x="269" y="177" type="line"/>
      <point x="629" y="517" type="line"/>
    </contour>
  </outline>
</glyph>
<glyph name="divide" format="2">
  <advance width="1260"/>
  <unicode hex="00F7"/>
  <outline>
    <contour>
      <point x="193" y="737" type="line"/>
      <point x="175" y="547" type="line"/>
      <point x="1091" y="547" type="line"/>
      <point x="1107" y="737" type="line"/>
    </contour>
    <contour>
      <point x="422" y="192" type="curve" smooth="yes"/>
      <point x="422" y="103"/>
      <point x="481" y="38"/>
      <point x="555" y="38" type="curve" smooth="yes"/>
      <point x="648" y="38"/>
      <point x="750" y="99"/>
      <point x="751" y="229" type="curve" smooth="yes"/>
      <point x="751" y="309"/>
      <point x="703" y="386"/>
      <point x="606" y="386" type="curve" smooth="yes"/>
      <point x="519" y="386"/>
      <point x="422" y="312"/>
    </contour>
    <contour>
      <point x="664" y="898" type="curve" smooth="yes"/>
      <point x="757" y="898"/>
      <point x="860" y="962"/>
      <point x="860" y="1092" type="curve" smooth="yes"/>
      <point x="860" y="1172"/>
      <point x="813" y="1248"/>
      <point x="718" y="1248" type="curve" smooth="yes"/>
      <point x="629" y="1248"/>
      <point x="532" y="1175"/>
      <point x="531" y="1055" type="curve" smooth="yes"/>
      <point x="531" y="965"/>
      <point x="593" y="898"/>
    </contour>
  </outline>
</glyph>
<glyph name="idotless" format="2">
  <advance width="659"/>
  <unicode hex="0131"/>
  <anchor x="259" y="0" name="bottom"/>
  <anchor x="354" y="0" name="ogonek"/>
  <anchor x="372" y="1110" name="top"/>
  <outline>
    <contour>
      <point x="289" y="-20" type="curve" smooth="yes"/>
      <point x="457" y="-20"/>
      <point x="553" y="92"/>
      <point x="575" y="122" type="curve"/>
      <point x="549" y="191" type="line"/>
      <point x="503" y="158"/>
      <point x="480" y="146"/>
      <point x="458" y="146" type="curve" smooth="yes"/>
      <point x="428" y="146"/>
      <point x="417" y="172"/>
      <point x="424" y="220" type="curve" smooth="yes"/>
      <point x="549" y="1112" type="line"/>
      <point x="496" y="1136" type="line"/>
      <point x="110" y="1084" type="line"/>
      <point x="94" y="999" type="line"/>
      <point x="206" y="938" type="line"/>
      <point x="157" y="564"/>
      <point x="119" y="280"/>
      <point x="98" y="125" type="curve" smooth="yes"/>
      <point x="86" y="41"/>
      <point x="153" y="-20"/>
    </contour>
  </outline>
</glyph>
<glyph name="lslash" format="2">
  <advance width="682"/>
  <unicode hex="0142"/>
  <anchor x="294" y="0" name="bottom"/>
  <anchor x="737" y="1620" name="caron"/>
  <anchor x="473" y="1570" name="top"/>
  <outline>
    <contour>
      <point x="72" y="742" type="line"/>
      <point x="281" y="823" type="line"/>
      <point x="406" y="853" type="line"/>
      <point x="723" y="986" type="line"/>
      <point x="722" y="1111" type="line"/>
      <point x="411" y="978" type="line"/>
      <point x="290" y="949" type="line"/>
      <point x="71" y="860" type="line"/>
    </contour>
    <component base="l" xOffset="41"/>
  </outline>
</glyph>
<glyph name="OE" format="2">
  <advance width="2277"/>
  <unicode hex="0152"/>
  <outline>
    <contour>
      <point x="1107" y="0" type="line"/>
      <point x="2137" y="0" type="line"/>
      <point x="2205" y="440" type="line"/>
      <point x="2001" y="454" type="line"/>
      <point x="1893" y="176" type="line"/>
      <point x="1437" y="142" type="line"/>
      <point x="1513" y="712" type="line"/>
      <point x="1941" y="676" type="line"/>
      <point x="1979" y="904" type="line"/>
      <point x="1531" y="858" type="line"/>
      <point x="1597" y="1370" type="line"/>
      <point x="1937" y="1346" type="line"/>
      <point x="1979" y="1128" type="line"/>
      <point x="2179" y="1128" type="line"/>
      <point x="2213" y="1486" type="line"/>
      <point x="1295" y="1486" type="line"/>
      <point x="1269" y="1290" type="line"/>
      <point x="1197" y="1420"/>
      <point x="1067" y="1506"/>
      <point x="845" y="1506" type="curve" smooth="yes"/>
      <point x="311" y="1506"/>
      <point x="67" y="1076"/>
      <point x="69" y="622" type="curve" smooth="yes"/>
      <point x="69" y="256"/>
      <point x="235" y="-20"/>
      <point x="643" y="-20" type="curve" smooth="yes"/>
      <point x="859" y="-20"/>
      <point x="1017" y="52"/>
      <point x="1127" y="166" type="curve"/>
    </contour>
    <contour>
      <point x="669" y="100" type="curve" smooth="yes"/>
      <point x="461" y="100"/>
      <point x="425" y="380"/>
      <point x="423" y="636" type="curve" smooth="yes"/>
      <point x="423" y="1014"/>
      <point x="565" y="1384"/>
      <point x="819" y="1384" type="curve" smooth="yes"/>
      <point x="997" y="1384"/>
      <point x="1063" y="1190"/>
      <point x="1063" y="860" type="curve" smooth="yes"/>
      <point x="1063" y="438"/>
      <point x="939" y="100"/>
    </contour>
  </outline>
</glyph>
<glyph name="oe" format="2">
  <advance width="1752"/>
  <unicode hex="0153"/>
  <outline>
    <contour>
      <point x="1577" y="306" type="line"/>
      <point x="1523" y="237"/>
      <point x="1438" y="154"/>
      <point x="1283" y="154" type="curve" smooth="yes"/>
      <point x="1180" y="154"/>
      <point x="1096" y="227"/>
      <point x="1096" y="389" type="curve" smooth="yes"/>
      <point x="1096" y="406"/>
      <point x="1097" y="424"/>
      <point x="1099" y="444" type="curve"/>
      <point x="1344" y="450"/>
      <point x="1718" y="570"/>
      <point x="1706" y="892" type="curve" smooth="yes"/>
      <point x="1702" y="1030"/>
      <point x="1608" y="1136"/>
      <point x="1387" y="1136" type="curve" smooth="yes"/>
      <point x="1243" y="1136"/>
      <point x="1113" y="1087"/>
      <point x="1009" y="1001" type="curve"/>
      <point x="939" y="1089"/>
      <point x="835" y="1136"/>
      <point x="686" y="1136" type="curve" smooth="yes"/>
      <point x="307" y="1136"/>
      <point x="73" y="829"/>
      <point x="73" y="460" type="curve" smooth="yes"/>
      <point x="73" y="163"/>
      <point x="209" y="-20"/>
      <point x="501" y="-20" type="curve" smooth="yes"/>
      <point x="641" y="-20"/>
      <point x="767" y="25"/>
      <point x="865" y="101" type="curve"/>
      <point x="933" y="27"/>
      <point x="1035" y="-20"/>
      <point x="1180" y="-20" type="curve" smooth="yes"/>
      <point x="1430" y="-20"/>
      <point x="1584" y="121"/>
      <point x="1638" y="207" type="curve"/>
    </contour>
    <contour>
      <point x="646" y="1001" type="curve" smooth="yes"/>
      <point x="744" y="1001"/>
      <point x="770" y="860"/>
      <point x="770" y="638" type="curve" smooth="yes"/>
      <point x="770" y="427"/>
      <point x="684" y="103"/>
      <point x="544" y="103" type="curve" smooth="yes"/>
      <point x="450" y="103"/>
      <point x="424" y="212"/>
      <point x="416" y="420" type="curve" smooth="yes"/>
      <point x="416" y="710"/>
      <point x="474" y="1001"/>
    </contour>
    <contour>
      <point x="1315" y="1001" type="curve" smooth="yes"/>
      <point x="1370" y="1001"/>
      <point x="1397" y="951"/>
      <point x="1397" y="854" type="curve" smooth="yes"/>
      <point x="1397" y="668"/>
      <point x="1215" y="567"/>
      <point x="1100" y="561" type="curve"/>
      <point x="1110" y="744"/>
      <point x="1163" y="1001"/>
    </contour>
  </outline>
</glyph>
<glyph name="Schwa" format="2">
  <advance width="1287"/>
  <unicode hex="018F"/>
  <outline>
    <contour>
      <point x="158" y="1090" type="line"/>
      <point x="337" y="1090" type="line"/>
      <point x="430" y="1291" type="line" smooth="yes"/>
      <point x="463" y="1358"/>
      <point x="526" y="1391"/>
      <point x="637" y="1391" type="curve" smooth="yes"/>
      <point x="851" y="1391"/>
      <point x="923" y="1141"/>
      <point x="908" y="791" type="curve"/>
      <point x="908" y="780"/>
      <point x="906" y="771"/>
      <point x="905" y="760" type="curve"/>
      <point x="92" y="760" type="line"/>
      <point x="72" y="706"/>
      <point x="46" y="582"/>
      <point x="46" y="468" type="curve" smooth="yes"/>
      <point x="46" y="156"/>
      <point x="231" y="-22"/>
      <point x="536" y="-22" type="curve" smooth="yes"/>
      <point x="922" y="-22"/>
      <point x="1252" y="368"/>
      <point x="1252" y="904" type="curve" smooth="yes"/>
      <point x="1252" y="1264"/>
      <point x="1047" y="1502"/>
      <point x="743" y="1502" type="curve" smooth="yes"/>
      <point x="379" y="1502"/>
      <point x="306" y="1414"/>
      <point x="202" y="1414" type="curve"/>
    </contour>
    <contour>
      <point x="894" y="627" type="line"/>
      <point x="847" y="235"/>
      <point x="721" y="107"/>
      <point x="580" y="107" type="curve" smooth="yes"/>
      <point x="424" y="107"/>
      <point x="375" y="235"/>
      <point x="375" y="434" type="curve" smooth="yes"/>
      <point x="375" y="503"/>
      <point x="387" y="555"/>
      <point x="403" y="627" type="curve"/>
    </contour>
  </outline>
</glyph>
<glyph name="jdotless" format="2">
  <advance width="640"/>
  <unicode hex="0237"/>
  <anchor x="359" y="1110" name="top"/>
  <outline>
    <contour>
      <point x="426" y="0" type="curve" smooth="yes"/>
      <point x="562" y="1112" type="line"/>
      <point x="506" y="1136" type="line"/>
      <point x="117" y="1086" type="line"/>
      <point x="97" y="999" type="line"/>
      <point x="223" y="936" type="line"/>
      <point x="121" y="64" type="line" smooth="yes"/>
      <point x="95" y="-167"/>
      <point x="58" y="-366"/>
      <point x="-107" y="-366" type="curve" smooth="yes"/>
      <point x="-133" y="-366"/>
      <point x="-177" y="-360"/>
      <point x="-195" y="-354" type="curve"/>
      <point x="-237" y="-480" type="line"/>
      <point x="-211" y="-504"/>
      <point x="-133" y="-516"/>
      <point x="-56" y="-516" type="curve" smooth="yes"/>
      <point x="180" y="-516"/>
      <point x="386" y="-328"/>
    </contour>
  </outline>
</glyph>
<glyph name="ringhalfright" format="2">
  <advance width="359"/>
  <unicode hex="02BE"/>
  <anchor x="86" y="1110" name="_top"/>
  <anchor x="178" y="1761" name="top"/>
  <outline>
    <contour>
      <point x="110" y="1285" type="line"/>
      <point x="307" y="1285"/>
      <point x="488" y="1383"/>
      <point x="488" y="1590" type="curve" smooth="yes"/>
      <point x="488" y="1743"/>
      <point x="353" y="1841"/>
      <point x="190" y="1841" type="curve"/>
      <point x="170" y="1706" type="line"/>
      <point x="237" y="1704"/>
      <point x="302" y="1668"/>
      <point x="302" y="1563" type="curve" smooth="yes"/>
      <point x="302" y="1450"/>
      <point x="206" y="1423"/>
      <point x="130" y="1423" type="curve"/>
    </contour>
  </outline>
</glyph>
<glyph name="circumflex" format="2">
  <advance width="1041"/>
  <unicode hex="02C6"/>
  <anchor x="612" y="1110" name="_top"/>
  <anchor x="679" y="1612" name="top"/>
  <outline>
    <contour>
      <point x="364" y="1234" type="line"/>
      <point x="462" y="1301"/>
      <point x="560" y="1383"/>
      <point x="658" y="1460" type="curve"/>
      <point x="728" y="1385"/>
      <point x="800" y="1305"/>
      <point x="870" y="1240" type="curve"/>
      <point x="974" y="1292" type="line"/>
      <point x="748" y="1686" type="line"/>
      <point x="623" y="1686" type="line"/>
      <point x="270" y="1296" type="line"/>
    </contour>
  </outline>
</glyph>
<glyph name="caron" format="2">
  <advance width="1071"/>
  <unicode hex="02C7"/>
  <anchor x="591" y="1110" name="_top"/>
  <anchor x="665" y="1629" name="top"/>
  <outline>
    <contour>
      <point x="322" y="1681" type="line"/>
      <point x="538" y="1266" type="line"/>
      <point x="709" y="1266" type="line"/>
      <point x="1057" y="1681" type="line"/>
      <point x="945" y="1737" type="line"/>
      <point x="840" y="1657"/>
      <point x="748" y="1568"/>
      <point x="650" y="1486" type="curve"/>
      <point x="577" y="1569"/>
      <point x="508" y="1657"/>
      <point x="442" y="1737" type="curve"/>
    </contour>
  </outline>
</glyph>
<glyph name="verticallinemod" format="2">
  <advance width="234"/>
  <unicode hex="02C8"/>
  <anchor x="190" y="1110" name="_top"/>
  <anchor x="246" y="1496" name="top"/>
  <outline>
    <contour>
      <point x="377" y="1672" type="line"/>
      <point x="163" y="1672" type="line"/>
      <point x="89" y="937" type="line"/>
      <point x="214" y="937" type="line"/>
    </contour>
  </outline>
</glyph>
<glyph name="dotaccent" format="2">
  <advance width="690"/>
  <unicode hex="02D9"/>
  <anchor x="413" y="1110" name="_top"/>
  <anchor x="471" y="1501" name="top"/>
  <outline>
    <contour>
      <point x="445" y="1272" type="curve" smooth="yes"/>
      <point x="583" y="1272"/>
      <point x="644" y="1360"/>
      <point x="645" y="1468" type="curve" smooth="yes"/>
      <point x="646" y="1545"/>
      <point x="583" y="1624"/>
      <point x="481" y="1624" type="curve" smooth="yes"/>
      <point x="362" y="1624"/>
      <point x="295" y="1539"/>
      <point x="289" y="1434" type="curve" smooth="yes"/>
      <point x="284" y="1352"/>
      <point x="360" y="1272"/>
    </contour>
  </outline>
</glyph>
<glyph name="ring" format="2">
  <advance width="1021"/>
  <unicode hex="02DA"/>
  <anchor x="586" y="1110" name="_top"/>
  <anchor x="904" y="1424" name="top"/>
  <outline>
    <contour>
      <point x="608" y="1246" type="curve" smooth="yes"/>
      <point x="804" y="1246"/>
      <point x="986" y="1342"/>
      <point x="986" y="1550" type="curve" smooth="yes"/>
      <point x="986" y="1694"/>
      <point x="854" y="1800"/>
      <point x="682" y="1800" type="curve" smooth="yes"/>
      <point x="512" y="1800"/>
      <point x="300" y="1722"/>
      <point x="300" y="1494" type="curve" smooth="yes"/>
      <point x="300" y="1342"/>
      <point x="422" y="1246"/>
    </contour>
    <contour>
      <point x="628" y="1384" type="curve" smooth="yes"/>
      <point x="564" y="1384"/>
      <point x="488" y="1448"/>
      <point x="488" y="1516" type="curve" smooth="yes"/>
      <point x="488" y="1622"/>
      <point x="584" y="1666"/>
      <point x="658" y="1666" type="curve" smooth="yes"/>
      <point x="726" y="1666"/>
      <point x="800" y="1630"/>
      <point x="800" y="1522" type="curve" smooth="yes"/>
      <point x="800" y="1410"/>
      <point x="704" y="1384"/>
    </contour>
  </outline>
</glyph>
<glyph name="ogonek" format="2">
  <advance width="856"/>
  <unicode hex="02DB"/>
  <anchor x="392" y="0" name="_ogonek"/>
  <outline>
    <contour>
      <point x="250" y="-466" type="curve" smooth="yes"/>
      <point x="406" y="-466"/>
      <point x="516" y="-386"/>
      <point x="569" y="-317" type="curve"/>
      <point x="535" y="-209" type="line"/>
      <point x="479" y="-251"/>
      <point x="439" y="-280"/>
      <point x="385" y="-280" type="curve" smooth="yes"/>
      <point x="347" y="-280"/>
      <point x="319" y="-266"/>
      <point x="320" y="-210" type="curve" smooth="yes"/>
      <point x="321" y="-138"/>
      <point x="392" y="-46"/>
      <point x="522" y="37" type="curve"/>
      <point x="467" y="58" type="line"/>
      <point x="412" y="43" type="line"/>
      <point x="275" y="-26"/>
      <point x="50" y="-138"/>
      <point x="50" y="-320" type="curve" smooth="yes"/>
      <point x="50" y="-400"/>
      <point x="110" y="-466"/>
    </contour>
  </outline>
</glyph>
<glyph name="hungarumlaut" format="2">
  <advance width="1264"/>
  <unicode hex="02DD"/>
  <anchor x="607" y="1110" name="_top"/>
  <outline>
    <contour>
      <point x="275" y="1336" type="line"/>
      <point x="375" y="1252" type="line"/>
      <point x="473" y="1300"/>
      <point x="741" y="1554"/>
      <point x="777" y="1656" type="curve"/>
      <point x="593" y="1786" type="line"/>
    </contour>
    <contour>
      <point x="745" y="1336" type="line"/>
      <point x="845" y="1252" type="line"/>
      <point x="945" y="1300"/>
      <point x="1205" y="1540"/>
      <point x="1245" y="1644" type="curve"/>
      <point x="1061" y="1772" type="line"/>
    </contour>
  </outline>
</glyph>
<glyph name="dotaccentcomb" format="2">
  <unicode hex="0307"/>
  <anchor x="255" y="1110" name="_top"/>
  <anchor x="313" y="1501" name="top"/>
  <outline>
    <contour>
      <point x="287" y="1272" type="curve" smooth="yes"/>
      <point x="425" y="1272"/>
      <point x="486" y="1360"/>
      <point x="487" y="1468" type="curve" smooth="yes"/>
      <point x="488" y="1545"/>
      <point x="425" y="1624"/>
      <point x="323" y="1624" type="curve" smooth="yes"/>
      <point x="204" y="1624"/>
      <point x="137" y="1539"/>
      <point x="131" y="1434" type="curve" smooth="yes"/>
      <point x="126" y="1352"/>
      <point x="202" y="1272"/>
    </contour>
  </outline>
</glyph>
<glyph name="hungarumlautcomb" format="2">
  <unicode hex="030B"/>
  <anchor x="449" y="1110" name="_top"/>
  <outline>
    <contour>
      <point x="117" y="1336" type="line"/>
      <point x="217" y="1252" type="line"/>
      <point x="315" y="1300"/>
      <point x="583" y="1554"/>
      <point x="619" y="1656" type="curve"/>
      <point x="435" y="1786" type="line"/>
    </contour>
    <contour>
      <point x="587" y="1336" type="line"/>
      <point x="687" y="1252" type="line"/>
      <point x="787" y="1300"/>
      <point x="1047" y="1540"/>
      <point x="1087" y="1644" type="curve"/>
      <point x="903" y="1772" type="line"/>
    </contour>
  </outline>
</glyph>
<glyph name="caroncomb" format="2">
  <unicode hex="030C"/>
  <anchor x="433" y="1110" name="_top"/>
  <anchor x="507" y="1629" name="top"/>
  <outline>
    <contour>
      <point x="164" y="1671" type="line"/>
      <point x="380" y="1256" type="line"/>
      <point x="551" y="1256" type="line"/>
      <point x="899" y="1671" type="line"/>
      <point x="787" y="1727" type="line"/>
      <point x="682" y="1647"/>
      <point x="590" y="1558"/>
      <point x="492" y="1476" type="curve"/>
      <point x="419" y="1559"/>
      <point x="350" y="1647"/>
      <point x="284" y="1727" type="curve"/>
    </contour>
  </outline>
</glyph>
<glyph name="breveinvertedcomb" format="2">
  <unicode hex="0311"/>
  <anchor x="430" y="1174" name="_top"/>
  <anchor x="494" y="1703" name="top"/>
  <outline>
    <contour>
      <point x="486" y="1706" type="curve" smooth="yes"/>
      <point x="220" y="1706"/>
      <point x="124" y="1496"/>
      <point x="123" y="1358" type="curve" smooth="yes"/>
      <point x="122" y="1346"/>
      <point x="123" y="1336"/>
      <point x="123" y="1324" type="curve"/>
      <point x="298" y="1324" type="line"/>
      <point x="302" y="1402"/>
      <point x="328" y="1504"/>
      <point x="464" y="1504" type="curve" smooth="yes"/>
      <point x="582" y="1504"/>
      <point x="611" y="1450"/>
      <point x="612" y="1368" type="curve" smooth="yes"/>
      <point x="612" y="1352"/>
      <point x="610" y="1338"/>
      <point x="608" y="1324" type="curve"/>
      <point x="785" y="1324" type="line"/>
      <point x="789" y="1342"/>
      <point x="792" y="1368"/>
      <point x="793" y="1389" type="curve" smooth="yes"/>
      <point x="792" y="1534"/>
      <point x="714" y="1706"/>
    </contour>
  </outline>
</glyph>
<glyph name="commaaccentcomb" format="2">
  <unicode hex="0326"/>
  <anchor x="104" y="0" name="_bottom"/>
  <outline>
    <contour>
      <point x="-83" y="-541" type="line"/>
      <point x="30" y="-587" type="line"/>
      <point x="106" y="-567"/>
      <point x="233" y="-454"/>
      <point x="232" y="-321" type="curve" smooth="yes"/>
      <point x="232" y="-233"/>
      <point x="198" y="-145"/>
      <point x="113" y="-108" type="curve"/>
      <point x="-92" y="-191" type="line"/>
      <point x="-92" y="-272" type="line"/>
      <point x="-54" y="-277"/>
      <point x="-38" y="-317"/>
      <point x="-36" y="-357" type="curve" smooth="yes"/>
      <point x="-32" y="-422"/>
      <point x="-58" y="-503"/>
      <point x="-81" y="-517" type="curve"/>
    </contour>
  </outline>
</glyph>
<glyph name="Delta" format="2">
  <advance width="1418"/>
  <unicode hex="0394"/>
  <outline>
    <contour>
      <point x="-16" y="0" type="line"/>
      <point x="1315" y="0" type="line"/>
      <point x="1337" y="39" type="line"/>
      <point x="905" y="1493" type="line"/>
      <point x="797" y="1493" type="line"/>
      <point x="-40" y="44" type="line"/>
    </contour>
    <contour>
      <point x="735" y="1020" type="line"/>
      <point x="785" y="828" type="line"/>
      <point x="979" y="112" type="line"/>
      <point x="1056" y="202" type="line"/>
      <point x="132" y="202" type="line"/>
      <point x="216" y="118" type="line"/>
      <point x="637" y="827" type="line"/>
    </contour>
  </outline>
</glyph>
<glyph name="Omega" format="2">
  <advance width="1676"/>
  <unicode hex="03A9"/>
  <outline>
    <contour>
      <point x="-2" y="0" type="line"/>
      <point x="647" y="0" type="line"/>
      <point x="695" y="145" type="line"/>
      <point x="607" y="236"/>
      <point x="527" y="535"/>
      <point x="527" y="783" type="curve" smooth="yes"/>
      <point x="527" y="1062"/>
      <point x="667" y="1340"/>
      <point x="904" y="1340" type="curve" smooth="yes"/>
      <point x="1139" y="1340"/>
      <point x="1151" y="1099"/>
      <point x="1146" y="905" type="curve" smooth="yes"/>
      <point x="1137" y="567"/>
      <point x="1050" y="271"/>
      <point x="847" y="145" type="curve"/>
      <point x="887" y="0" type="line"/>
      <point x="1540" y="0" type="line"/>
      <point x="1624" y="428" type="line"/>
      <point x="1482" y="428" type="line"/>
      <point x="1391" y="184" type="line"/>
      <point x="1100" y="165" type="line"/>
      <point x="1336" y="352"/>
      <point x="1500" y="696"/>
      <point x="1500" y="952" type="curve" smooth="yes"/>
      <point x="1500" y="1285"/>
      <point x="1275" y="1500"/>
      <point x="910" y="1500" type="curve" smooth="yes"/>
      <point x="362" y="1500"/>
      <point x="190" y="1147"/>
      <point x="190" y="789" type="curve" smooth="yes"/>
      <point x="190" y="557"/>
      <point x="361" y="284"/>
      <point x="487" y="157" type="curve"/>
      <point x="175" y="174" type="line"/>
      <point x="132" y="428" type="line"/>
      <point x="18" y="428" type="line"/>
    </contour>
  </outline>
</glyph>
<glyph name="E-cy" format="2">
  <advance width="1299"/>
  <unicode hex="0404"/>
  <outline>
    <contour>
      <point x="671" y="-16" type="curve" smooth="yes"/>
      <point x="959" y="-16"/>
      <point x="1091" y="72"/>
      <point x="1165" y="130" type="curve"/>
      <point x="1207" y="409" type="line"/>
      <point x="1013" y="409" type="line"/>
      <point x="993" y="333"/>
      <point x="971" y="254"/>
      <point x="937" y="212" type="curve"/>
      <point x="863" y="142"/>
      <point x="767" y="140"/>
      <point x="723" y="140" type="curve" smooth="yes"/>
      <point x="523" y="140"/>
      <point x="429" y="341"/>
      <point x="428" y="579" type="curve" smooth="yes"/>
      <point x="428" y="611"/>
      <point x="430" y="647"/>
      <point x="433" y="680" type="curve"/>
      <point x="625" y="666"/>
      <point x="847" y="644"/>
      <point x="951" y="638" type="curve"/>
      <point x="983" y="861" type="line"/>
      <point x="445" y="826" type="line"/>
      <point x="481" y="1100"/>
      <point x="627" y="1378"/>
      <point x="881" y="1378" type="curve" smooth="yes"/>
      <point x="917" y="1378"/>
      <point x="956" y="1372"/>
      <point x="984" y="1362" type="curve"/>
      <point x="1022" y="1059" type="line"/>
      <point x="1257" y="1059" type="line"/>
      <point x="1317" y="1450" type="line"/>
      <point x="1245" y="1470"/>
      <point x="1083" y="1504"/>
      <point x="933" y="1504" type="curve" smooth="yes"/>
      <point x="414" y="1504"/>
      <point x="69" y="1180"/>
      <point x="69" y="622" type="curve" smooth="yes"/>
      <point x="71" y="280"/>
      <point x="231" y="-16"/>
    </contour>
  </outline>
</glyph>
<glyph name="Nje-cy" format="2">
  <advance width="2151"/>
  <unicode hex="040A"/>
  <outline>
    <contour>
      <point x="-8" y="0" type="line"/>
      <point x="638" y="0" type="line"/>
      <point x="646" y="102" type="line"/>
      <point x="476" y="130" type="line"/>
      <point x="643" y="1355" type="line"/>
      <point x="818" y="1379" type="line"/>
      <point x="830" y="1486" type="line"/>
      <point x="177" y="1486" type="line"/>
      <point x="163" y="1379" type="line"/>
      <point x="305" y="1355" type="line"/>
      <point x="138" y="130" type="line"/>
      <point x="2" y="102" type="line"/>
    </contour>
    <contour>
      <point x="500" y="688" type="line"/>
      <point x="1162" y="688" type="line"/>
      <point x="1162" y="824" type="line"/>
      <point x="500" y="824" type="line"/>
    </contour>
    <contour>
      <point x="1416" y="-10" type="curve" smooth="yes"/>
      <point x="1838" y="-10"/>
      <point x="2091" y="206"/>
      <point x="2091" y="532" type="curve" smooth="yes"/>
      <point x="2091" y="800"/>
      <point x="1921" y="924"/>
      <point x="1608" y="924" type="curve" smooth="yes"/>
      <point x="1517" y="924"/>
      <point x="1432" y="907"/>
      <point x="1374" y="890" type="curve"/>
      <point x="1358" y="763" type="line"/>
      <point x="1397" y="771"/>
      <point x="1453" y="780"/>
      <point x="1500" y="780" type="curve" smooth="yes"/>
      <point x="1670" y="780"/>
      <point x="1739" y="683"/>
      <point x="1739" y="504" type="curve" smooth="yes"/>
      <point x="1739" y="274"/>
      <point x="1625" y="104"/>
      <point x="1393" y="104" type="curve" smooth="yes"/>
      <point x="1350" y="104"/>
      <point x="1312" y="109"/>
      <point x="1286" y="116" type="curve"/>
      <point x="1455" y="1355" type="line"/>
      <point x="1630" y="1378" type="line"/>
      <point x="1642" y="1486" type="line"/>
      <point x="989" y="1486" type="line"/>
      <point x="975" y="1379" type="line"/>
      <point x="1117" y="1355" type="line"/>
      <point x="950" y="130" type="line"/>
      <point x="814" y="102" type="line"/>
      <point x="804" y="0" type="line"/>
      <point x="1069" y="0" type="line" smooth="yes"/>
      <point x="1159" y="0"/>
      <point x="1325" y="-10"/>
    </contour>
  </outline>
</glyph>
<glyph name="Be-cy" format="2">
  <advance width="1360"/>
  <unicode hex="0411"/>
  <anchor x="595" y="-172" name="btm"/>
  <anchor x="793" y="1486" name="top"/>
  <outline>
    <contour>
      <point x="595" y="-18" type="curve" smooth="yes"/>
      <point x="1044" y="-18"/>
      <point x="1280" y="171"/>
      <point x="1280" y="532" type="curve" smooth="yes"/>
      <point x="1280" y="769"/>
      <point x="1110" y="885"/>
      <point x="795" y="885" type="curve" smooth="yes"/>
      <point x="732" y="885"/>
      <point x="628" y="872"/>
      <point x="586" y="860" type="curve"/>
      <point x="652" y="1368" type="line"/>
      <point x="1060" y="1344" type="line"/>
      <point x="1090" y="1070" type="line"/>
      <point x="1272" y="1070" type="line"/>
      <point x="1306" y="1486" type="line"/>
      <point x="187" y="1486" type="line"/>
      <point x="173" y="1378" type="line"/>
      <point x="315" y="1354" type="line"/>
      <point x="149" y="131" type="line"/>
      <point x="13" y="103" type="line"/>
      <point x="3" y="0" type="line"/>
      <point x="253" y="0" type="line" smooth="yes"/>
      <point x="333" y="0"/>
      <point x="549" y="-18"/>
    </contour>
    <contour>
      <point x="595" y="106" type="curve" smooth="yes"/>
      <point x="547" y="106"/>
      <point x="511" y="106"/>
      <point x="485" y="111" type="curve"/>
      <point x="568" y="725" type="line"/>
      <point x="592" y="733"/>
      <point x="651" y="741"/>
      <point x="695" y="741" type="curve" smooth="yes"/>
      <point x="875" y="741"/>
      <point x="929" y="652"/>
      <point x="929" y="510" type="curve" smooth="yes"/>
      <point x="929" y="257"/>
      <point x="817" y="106"/>
    </contour>
  </outline>
</glyph>
<glyph name="De-cy" format="2">
  <advance width="1476"/>
  <unicode hex="0414"/>
  <outline>
    <contour>
      <point x="-127" y="-406" type="curve"/>
      <point x="26" y="-406" type="line"/>
      <point x="61" y="-323"/>
      <point x="177" y="-40"/>
      <point x="199" y="0" type="curve"/>
      <point x="1122" y="0" type="line"/>
      <point x="1124" y="-87"/>
      <point x="1103" y="-318"/>
      <point x="1097" y="-406" type="curve"/>
      <point x="1268" y="-406" type="line"/>
      <point x="1300" y="-303"/>
      <point x="1365" y="-102"/>
      <point x="1402" y="132" type="curve"/>
      <point x="1188" y="132" type="line"/>
      <point x="1357" y="1355" type="line"/>
      <point x="1503" y="1379" type="line"/>
      <point x="1514" y="1486" type="line"/>
      <point x="316" y="1486" type="line"/>
      <point x="302" y="1379" type="line"/>
      <point x="492" y="1353" type="line"/>
      <point x="464" y="1153" type="line" smooth="yes"/>
      <point x="374" y="512"/>
      <point x="157" y="200"/>
      <point x="93" y="132" type="curve"/>
      <point x="-28" y="132" type="line"/>
      <point x="-39" y="75"/>
      <point x="-91" y="-202"/>
    </contour>
    <contour>
      <point x="301" y="132" type="line"/>
      <point x="371" y="218"/>
      <point x="554" y="603"/>
      <point x="630" y="1142" type="curve" smooth="yes"/>
      <point x="661" y="1361" type="line"/>
      <point x="1017" y="1361" type="line"/>
      <point x="855" y="132" type="line"/>
    </contour>
  </outline>
</glyph>
<glyph name="Zhe-cy" format="2">
  <advance width="2152"/>
  <unicode hex="0416"/>
  <anchor x="2066" y="0" name="bottomright"/>
  <anchor x="1181" y="1486" name="top"/>
  <outline>
    <contour>
      <point x="-46" y="0" type="line"/>
      <point x="326" y="0" type="line" smooth="yes"/>
      <point x="432" y="0"/>
      <point x="629" y="678"/>
      <point x="816" y="678" type="curve" smooth="yes"/>
      <point x="924" y="678" type="line"/>
      <point x="943" y="819" type="line"/>
      <point x="785" y="819" type="line"/>
      <point x="501" y="1352" type="line"/>
      <point x="656" y="1378" type="line"/>
      <point x="668" y="1486" type="line"/>
      <point x="170" y="1486" type="line"/>
      <point x="154" y="1378" type="line"/>
      <point x="301" y="1354" type="line"/>
      <point x="717" y="702" type="line"/>
      <point x="720" y="805" type="line"/>
      <point x="520" y="884"/>
      <point x="340" y="581"/>
      <point x="196" y="355" type="curve" smooth="yes"/>
      <point x="125" y="244"/>
      <point x="65" y="151"/>
      <point x="21" y="132" type="curve"/>
      <point x="-30" y="104" type="line"/>
    </contour>
    <contour>
      <point x="656" y="0" type="line"/>
      <point x="1326" y="0" type="line"/>
      <point x="1342" y="104" type="line"/>
      <point x="1170" y="132" type="line"/>
      <point x="1337" y="1354" type="line"/>
      <point x="1497" y="1378" type="line"/>
      <point x="1512" y="1486" type="line"/>
      <point x="847" y="1486" type="line"/>
      <point x="833" y="1378" type="line"/>
      <point x="999" y="1355" type="line"/>
      <point x="833" y="132" type="line"/>
      <point x="668" y="104" type="line"/>
    </contour>
    <contour>
      <point x="1671" y="0" type="curve" smooth="yes"/>
      <point x="2066" y="0" type="line"/>
      <point x="2077" y="104" type="line"/>
      <point x="1983" y="132" type="line"/>
      <point x="1937" y="148"/>
      <point x="1880" y="264"/>
      <point x="1825" y="399" type="curve" smooth="yes"/>
      <point x="1745" y="597"/>
      <point x="1637" y="830"/>
      <point x="1508" y="808" type="curve"/>
      <point x="1481" y="695" type="line"/>
      <point x="2048" y="1352" type="line"/>
      <point x="2175" y="1378" type="line"/>
      <point x="2189" y="1486" type="line"/>
      <point x="1701" y="1486" type="line"/>
      <point x="1687" y="1378" type="line"/>
      <point x="1815" y="1354" type="line"/>
      <point x="1414" y="819" type="line"/>
      <point x="1247" y="819" type="line"/>
      <point x="1230" y="695" type="line"/>
      <point x="1312" y="695" type="line" smooth="yes"/>
      <point x="1459" y="695"/>
      <point x="1546" y="0"/>
    </contour>
  </outline>
</glyph>
<glyph name="Ii-cy" format="2">
  <advance width="1627"/>
  <unicode hex="0418"/>
  <anchor x="1499" y="0" name="bottomright"/>
  <anchor x="949" y="1486" name="top"/>
  <outline>
    <contour>
      <point x="5" y="0" type="line"/>
      <point x="643" y="0" type="line"/>
      <point x="651" y="102" type="line"/>
      <point x="485" y="130" type="line"/>
      <point x="503" y="276" type="line"/>
      <point x="411" y="131" type="line"/>
      <point x="981" y="824" type="line"/>
      <point x="1218" y="1149" type="line"/>
      <point x="1159" y="1174" type="line"/>
      <point x="1018" y="130" type="line"/>
      <point x="831" y="102" type="line"/>
      <point x="816" y="0" type="line"/>
      <point x="1492" y="0" type="line"/>
      <point x="1503" y="102" type="line"/>
      <point x="1354" y="130" type="line"/>
      <point x="1519" y="1356" type="line"/>
      <point x="1667" y="1378" type="line"/>
      <point x="1679" y="1486" type="line"/>
      <point x="1044" y="1486" type="line"/>
      <point x="1030" y="1378" type="line"/>
      <point x="1183" y="1356" type="line"/>
      <point x="1148" y="1102" type="line"/>
      <point x="1250" y="1344" type="line"/>
      <point x="706" y="664" type="line"/>
      <point x="440" y="326" type="line"/>
      <point x="505" y="298" type="line"/>
      <point x="648" y="1356" type="line"/>
      <point x="823" y="1378" type="line"/>
      <point x="837" y="1486" type="line"/>
      <point x="188" y="1486" type="line"/>
      <point x="172" y="1378" type="line"/>
      <point x="312" y="1356" type="line"/>
      <point x="146" y="130" type="line"/>
      <point x="13" y="102" type="line"/>
    </contour>
  </outline>
</glyph>
<glyph name="Ka-cy" format="2">
  <advance width="1433"/>
  <unicode hex="041A"/>
  <anchor x="1413" y="0" name="bottomright"/>
  <anchor x="391" y="1205" name="tbar"/>
  <anchor x="892" y="1486" name="top"/>
  <outline>
    <contour>
      <point x="1012" y="0" type="curve" smooth="yes"/>
      <point x="1407" y="0" type="line"/>
      <point x="1418" y="104" type="line"/>
      <point x="1324" y="132" type="line"/>
      <point x="1248" y="159"/>
      <point x="1134" y="487"/>
      <point x="1004" y="677" type="curve" smooth="yes"/>
      <point x="945" y="763"/>
      <point x="883" y="820"/>
      <point x="820" y="810" type="curve"/>
      <point x="792" y="695" type="line"/>
      <point x="1364" y="1352" type="line"/>
      <point x="1503" y="1378" type="line"/>
      <point x="1517" y="1486" type="line"/>
      <point x="1029" y="1486" type="line"/>
      <point x="1015" y="1378" type="line"/>
      <point x="1129" y="1354" type="line"/>
      <point x="722" y="819" type="line"/>
      <point x="506" y="819" type="line"/>
      <point x="489" y="695" type="line"/>
      <point x="619" y="695" type="line" smooth="yes"/>
      <point x="766" y="695"/>
      <point x="888" y="0"/>
    </contour>
    <contour>
      <point x="1" y="0" type="line"/>
      <point x="643" y="0" type="line"/>
      <point x="657" y="104" type="line"/>
      <point x="487" y="132" type="line"/>
      <point x="652" y="1354" type="line"/>
      <point x="825" y="1378" type="line"/>
      <point x="840" y="1486" type="line"/>
      <point x="187" y="1486" type="line"/>
      <point x="175" y="1378" type="line"/>
      <point x="313" y="1354" type="line"/>
      <point x="149" y="132" type="line"/>
      <point x="15" y="104" type="line"/>
    </contour>
  </outline>
</glyph>
<glyph name="El-cy" format="2">
  <advance width="1472"/>
  <unicode hex="041B"/>
  <anchor x="1342" y="0" name="bottomright"/>
  <outline>
    <contour>
      <point x="669" y="1361" type="line"/>
      <point x="985" y="1361" type="line"/>
      <point x="823" y="131" type="line"/>
      <point x="669" y="103" type="line"/>
      <point x="656" y="0" type="line"/>
      <point x="1335" y="0" type="line"/>
      <point x="1348" y="84" type="line"/>
      <point x="1162" y="131" type="line"/>
      <point x="1324" y="1355" type="line"/>
      <point x="1501" y="1379" type="line"/>
      <point x="1513" y="1486" type="line"/>
      <point x="334" y="1486" type="line"/>
      <point x="321" y="1379" type="line"/>
      <point x="518" y="1355" type="line"/>
      <point x="499" y="1240" type="line" smooth="yes"/>
      <point x="412" y="715"/>
      <point x="355" y="526"/>
      <point x="274" y="392" type="curve" smooth="yes"/>
      <point x="228" y="316"/>
      <point x="190" y="298"/>
      <point x="127" y="298" type="curve" smooth="yes"/>
      <point x="94" y="298"/>
      <point x="52" y="305"/>
      <point x="-5" y="312" type="curve"/>
      <point x="-53" y="6" type="line"/>
      <point x="-16" y="-6"/>
      <point x="26" y="-13"/>
      <point x="69" y="-13" type="curve" smooth="yes"/>
      <point x="246" y="-13"/>
      <point x="354" y="125"/>
      <point x="431" y="306" type="curve" smooth="yes"/>
      <point x="511" y="494"/>
      <point x="571" y="764"/>
      <point x="648" y="1232" type="curve" smooth="yes"/>
    </contour>
  </outline>
</glyph>
<glyph name="Pe-cy" format="2">
  <advance width="1551"/>
  <unicode hex="041F"/>
  <anchor x="1420" y="0" name="bottomright"/>
  <outline>
    <contour>
      <point x="2" y="0" type="line"/>
      <point x="648" y="0" type="line"/>
      <point x="656" y="102" type="line"/>
      <point x="486" y="130" type="line"/>
      <point x="653" y="1354" type="line"/>
      <point x="1101" y="1354" type="line"/>
      <point x="938" y="130" type="line"/>
      <point x="790" y="102" type="line"/>
      <point x="775" y="0" type="line"/>
      <point x="1416" y="0" type="line"/>
      <point x="1428" y="102" type="line"/>
      <point x="1275" y="130" type="line"/>
      <point x="1438" y="1356" type="line"/>
      <point x="1589" y="1378" type="line"/>
      <point x="1601" y="1486" type="line"/>
      <point x="187" y="1486" type="line"/>
      <point x="173" y="1378" type="line"/>
      <point x="316" y="1355" type="line"/>
      <point x="149" y="130" type="line"/>
      <point x="12" y="102" type="line"/>
    </contour>
  </outline>
</glyph>
<glyph name="U-cy" format="2">
  <advance width="1365"/>
  <unicode hex="0423"/>
  <anchor x="846" y="1486" name="top"/>
  <outline>
    <contour>
      <point x="372" y="-32" type="curve" smooth="yes"/>
      <point x="635" y="-32"/>
      <point x="760" y="89"/>
      <point x="926" y="436" type="curve" smooth="yes"/>
      <point x="1366" y="1357" type="line"/>
      <point x="1483" y="1379" type="line"/>
      <point x="1497" y="1486" type="line"/>
      <point x="1034" y="1486" type="line"/>
      <point x="1023" y="1379" type="line"/>
      <point x="1183" y="1353" type="line"/>
      <point x="908" y="736" type="line"/>
      <point x="775" y="418" type="line"/>
      <point x="867" y="411" type="line"/>
      <point x="777" y="784" type="line"/>
      <point x="608" y="1355" type="line"/>
      <point x="772" y="1379" type="line"/>
      <point x="782" y="1486" type="line"/>
      <point x="128" y="1486" type="line"/>
      <point x="115" y="1379" type="line"/>
      <point x="222" y="1357" type="line"/>
      <point x="635" y="228" type="line"/>
      <point x="667" y="411" type="line"/>
      <point x="612" y="248"/>
      <point x="547" y="228"/>
      <point x="448" y="228" type="curve" smooth="yes"/>
      <point x="397" y="228"/>
      <point x="295" y="235"/>
      <point x="217" y="254" type="curve"/>
      <point x="179" y="17" type="line"/>
      <point x="222" y="-3"/>
      <point x="300" y="-32"/>
    </contour>
  </outline>
</glyph>
<glyph name="Tse-cy" format="2">
  <advance width="1537"/>
  <unicode hex="0426"/>
  <anchor x="913" y="1486" name="top"/>
  <outline>
    <contour>
      <point x="1163" y="-370" type="curve"/>
      <point x="1331" y="-370" type="line"/>
      <point x="1365" y="-280"/>
      <point x="1427" y="-100"/>
      <point x="1463" y="132" type="curve"/>
      <point x="1281" y="132" type="line"/>
      <point x="1447" y="1356" type="line"/>
      <point x="1615" y="1378" type="line"/>
      <point x="1627" y="1486" type="line"/>
      <point x="975" y="1486" type="line"/>
      <point x="965" y="1378" type="line"/>
      <point x="1110" y="1356" type="line"/>
      <point x="940" y="116" type="line"/>
      <point x="486" y="116" type="line"/>
      <point x="654" y="1354" type="line"/>
      <point x="825" y="1378" type="line"/>
      <point x="837" y="1486" type="line"/>
      <point x="187" y="1486" type="line"/>
      <point x="175" y="1378" type="line"/>
      <point x="317" y="1354" type="line"/>
      <point x="149" y="130" type="line"/>
      <point x="9" y="102" type="line"/>
      <point x="-3" y="0" type="line"/>
      <point x="1175" y="0" type="line"/>
      <point x="1183" y="-88"/>
      <point x="1173" y="-262"/>
    </contour>
  </outline>
</glyph>
<glyph name="Che-cy" format="2">
  <advance width="1463"/>
  <unicode hex="0427"/>
  <anchor x="651" y="0" name="bottomleft"/>
  <anchor x="1343" y="0" name="bottomright"/>
  <anchor x="817" y="1486" name="top"/>
  <outline>
    <contour>
      <point x="661" y="0" type="line"/>
      <point x="1328" y="0" type="line"/>
      <point x="1340" y="102" type="line"/>
      <point x="1191" y="130" type="line"/>
      <point x="1357" y="1355" type="line"/>
      <point x="1502" y="1379" type="line"/>
      <point x="1514" y="1486" type="line"/>
      <point x="875" y="1486" type="line"/>
      <point x="863" y="1379" type="line"/>
      <point x="1019" y="1355" type="line"/>
      <point x="936" y="744" type="line"/>
      <point x="874" y="723"/>
      <point x="774" y="704"/>
      <point x="700" y="704" type="curve" smooth="yes"/>
      <point x="595" y="704"/>
      <point x="545" y="759"/>
      <point x="545" y="894" type="curve" smooth="yes"/>
      <point x="545" y="963"/>
      <point x="558" y="1064"/>
      <point x="571" y="1155" type="curve" smooth="yes"/>
      <point x="599" y="1354" type="line"/>
      <point x="735" y="1379" type="line"/>
      <point x="748" y="1486" type="line"/>
      <point x="133" y="1486" type="line"/>
      <point x="119" y="1379" type="line"/>
      <point x="259" y="1355" type="line"/>
      <point x="213" y="1012" type="line" smooth="yes"/>
      <point x="208" y="975"/>
      <point x="201" y="920"/>
      <point x="201" y="872" type="curve" smooth="yes"/>
      <point x="201" y="724"/>
      <point x="268" y="567"/>
      <point x="585" y="567" type="curve" smooth="yes"/>
      <point x="712" y="567"/>
      <point x="819" y="592"/>
      <point x="920" y="626" type="curve"/>
      <point x="853" y="130" type="line"/>
      <point x="676" y="103" type="line"/>
    </contour>
  </outline>
</glyph>
<glyph name="Sha-cy" format="2">
  <advance width="2297"/>
  <unicode hex="0428"/>
  <anchor x="2166" y="0" name="bottomright"/>
  <outline>
    <contour>
      <point x="1" y="0" type="line"/>
      <point x="2160" y="0" type="line"/>
      <point x="2172" y="102" type="line"/>
      <point x="2017" y="131" type="line"/>
      <point x="2183" y="1356" type="line"/>
      <point x="2331" y="1378" type="line"/>
      <point x="2343" y="1486" type="line"/>
      <point x="1703" y="1486" type="line"/>
      <point x="1691" y="1378" type="line"/>
      <point x="1847" y="1356" type="line"/>
      <point x="1681" y="132" type="line"/>
      <point x="1255" y="132" type="line"/>
      <point x="1416" y="1354" type="line"/>
      <point x="1590" y="1378" type="line"/>
      <point x="1600" y="1486" type="line"/>
      <point x="936" y="1486" type="line"/>
      <point x="924" y="1378" type="line"/>
      <point x="1080" y="1354" type="line"/>
      <point x="919" y="132" type="line"/>
      <point x="487" y="132" type="line"/>
      <point x="653" y="1354" type="line"/>
      <point x="822" y="1378" type="line"/>
      <point x="834" y="1486" type="line"/>
      <point x="189" y="1486" type="line"/>
      <point x="175" y="1378" type="line"/>
      <point x="317" y="1356" type="line"/>
      <point x="151" y="130" type="line"/>
      <point x="15" y="102" type="line"/>
    </contour>
  </outline>
</glyph>
<glyph name="Ereversed-cy" format="2">
  <advance width="1296"/>
  <unicode hex="042D"/>
  <anchor x="743" y="1486" name="top"/>
  <outline>
    <contour>
      <point x="459" y="-16" type="curve" smooth="yes"/>
      <point x="937" y="-16"/>
      <point x="1279" y="326"/>
      <point x="1279" y="859" type="curve" smooth="yes"/>
      <point x="1279" y="1208"/>
      <point x="1136" y="1504"/>
      <point x="647" y="1504" type="curve" smooth="yes"/>
      <point x="431" y="1504"/>
      <point x="257" y="1456"/>
      <point x="193" y="1428" type="curve"/>
      <point x="141" y="1059" type="line"/>
      <point x="374" y="1059" type="line"/>
      <point x="404" y="1136"/>
      <point x="433" y="1213"/>
      <point x="463" y="1290" type="curve" smooth="yes"/>
      <point x="478" y="1329"/>
      <point x="519" y="1368"/>
      <point x="607" y="1368" type="curve" smooth="yes"/>
      <point x="831" y="1368"/>
      <point x="929" y="1176"/>
      <point x="931" y="943" type="curve" smooth="yes"/>
      <point x="932" y="903"/>
      <point x="929" y="859"/>
      <point x="924" y="818" type="curve"/>
      <point x="723" y="832"/>
      <point x="492" y="854"/>
      <point x="388" y="860" type="curve"/>
      <point x="356" y="638" type="line"/>
      <point x="903" y="672" type="line"/>
      <point x="864" y="389"/>
      <point x="722" y="117"/>
      <point x="459" y="117" type="curve" smooth="yes"/>
      <point x="408" y="117"/>
      <point x="336" y="133"/>
      <point x="292" y="176" type="curve"/>
      <point x="259" y="439" type="line"/>
      <point x="72" y="439" type="line"/>
      <point x="17" y="86" type="line"/>
      <point x="122" y="41"/>
      <point x="302" y="-16"/>
    </contour>
  </outline>
</glyph>
<glyph name="Iu-cy" format="2">
  <advance width="2135"/>
  <unicode hex="042E"/>
  <anchor x="966" y="1660" name="top"/>
  <outline>
    <contour>
      <point x="1364" y="-20" type="curve" smooth="yes"/>
      <point x="1904" y="-20"/>
      <point x="2119" y="431"/>
      <point x="2119" y="878" type="curve" smooth="yes"/>
      <point x="2119" y="1210"/>
      <point x="1971" y="1506"/>
      <point x="1572" y="1506" type="curve" smooth="yes"/>
      <point x="1131" y="1506"/>
      <point x="894" y="1192"/>
      <point x="834" y="814" type="curve"/>
      <point x="578" y="814" type="line"/>
      <point x="653" y="1356" type="line"/>
      <point x="826" y="1378" type="line"/>
      <point x="838" y="1486" type="line"/>
      <point x="187" y="1486" type="line"/>
      <point x="175" y="1378" type="line"/>
      <point x="315" y="1356" type="line"/>
      <point x="146" y="130" type="line"/>
      <point x="13" y="102" type="line"/>
      <point x="2" y="0" type="line"/>
      <point x="645" y="0" type="line"/>
      <point x="653" y="103" type="line"/>
      <point x="486" y="130" type="line"/>
      <point x="559" y="680" type="line"/>
      <point x="820" y="680" type="line"/>
      <point x="819" y="667"/>
      <point x="818" y="651"/>
      <point x="818" y="616" type="curve" smooth="yes"/>
      <point x="818" y="255"/>
      <point x="973" y="-20"/>
    </contour>
    <contour>
      <point x="1392" y="100" type="curve" smooth="yes"/>
      <point x="1214" y="100"/>
      <point x="1183" y="369"/>
      <point x="1183" y="619" type="curve" smooth="yes"/>
      <point x="1183" y="1016"/>
      <point x="1312" y="1384"/>
      <point x="1544" y="1384" type="curve" smooth="yes"/>
      <point x="1696" y="1384"/>
      <point x="1753" y="1193"/>
      <point x="1753" y="874" type="curve" smooth="yes"/>
      <point x="1753" y="438"/>
      <point x="1637" y="100"/>
    </contour>
  </outline>
</glyph>
<glyph name="Ia-cy" format="2">
  <advance width="1488"/>
  <unicode hex="042F"/>
  <anchor x="1001" y="1490" name="top"/>
  <outline>
    <contour>
      <point x="-57" y="0" type="line"/>
      <point x="347" y="0" type="line" smooth="yes"/>
      <point x="408" y="0"/>
      <point x="470" y="119"/>
      <point x="533" y="255" type="curve" smooth="yes"/>
      <point x="613" y="430"/>
      <point x="694" y="631"/>
      <point x="771" y="646" type="curve"/>
      <point x="827" y="646"/>
      <point x="902" y="646"/>
      <point x="944" y="650" type="curve"/>
      <point x="873" y="131" type="line"/>
      <point x="728" y="103" type="line"/>
      <point x="713" y="0" type="line"/>
      <point x="1353" y="0" type="line"/>
      <point x="1364" y="103" type="line"/>
      <point x="1213" y="131" type="line"/>
      <point x="1378" y="1355" type="line"/>
      <point x="1531" y="1379" type="line"/>
      <point x="1543" y="1486" type="line"/>
      <point x="1210" y="1486" type="line" smooth="yes"/>
      <point x="1087" y="1486"/>
      <point x="1001" y="1490"/>
      <point x="866" y="1490" type="curve" smooth="yes"/>
      <point x="448" y="1490"/>
      <point x="260" y="1256"/>
      <point x="260" y="1012" type="curve" smooth="yes"/>
      <point x="260" y="840"/>
      <point x="380" y="677"/>
      <point x="666" y="663" type="curve"/>
      <point x="653" y="672" type="line"/>
      <point x="503" y="718"/>
      <point x="359" y="526"/>
      <point x="242" y="356" type="curve" smooth="yes"/>
      <point x="90" y="134"/>
      <point x="115" y="136"/>
      <point x="-43" y="102" type="curve"/>
    </contour>
    <contour>
      <point x="960" y="773" type="line"/>
      <point x="922" y="767"/>
      <point x="881" y="767"/>
      <point x="835" y="767" type="curve" smooth="yes"/>
      <point x="699" y="767"/>
      <point x="614" y="838"/>
      <point x="614" y="1024" type="curve" smooth="yes"/>
      <point x="614" y="1179"/>
      <point x="701" y="1367"/>
      <point x="885" y="1367" type="curve" smooth="yes"/>
      <point x="992" y="1367"/>
      <point x="1021" y="1365"/>
      <point x="1040" y="1365" type="curve"/>
    </contour>
  </outline>
</glyph>
<glyph name="be-cy" format="2">
  <advance width="1225"/>
  <unicode hex="0431"/>
  <outline>
    <contour>
      <point x="1180" y="1724" type="line"/>
      <point x="1059" y="1724" type="line"/>
      <point x="1045" y="1690" type="line"/>
      <point x="970" y="1543"/>
      <point x="739" y="1573"/>
      <point x="524" y="1447" type="curve" smooth="yes"/>
      <point x="299" y="1315"/>
      <point x="88" y="1001"/>
      <point x="88" y="520" type="curve" smooth="yes"/>
      <point x="88" y="137"/>
      <point x="278" y="-27"/>
      <point x="507" y="-27" type="curve" smooth="yes"/>
      <point x="950" y="-27"/>
      <point x="1149" y="357"/>
      <point x="1149" y="653" type="curve" smooth="yes"/>
      <point x="1149" y="927"/>
      <point x="978" y="1080"/>
      <point x="752" y="1080" type="curve" smooth="yes"/>
      <point x="517" y="1080"/>
      <point x="351" y="914"/>
      <point x="283" y="722" type="curve"/>
      <point x="324" y="1024"/>
      <point x="439" y="1188"/>
      <point x="586" y="1261" type="curve" smooth="yes"/>
      <point x="678" y="1307"/>
      <point x="777" y="1313"/>
      <point x="843" y="1320" type="curve" smooth="yes"/>
      <point x="878" y="1324"/>
      <point x="911" y="1328"/>
      <point x="939" y="1334" type="curve" smooth="yes"/>
      <point x="1079" y="1364"/>
      <point x="1140" y="1472"/>
      <point x="1167" y="1619" type="curve"/>
    </contour>
    <contour>
      <point x="663" y="931" type="curve" smooth="yes"/>
      <point x="749" y="931"/>
      <point x="794" y="858"/>
      <point x="798" y="651" type="curve" smooth="yes"/>
      <point x="803" y="400"/>
      <point x="747" y="97"/>
      <point x="569" y="97" type="curve" smooth="yes"/>
      <point x="467" y="97"/>
      <point x="425" y="197"/>
      <point x="422" y="397" type="curve" smooth="yes"/>
      <point x="417" y="700"/>
      <point x="509" y="931"/>
    </contour>
  </outline>
</glyph>
<glyph name="ge-cy" format="2">
  <advance width="919"/>
  <unicode hex="0433"/>
  <anchor x="372" y="0" name="bottom"/>
  <anchor x="459" y="558" name="center"/>
  <anchor x="319" y="0" name="hook"/>
  <anchor x="547.489" y="1110" name="top"/>
  <outline>
    <contour>
      <point x="333" y="-20" type="curve" smooth="yes"/>
      <point x="509" y="-20"/>
      <point x="720" y="54"/>
      <point x="818" y="203" type="curve"/>
      <point x="814" y="-22" type="line"/>
      <point x="757" y="376" type="line"/>
      <point x="796" y="295" type="line"/>
      <point x="687" y="224"/>
      <point x="607" y="152"/>
      <point x="480" y="152" type="curve" smooth="yes"/>
      <point x="366" y="152"/>
      <point x="339" y="215"/>
      <point x="344" y="279" type="curve" smooth="yes"/>
      <point x="351" y="369"/>
      <point x="419" y="422"/>
      <point x="536" y="499" type="curve" smooth="yes"/>
      <point x="692" y="601"/>
      <point x="897" y="722"/>
      <point x="912" y="909" type="curve" smooth="yes"/>
      <point x="922" y="1045"/>
      <point x="820" y="1136"/>
      <point x="600" y="1136" type="curve" smooth="yes"/>
      <point x="362" y="1136"/>
      <point x="214" y="1028"/>
      <point x="115" y="965" type="curve"/>
      <point x="104" y="1110" type="line"/>
      <point x="223" y="754" type="line"/>
      <point x="121" y="836" type="line"/>
      <point x="172" y="855"/>
      <point x="312" y="962"/>
      <point x="459" y="962" type="curve" smooth="yes"/>
      <point x="529" y="962"/>
      <point x="573" y="936"/>
      <point x="567" y="862" type="curve" smooth="yes"/>
      <point x="560" y="771"/>
      <point x="500" y="693"/>
      <point x="384" y="622" type="curve" smooth="yes"/>
      <point x="226" y="525"/>
      <point x="25" y="405"/>
      <point x="11" y="231" type="curve" smooth="yes"/>
      <point x="0" y="81"/>
      <point x="121" y="-20"/>
    </contour>
  </outline>
</glyph>
<glyph name="zhe-cy" format="2">
  <advance width="2004"/>
  <unicode hex="0436"/>
  <anchor x="1766" y="0" name="bottomright"/>
  <anchor x="1072" y="1110" name="top"/>
  <outline>
    <contour>
      <point x="1370" y="632" type="curve"/>
      <point x="1176" y="632" type="line"/>
      <point x="1245" y="1110" type="line"/>
      <point x="932" y="1110" type="line"/>
      <point x="863" y="632" type="line"/>
      <point x="678" y="632" type="line"/>
      <point x="680" y="648"/>
      <point x="680" y="664"/>
      <point x="680" y="680" type="curve" smooth="yes"/>
      <point x="680" y="966"/>
      <point x="565" y="1120"/>
      <point x="378" y="1120" type="curve" smooth="yes"/>
      <point x="191" y="1120"/>
      <point x="62" y="978"/>
      <point x="26" y="922" type="curve"/>
      <point x="83" y="837" type="line"/>
      <point x="128" y="886"/>
      <point x="184" y="909"/>
      <point x="243" y="909" type="curve" smooth="yes"/>
      <point x="317" y="909"/>
      <point x="385" y="801"/>
      <point x="385" y="598" type="curve" smooth="yes"/>
      <point x="385" y="320"/>
      <point x="275" y="144"/>
      <point x="182" y="144" type="curve"/>
      <point x="153" y="175"/>
      <point x="119" y="208"/>
      <point x="90" y="240" type="curve"/>
      <point x="-1" y="14" type="line"/>
      <point x="27" y="-8"/>
      <point x="65" y="-20"/>
      <point x="127" y="-20" type="curve" smooth="yes"/>
      <point x="365" y="-20"/>
      <point x="589" y="240"/>
      <point x="659" y="515" type="curve"/>
      <point x="847" y="515" type="line"/>
      <point x="778" y="0" type="line"/>
      <point x="1090" y="0" type="line"/>
      <point x="1160" y="515" type="line"/>
      <point x="1343" y="515" type="line"/>
      <point x="1337" y="482"/>
      <point x="1335" y="450"/>
      <point x="1335" y="420" type="curve" smooth="yes"/>
      <point x="1335" y="134"/>
      <point x="1452" y="-20"/>
      <point x="1638" y="-20" type="curve" smooth="yes"/>
      <point x="1826" y="-20"/>
      <point x="1953" y="122"/>
      <point x="1991" y="176" type="curve"/>
      <point x="1934" y="263" type="line"/>
      <point x="1887" y="214"/>
      <point x="1833" y="191"/>
      <point x="1775" y="191" type="curve" smooth="yes"/>
      <point x="1698" y="191"/>
      <point x="1630" y="299"/>
      <point x="1630" y="502" type="curve" smooth="yes"/>
      <point x="1630" y="780"/>
      <point x="1742" y="956"/>
      <point x="1833" y="956" type="curve"/>
      <point x="1864" y="925"/>
      <point x="1896" y="892"/>
      <point x="1928" y="860" type="curve"/>
      <point x="2016" y="1084" type="line"/>
      <point x="1990" y="1108"/>
      <point x="1950" y="1120"/>
      <point x="1890" y="1120" type="curve" smooth="yes"/>
      <point x="1664" y="1120"/>
      <point x="1452" y="888"/>
    </contour>
  </outline>
</glyph>
<glyph name="ka-cy" format="2">
  <advance width="1180"/>
  <unicode hex="043A"/>
  <anchor x="1018.094" y="0" name="bottomright"/>
  <anchor x="708" y="1110" name="top"/>
  <outline>
    <contour>
      <point x="85" y="0" type="line"/>
      <point x="395" y="0" type="line"/>
      <point x="547" y="1110" type="line"/>
      <point x="493" y="1138" type="line"/>
      <point x="124" y="1084" type="line"/>
      <point x="106" y="999" type="line"/>
      <point x="211" y="941" type="line"/>
    </contour>
    <contour>
      <point x="866" y="-18" type="curve" smooth="yes"/>
      <point x="1034" y="-18"/>
      <point x="1163" y="104"/>
      <point x="1200" y="152" type="curve"/>
      <point x="1168" y="220" type="line"/>
      <point x="1130" y="191"/>
      <point x="1079" y="176"/>
      <point x="1055" y="176" type="curve" smooth="yes"/>
      <point x="1021" y="176"/>
      <point x="981" y="208"/>
      <point x="952" y="266" type="curve" smooth="yes"/>
      <point x="733" y="708" type="line"/>
      <point x="691" y="605" type="line"/>
      <point x="815" y="652"/>
      <point x="979" y="738"/>
      <point x="1070" y="854" type="curve" smooth="yes"/>
      <point x="1098" y="890"/>
      <point x="1126" y="940"/>
      <point x="1125" y="1011" type="curve" smooth="yes"/>
      <point x="1123" y="1078"/>
      <point x="1087" y="1136"/>
      <point x="992" y="1136" type="curve" smooth="yes"/>
      <point x="932" y="1136"/>
      <point x="849" y="1097"/>
      <point x="841" y="985" type="curve" smooth="yes"/>
      <point x="837" y="929"/>
      <point x="827" y="877"/>
      <point x="752" y="790" type="curve" smooth="yes"/>
      <point x="680" y="706"/>
      <point x="597" y="625"/>
      <point x="488" y="566" type="curve"/>
      <point x="678" y="98" type="line" smooth="yes"/>
      <point x="691" y="66"/>
      <point x="726" y="-18"/>
    </contour>
  </outline>
</glyph>
<glyph name="em-cy" format="2">
  <advance width="1748"/>
  <unicode hex="043C"/>
  <anchor x="1441" y="0" name="bottomright"/>
  <anchor x="1003" y="1110" name="top"/>
  <outline>
    <contour>
      <point x="1326" y="-20" type="curve" smooth="yes"/>
      <point x="1513" y="-20"/>
      <point x="1667" y="83"/>
      <point x="1686" y="108" type="curve"/>
      <point x="1655" y="196" type="line"/>
      <point x="1631" y="172"/>
      <point x="1595" y="144"/>
      <point x="1560" y="144" type="curve" smooth="yes"/>
      <point x="1537" y="144"/>
      <point x="1520" y="168"/>
      <point x="1531" y="245" type="curve" smooth="yes"/>
      <point x="1651" y="1110" type="line"/>
      <point x="1225" y="1110" type="line"/>
      <point x="960" y="495" type="line"/>
      <point x="874" y="284" type="line"/>
      <point x="859" y="495" type="line"/>
      <point x="821" y="1110" type="line"/>
      <point x="199" y="1110" type="line"/>
      <point x="178" y="995" type="line"/>
      <point x="416" y="941" type="line"/>
      <point x="380" y="773"/>
      <point x="291" y="425"/>
      <point x="209" y="297" type="curve" smooth="yes"/>
      <point x="195" y="275"/>
      <point x="176" y="249"/>
      <point x="163" y="249" type="curve" smooth="yes"/>
      <point x="139" y="249"/>
      <point x="28" y="271"/>
      <point x="11" y="284" type="curve"/>
      <point x="-55" y="8" type="line"/>
      <point x="-51" y="0"/>
      <point x="23" y="-16"/>
      <point x="47" y="-16" type="curve" smooth="yes"/>
      <point x="167" y="-16"/>
      <point x="239" y="39"/>
      <point x="293" y="142" type="curve" smooth="yes"/>
      <point x="381" y="310"/>
      <point x="455" y="647"/>
      <point x="545" y="995" type="curve"/>
      <point x="559" y="628" type="line"/>
      <point x="621" y="-14" type="line"/>
      <point x="835" y="-14" type="line"/>
      <point x="1144" y="676" type="line"/>
      <point x="1299" y="995" type="line"/>
      <point x="1265" y="674" type="line"/>
      <point x="1193" y="108" type="line" smooth="yes"/>
      <point x="1181" y="15"/>
      <point x="1248" y="-20"/>
    </contour>
  </outline>
</glyph>
<glyph name="ef-cy" format="2">
  <advance width="1717"/>
  <unicode hex="0444"/>
  <outline>
    <contour>
      <point x="569" y="-508" type="line"/>
      <point x="867" y="-508" type="line"/>
      <point x="936" y="-11" type="line"/>
      <point x="959" y="-16"/>
      <point x="986" y="-20"/>
      <point x="1014" y="-20" type="curve" smooth="yes"/>
      <point x="1452" y="-20"/>
      <point x="1654" y="346"/>
      <point x="1654" y="724" type="curve" smooth="yes"/>
      <point x="1654" y="948"/>
      <point x="1562" y="1136"/>
      <point x="1319" y="1136" type="curve" smooth="yes"/>
      <point x="1219" y="1136"/>
      <point x="1142" y="1107"/>
      <point x="1088" y="1072" type="curve"/>
      <point x="1164" y="1606" type="line"/>
      <point x="1114" y="1634" type="line"/>
      <point x="737" y="1592" type="line"/>
      <point x="717" y="1513" type="line"/>
      <point x="847" y="1471" type="line"/>
      <point x="797" y="1123" type="line"/>
      <point x="770" y="1130"/>
      <point x="738" y="1136"/>
      <point x="701" y="1136" type="curve" smooth="yes"/>
      <point x="265" y="1136"/>
      <point x="61" y="770"/>
      <point x="61" y="392" type="curve" smooth="yes"/>
      <point x="61" y="168"/>
      <point x="153" y="-20"/>
      <point x="396" y="-20" type="curve" smooth="yes"/>
      <point x="508" y="-20"/>
      <point x="591" y="17"/>
      <point x="647" y="57" type="curve"/>
    </contour>
    <contour>
      <point x="669" y="201" type="line"/>
      <point x="636" y="168"/>
      <point x="589" y="139"/>
      <point x="531" y="139" type="curve" smooth="yes"/>
      <point x="442" y="139"/>
      <point x="389" y="243"/>
      <point x="389" y="404" type="curve" smooth="yes"/>
      <point x="389" y="664"/>
      <point x="455" y="1009"/>
      <point x="677" y="1009" type="curve" smooth="yes"/>
      <point x="714" y="1009"/>
      <point x="749" y="1005"/>
      <point x="779" y="991" type="curve"/>
    </contour>
    <contour>
      <point x="1068" y="933" type="line"/>
      <point x="1099" y="958"/>
      <point x="1138" y="977"/>
      <point x="1184" y="977" type="curve" smooth="yes"/>
      <point x="1275" y="977"/>
      <point x="1328" y="875"/>
      <point x="1328" y="712" type="curve" smooth="yes"/>
      <point x="1328" y="452"/>
      <point x="1262" y="107"/>
      <point x="1038" y="107" type="curve" smooth="yes"/>
      <point x="1007" y="107"/>
      <point x="980" y="109"/>
      <point x="954" y="118" type="curve"/>
    </contour>
  </outline>
</glyph>
<glyph name="ereversed-cy" format="2">
  <advance width="977"/>
  <unicode hex="044D"/>
  <anchor x="535" y="1110" name="top"/>
  <outline>
    <contour>
      <point x="519" y="1136" type="curve" smooth="yes"/>
      <point x="285" y="1136"/>
      <point x="133" y="1012"/>
      <point x="79" y="927" type="curve"/>
      <point x="141" y="828" type="line"/>
      <point x="197" y="896"/>
      <point x="268" y="952"/>
      <point x="397" y="952" type="curve" smooth="yes"/>
      <point x="525" y="952"/>
      <point x="582" y="873"/>
      <point x="588" y="667" type="curve" smooth="yes"/>
      <point x="598" y="351"/>
      <point x="464" y="133"/>
      <point x="336" y="133" type="curve" smooth="yes"/>
      <point x="278" y="133"/>
      <point x="174" y="193"/>
      <point x="117" y="296" type="curve"/>
      <point x="66" y="296" type="line"/>
      <point x="2" y="18" type="line"/>
      <point x="67" y="-8"/>
      <point x="175" y="-20"/>
      <point x="256" y="-20" type="curve" smooth="yes"/>
      <point x="705" y="-20"/>
      <point x="912" y="346"/>
      <point x="906" y="677" type="curve" smooth="yes"/>
      <point x="900" y="986"/>
      <point x="748" y="1136"/>
    </contour>
    <contour>
      <point x="189" y="489" type="line"/>
      <point x="300" y="490"/>
      <point x="423" y="503"/>
      <point x="606" y="515" type="curve"/>
      <point x="637" y="617" type="line"/>
      <point x="493" y="630"/>
      <point x="366" y="640"/>
      <point x="226" y="654" type="curve"/>
    </contour>
  </outline>
</glyph>
<glyph name="lje-cy" format="2">
  <advance width="1723"/>
  <unicode hex="0459"/>
  <anchor x="950" y="0" name="bottomright"/>
  <anchor x="1740" y="-166" name="btm"/>
  <anchor x="806" y="1110" name="top"/>
  <outline>
    <contour>
      <point x="885" y="994" type="line"/>
      <point x="1122" y="1110" type="line"/>
      <point x="189" y="1110" type="line"/>
      <point x="169" y="995" type="line"/>
      <point x="409" y="940" type="line"/>
      <point x="371" y="772"/>
      <point x="282" y="424"/>
      <point x="203" y="296" type="curve" smooth="yes"/>
      <point x="184" y="265"/>
      <point x="168" y="249"/>
      <point x="153" y="249" type="curve" smooth="yes"/>
      <point x="131" y="249"/>
      <point x="11" y="275"/>
      <point x="3" y="283" type="curve"/>
      <point x="-63" y="8" type="line"/>
      <point x="-59" y="0"/>
      <point x="13" y="-16"/>
      <point x="37" y="-16" type="curve" smooth="yes"/>
      <point x="160" y="-16"/>
      <point x="232" y="38"/>
      <point x="285" y="140" type="curve" smooth="yes"/>
      <point x="373" y="310"/>
      <point x="433" y="608"/>
      <point x="538" y="994" type="curve"/>
    </contour>
    <contour>
      <point x="1117" y="-24" type="curve" smooth="yes"/>
      <point x="1384" y="-24"/>
      <point x="1649" y="178"/>
      <point x="1649" y="453" type="curve" smooth="yes"/>
      <point x="1649" y="717"/>
      <point x="1505" y="786"/>
      <point x="1352" y="786" type="curve" smooth="yes"/>
      <point x="1227" y="786"/>
      <point x="1120" y="720"/>
      <point x="1057" y="662" type="curve"/>
      <point x="1122" y="1110" type="line"/>
      <point x="886" y="1062" type="line"/>
      <point x="795" y="994" type="line"/>
      <point x="721" y="474" type="line" smooth="yes"/>
      <point x="670" y="117"/>
      <point x="851" y="-24"/>
    </contour>
    <contour>
      <point x="1140" y="101" type="curve" smooth="yes"/>
      <point x="1053" y="101"/>
      <point x="985" y="174"/>
      <point x="1015" y="371" type="curve" smooth="yes"/>
      <point x="1025" y="434"/>
      <point x="1035" y="498"/>
      <point x="1045" y="561" type="curve"/>
      <point x="1092" y="590"/>
      <point x="1154" y="604"/>
      <point x="1185" y="604" type="curve" smooth="yes"/>
      <point x="1296" y="604"/>
      <point x="1336" y="516"/>
      <point x="1336" y="422" type="curve" smooth="yes"/>
      <point x="1336" y="275"/>
      <point x="1263" y="101"/>
    </contour>
  </outline>
</glyph>
<glyph name="nje-cy" format="2">
  <advance width="1787"/>
  <unicode hex="045A"/>
  <anchor x="1025" y="1110" name="top"/>
  <outline>
    <contour>
      <point x="1130" y="662" type="curve"/>
      <point x="1184" y="1128" type="line"/>
      <point x="887" y="1128" type="line"/>
      <point x="819" y="634" type="line"/>
      <point x="478" y="634" type="line"/>
      <point x="544" y="1112" type="line"/>
      <point x="481" y="1136" type="line"/>
      <point x="122" y="1084" type="line"/>
      <point x="106" y="999" type="line"/>
      <point x="210" y="941" type="line"/>
      <point x="82" y="0" type="line"/>
      <point x="392" y="0" type="line"/>
      <point x="461" y="499" type="line"/>
      <point x="802" y="499" type="line"/>
      <point x="799" y="474" type="line"/>
      <point x="726" y="121"/>
      <point x="928" y="-22"/>
      <point x="1173" y="-22" type="curve" smooth="yes"/>
      <point x="1480" y="-22"/>
      <point x="1713" y="180"/>
      <point x="1713" y="455" type="curve" smooth="yes"/>
      <point x="1713" y="718"/>
      <point x="1572" y="788"/>
      <point x="1421" y="788" type="curve" smooth="yes"/>
      <point x="1296" y="788"/>
      <point x="1193" y="723"/>
    </contour>
    <contour>
      <point x="1248" y="606" type="curve" smooth="yes"/>
      <point x="1359" y="606"/>
      <point x="1399" y="518"/>
      <point x="1399" y="424" type="curve" smooth="yes"/>
      <point x="1399" y="277"/>
      <point x="1360" y="103"/>
      <point x="1197" y="103" type="curve" smooth="yes"/>
      <point x="1129" y="103"/>
      <point x="1057" y="157"/>
      <point x="1096" y="375" type="curve"/>
      <point x="1104" y="438"/>
      <point x="1110" y="500"/>
      <point x="1118" y="563" type="curve"/>
      <point x="1167" y="591"/>
      <point x="1217" y="606"/>
    </contour>
  </outline>
</glyph>
<glyph name="Yusbig-cy" format="2">
  <advance width="2102"/>
  <unicode hex="046A"/>
  <outline>
    <contour>
      <point x="-46" y="0" type="line"/>
      <point x="342" y="0" type="line" smooth="yes"/>
      <point x="448" y="0"/>
      <point x="656" y="668"/>
      <point x="834" y="668" type="curve" smooth="yes"/>
      <point x="1030" y="668" type="line"/>
      <point x="910" y="805" type="line"/>
      <point x="822" y="130" type="line"/>
      <point x="670" y="102" type="line"/>
      <point x="658" y="0" type="line"/>
      <point x="1308" y="0" type="line"/>
      <point x="1316" y="102" type="line"/>
      <point x="1152" y="130" type="line"/>
      <point x="1242" y="815" type="line"/>
      <point x="1086" y="678" type="line"/>
      <point x="1266" y="678" type="line" smooth="yes"/>
      <point x="1416" y="678"/>
      <point x="1536" y="0"/>
      <point x="1662" y="0" type="curve" smooth="yes"/>
      <point x="2016" y="0" type="line"/>
      <point x="2028" y="102" type="line"/>
      <point x="1954" y="130" type="line" smooth="yes"/>
      <point x="1911" y="147"/>
      <point x="1855" y="261"/>
      <point x="1792" y="390" type="curve" smooth="yes"/>
      <point x="1680" y="617"/>
      <point x="1599" y="804"/>
      <point x="1432" y="804" type="curve" smooth="yes"/>
      <point x="1162" y="804" type="line"/>
      <point x="1199" y="711" type="line"/>
      <point x="1900" y="1358" type="line"/>
      <point x="1908" y="1486" type="line"/>
      <point x="436" y="1486" type="line"/>
      <point x="408" y="1358" type="line"/>
      <point x="920" y="697" type="line"/>
      <point x="974" y="806" type="line"/>
      <point x="724" y="806" type="line" smooth="yes"/>
      <point x="492" y="806"/>
      <point x="384" y="619"/>
      <point x="217" y="371" type="curve" smooth="yes"/>
      <point x="137" y="253"/>
      <point x="69" y="151"/>
      <point x="22" y="130" type="curve"/>
      <point x="-30" y="102" type="line"/>
    </contour>
    <contour>
      <point x="1064" y="804" type="line"/>
      <point x="712" y="1288" type="line"/>
      <point x="1578" y="1288" type="line"/>
    </contour>
  </outline>
</glyph>
<glyph name="fita-cy" format="2">
  <advance width="1182"/>
  <unicode hex="0473"/>
  <anchor x="507" y="-27" name="bottom"/>
  <anchor x="591" y="556" name="center"/>
  <anchor x="644" y="20" name="ogonek"/>
  <anchor x="665" y="1110" name="top"/>
  <anchor x="845" y="1110" name="topright"/>
  <outline>
    <contour>
      <point x="425" y="697" type="curve"/>
      <point x="403" y="483" type="line"/>
      <point x="422" y="508"/>
      <point x="447" y="525"/>
      <point x="476" y="525" type="curve"/>
      <point x="557" y="527"/>
      <point x="559" y="383"/>
      <point x="677" y="383" type="curve" smooth="yes"/>
      <point x="706" y="383"/>
      <point x="736" y="399"/>
      <point x="763" y="424" type="curve"/>
      <point x="779" y="666" type="line"/>
      <point x="757" y="624"/>
      <point x="730" y="583"/>
      <point x="685" y="583" type="curve" smooth="yes"/>
      <point x="618" y="583"/>
      <point x="602" y="725"/>
      <point x="499" y="725" type="curve" smooth="yes"/>
      <point x="473" y="725"/>
      <point x="448" y="712"/>
    </contour>
    <contour>
      <point x="679" y="1138" type="curve" smooth="yes"/>
      <point x="297" y="1138"/>
      <point x="61" y="819"/>
      <point x="73" y="424" type="curve" smooth="yes"/>
      <point x="82" y="132"/>
      <point x="222" y="-28"/>
      <point x="497" y="-28" type="curve" smooth="yes"/>
      <point x="879" y="-28"/>
      <point x="1122" y="297"/>
      <point x="1110" y="690" type="curve" smooth="yes"/>
      <point x="1101" y="982"/>
      <point x="952" y="1138"/>
    </contour>
    <contour>
      <point x="643" y="1012" type="curve" smooth="yes"/>
      <point x="716" y="1012"/>
      <point x="758" y="925"/>
      <point x="764" y="694" type="curve" smooth="yes"/>
      <point x="771" y="432"/>
      <point x="715" y="97"/>
      <point x="543" y="97" type="curve" smooth="yes"/>
      <point x="456" y="97"/>
      <point x="427" y="189"/>
      <point x="419" y="420" type="curve" smooth="yes"/>
      <point x="410" y="675"/>
      <point x="471" y="1012"/>
    </contour>
  </outline>
</glyph>
<glyph name="Semisoftsign-cy" format="2">
  <advance width="1349"/>
  <unicode hex="048C"/>
  <anchor x="729" y="1660" name="top"/>
  <outline>
    <contour>
      <point x="156" y="1086" type="line"/>
      <point x="915" y="1086" type="line"/>
      <point x="929" y="1191" type="line"/>
      <point x="168" y="1191" type="line"/>
    </contour>
    <component base="Softsign-cy"/>
  </outline>
</glyph>
<glyph name="Gheupturn-cy" format="2">
  <advance width="1126"/>
  <unicode hex="0490"/>
  <anchor x="289" y="-166" name="btm"/>
  <anchor x="537" y="1660" name="top"/>
  <outline>
    <contour>
      <point x="7" y="0" type="line"/>
      <point x="704" y="0" type="line"/>
      <point x="712" y="103" type="line"/>
      <point x="493" y="131" type="line"/>
      <point x="655" y="1355" type="line"/>
      <point x="1195" y="1318" type="line"/>
      <point x="1274" y="1836" type="line"/>
      <point x="1089" y="1836" type="line"/>
      <point x="976" y="1486" type="line"/>
      <point x="187" y="1486" type="line"/>
      <point x="173" y="1379" type="line"/>
      <point x="317" y="1355" type="line"/>
      <point x="153" y="131" type="line"/>
      <point x="17" y="103" type="line"/>
    </contour>
  </outline>
</glyph>
<glyph name="Ghestroke-cy" format="2">
  <advance width="1197"/>
  <unicode hex="0492"/>
  <anchor x="710" y="0" name="bottomright"/>
  <anchor x="785" y="1486" name="top"/>
  <outline>
    <contour>
      <point x="52" y="686" type="line"/>
      <point x="843" y="686" type="line"/>
      <point x="859" y="824" type="line"/>
      <point x="70" y="824" type="line"/>
    </contour>
    <component base="Ge-cy"/>
  </outline>
</glyph>
<glyph name="ghestroke-cy" format="2">
  <advance width="971"/>
  <unicode hex="0493"/>
  <outline>
    <contour>
      <point x="111" y="1111" type="line"/>
      <point x="88" y="995" type="line"/>
      <point x="214" y="944" type="line"/>
      <point x="158" y="524" type="line"/>
      <point x="11" y="524" type="line"/>
      <point x="-1" y="419" type="line"/>
      <point x="144" y="419" type="line"/>
      <point x="88" y="0" type="line"/>
      <point x="399" y="0" type="line"/>
      <point x="455" y="419" type="line"/>
      <point x="718" y="419" type="line"/>
      <point x="730" y="524" type="line"/>
      <point x="469" y="524" type="line"/>
      <point x="534" y="997" type="line"/>
      <point x="755" y="966" type="line"/>
      <point x="737" y="722" type="line"/>
      <point x="896" y="722" type="line"/>
      <point x="987" y="1111" type="line"/>
    </contour>
  </outline>
</glyph>
<glyph name="Ghemiddlehook-cy" format="2">
  <advance width="1269"/>
  <unicode hex="0494"/>
  <outline>
    <contour>
      <point x="659" y="1370" type="line"/>
      <point x="897" y="1346" type="line"/>
      <point x="927" y="996" type="line"/>
      <point x="1101" y="996" type="line"/>
      <point x="1177" y="1486" type="line"/>
      <point x="187" y="1486" type="line"/>
      <point x="173" y="1378" type="line"/>
      <point x="317" y="1354" type="line"/>
      <point x="153" y="130" type="line"/>
      <point x="17" y="102" type="line"/>
      <point x="7" y="0" type="line"/>
      <point x="663" y="0" type="line"/>
      <point x="673" y="102" type="line"/>
      <point x="493" y="128" type="line"/>
      <point x="561" y="646" type="line"/>
      <point x="625" y="694"/>
      <point x="689" y="722"/>
      <point x="771" y="722" type="curve" smooth="yes"/>
      <point x="893" y="722"/>
      <point x="937" y="612"/>
      <point x="937" y="426" type="curve" smooth="yes"/>
      <point x="937" y="52"/>
      <point x="791" y="-206"/>
      <point x="599" y="-206" type="curve" smooth="yes"/>
      <point x="571" y="-206"/>
      <point x="541" y="-206"/>
      <point x="523" y="-204" type="curve"/>
      <point x="511" y="-318" type="line"/>
      <point x="529" y="-328"/>
      <point x="583" y="-334"/>
      <point x="609" y="-334" type="curve" smooth="yes"/>
      <point x="983" y="-334"/>
      <point x="1239" y="62"/>
      <point x="1239" y="458" type="curve" smooth="yes"/>
      <point x="1239" y="698"/>
      <point x="1139" y="850"/>
      <point x="833" y="850" type="curve" smooth="yes"/>
      <point x="737" y="850"/>
      <point x="645" y="810"/>
      <point x="577" y="756" type="curve"/>
    </contour>
  </outline>
</glyph>
<glyph name="kaverticalstroke-cy" format="2">
  <advance width="1388"/>
  <unicode hex="049D"/>
  <outline>
    <contour>
      <point x="84" y="0" type="line"/>
      <point x="398" y="0" type="line"/>
      <point x="547" y="1110" type="line"/>
      <point x="493" y="1138" type="line"/>
      <point x="124" y="1085" type="line"/>
      <point x="106" y="999" type="line"/>
      <point x="211" y="940" type="line"/>
    </contour>
    <contour>
      <point x="847" y="624" type="line"/>
      <point x="458" y="624" type="line"/>
      <point x="448" y="543" type="line"/>
      <point x="768" y="540" type="line"/>
    </contour>
    <contour>
      <point x="618" y="859" type="line"/>
      <point x="541" y="294" type="line"/>
      <point x="665" y="294" type="line"/>
      <point x="741" y="859" type="line"/>
    </contour>
    <contour>
      <point x="1074" y="-18" type="curve" smooth="yes"/>
      <point x="1242" y="-18"/>
      <point x="1371" y="104"/>
      <point x="1408" y="152" type="curve"/>
      <point x="1376" y="220" type="line"/>
      <point x="1338" y="191"/>
      <point x="1287" y="176"/>
      <point x="1263" y="176" type="curve" smooth="yes"/>
      <point x="1229" y="176"/>
      <point x="1192" y="210"/>
      <point x="1160" y="266" type="curve" smooth="yes"/>
      <point x="921" y="682" type="line"/>
      <point x="939" y="600" type="line"/>
      <point x="1063" y="647"/>
      <point x="1157" y="738"/>
      <point x="1248" y="854" type="curve" smooth="yes"/>
      <point x="1276" y="890"/>
      <point x="1314" y="940"/>
      <point x="1313" y="1011" type="curve" smooth="yes"/>
      <point x="1312" y="1078"/>
      <point x="1265" y="1136"/>
      <point x="1170" y="1136" type="curve" smooth="yes"/>
      <point x="1073" y="1136"/>
      <point x="997" y="1097"/>
      <point x="989" y="985" type="curve" smooth="yes"/>
      <point x="985" y="929"/>
      <point x="988" y="889"/>
      <point x="930" y="790" type="curve" smooth="yes"/>
      <point x="881" y="706"/>
      <point x="835" y="609"/>
      <point x="726" y="550" type="curve"/>
      <point x="886" y="98" type="line" smooth="yes"/>
      <point x="897" y="66"/>
      <point x="934" y="-18"/>
    </contour>
  </outline>
</glyph>
<glyph name="kabashkir-cy" format="2">
  <advance width="1426"/>
  <unicode hex="04A1"/>
  <outline>
    <contour>
      <point x="643" y="0" type="line"/>
      <point x="795" y="1112" type="line"/>
      <point x="81" y="1112" type="line"/>
      <point x="23" y="712" type="line"/>
      <point x="191" y="712" type="line"/>
      <point x="279" y="961" type="line"/>
      <point x="464" y="978" type="line"/>
      <point x="332" y="0" type="line"/>
    </contour>
    <contour>
      <point x="1112" y="-18" type="curve" smooth="yes"/>
      <point x="1280" y="-18"/>
      <point x="1409" y="104"/>
      <point x="1446" y="152" type="curve"/>
      <point x="1414" y="220" type="line"/>
      <point x="1376" y="191"/>
      <point x="1325" y="176"/>
      <point x="1301" y="176" type="curve" smooth="yes"/>
      <point x="1267" y="176"/>
      <point x="1227" y="208"/>
      <point x="1198" y="266" type="curve" smooth="yes"/>
      <point x="979" y="708" type="line"/>
      <point x="937" y="605" type="line"/>
      <point x="1061" y="652"/>
      <point x="1225" y="738"/>
      <point x="1316" y="854" type="curve" smooth="yes"/>
      <point x="1344" y="890"/>
      <point x="1372" y="940"/>
      <point x="1371" y="1011" type="curve" smooth="yes"/>
      <point x="1369" y="1078"/>
      <point x="1333" y="1136"/>
      <point x="1238" y="1136" type="curve" smooth="yes"/>
      <point x="1178" y="1136"/>
      <point x="1095" y="1097"/>
      <point x="1087" y="985" type="curve" smooth="yes"/>
      <point x="1083" y="929"/>
      <point x="1073" y="877"/>
      <point x="998" y="790" type="curve" smooth="yes"/>
      <point x="926" y="706"/>
      <point x="843" y="625"/>
      <point x="734" y="566" type="curve"/>
      <point x="924" y="98" type="line" smooth="yes"/>
      <point x="937" y="66"/>
      <point x="972" y="-18"/>
    </contour>
  </outline>
</glyph>
<glyph name="Enghe-cy" format="2">
  <advance width="1970"/>
  <unicode hex="04A4"/>
  <anchor x="729" y="-166" name="btm"/>
  <anchor x="729" y="1660" name="top"/>
  <outline>
    <contour>
      <point x="7" y="0" type="line"/>
      <point x="651" y="0" type="line"/>
      <point x="659" y="102" type="line"/>
      <point x="491" y="130" type="line"/>
      <point x="563" y="688" type="line"/>
      <point x="1107" y="688" type="line"/>
      <point x="1033" y="130" type="line"/>
      <point x="849" y="102" type="line"/>
      <point x="835" y="0" type="line"/>
      <point x="1617" y="0" type="line"/>
      <point x="1629" y="102" type="line"/>
      <point x="1373" y="130" type="line"/>
      <point x="1533" y="1356" type="line"/>
      <point x="1765" y="1346" type="line"/>
      <point x="1783" y="944" type="line"/>
      <point x="1971" y="944" type="line"/>
      <point x="2039" y="1486" type="line"/>
      <point x="1037" y="1486" type="line"/>
      <point x="1025" y="1378" type="line"/>
      <point x="1195" y="1356" type="line"/>
      <point x="1125" y="824" type="line"/>
      <point x="583" y="824" type="line"/>
      <point x="653" y="1356" type="line"/>
      <point x="827" y="1378" type="line"/>
      <point x="839" y="1486" type="line"/>
      <point x="187" y="1486" type="line"/>
      <point x="173" y="1378" type="line"/>
      <point x="315" y="1356" type="line"/>
      <point x="153" y="130" type="line"/>
      <point x="15" y="102" type="line"/>
    </contour>
  </outline>
</glyph>
<glyph name="Pemiddlehook-cy" format="2">
  <advance width="2085"/>
  <unicode hex="04A6"/>
  <anchor x="738" y="-166" name="btm"/>
  <anchor x="716" y="1660" name="top"/>
  <outline>
    <contour>
      <point x="1428" y="-394" type="curve" smooth="yes"/>
      <point x="1804" y="-394"/>
      <point x="2060" y="44"/>
      <point x="2060" y="468" type="curve" smooth="yes"/>
      <point x="2060" y="670"/>
      <point x="1948" y="850"/>
      <point x="1614" y="850" type="curve" smooth="yes"/>
      <point x="1538" y="850"/>
      <point x="1462" y="836"/>
      <point x="1382" y="816" type="curve"/>
      <point x="1454" y="1356" type="line"/>
      <point x="1594" y="1378" type="line"/>
      <point x="1604" y="1486" type="line"/>
      <point x="187" y="1486" type="line"/>
      <point x="173" y="1378" type="line"/>
      <point x="329" y="1352" type="line"/>
      <point x="167" y="130" type="line"/>
      <point x="31" y="102" type="line"/>
      <point x="21" y="0" type="line"/>
      <point x="665" y="0" type="line"/>
      <point x="673" y="102" type="line"/>
      <point x="505" y="130" type="line"/>
      <point x="667" y="1366" type="line"/>
      <point x="1120" y="1366" type="line"/>
      <point x="954" y="128" type="line"/>
      <point x="814" y="102" type="line"/>
      <point x="802" y="0" type="line"/>
      <point x="1434" y="0" type="line"/>
      <point x="1446" y="102" type="line"/>
      <point x="1294" y="130" type="line"/>
      <point x="1370" y="710" type="line"/>
      <point x="1404" y="718"/>
      <point x="1442" y="722"/>
      <point x="1498" y="722" type="curve" smooth="yes"/>
      <point x="1658" y="722"/>
      <point x="1746" y="614"/>
      <point x="1746" y="428" type="curve" smooth="yes"/>
      <point x="1746" y="20"/>
      <point x="1604" y="-268"/>
      <point x="1420" y="-268" type="curve" smooth="yes"/>
      <point x="1390" y="-268"/>
      <point x="1360" y="-268"/>
      <point x="1342" y="-266" type="curve"/>
      <point x="1330" y="-380" type="line"/>
      <point x="1348" y="-388"/>
      <point x="1402" y="-394"/>
    </contour>
  </outline>
</glyph>
<glyph name="pemiddlehook-cy" format="2">
  <advance width="1691"/>
  <unicode hex="04A7"/>
  <outline>
    <contour>
      <point x="516" y="907" type="curve"/>
      <point x="533" y="1112" type="line"/>
      <point x="483" y="1136" type="line"/>
      <point x="122" y="1084" type="line"/>
      <point x="106" y="999" type="line"/>
      <point x="210" y="941" type="line"/>
      <point x="84" y="0" type="line"/>
      <point x="394" y="0" type="line"/>
      <point x="490" y="705" type="line"/>
      <point x="552" y="835"/>
      <point x="654" y="944"/>
      <point x="731" y="944" type="curve" smooth="yes"/>
      <point x="785" y="944"/>
      <point x="802" y="916"/>
      <point x="804" y="807" type="curve" smooth="yes"/>
      <point x="806" y="694"/>
      <point x="778" y="540"/>
      <point x="760" y="432" type="curve" smooth="yes"/>
      <point x="742" y="323"/>
      <point x="689" y="56"/>
      <point x="688" y="0" type="curve"/>
      <point x="1022" y="0" type="line"/>
      <point x="1023" y="37"/>
      <point x="1035" y="132"/>
      <point x="1049" y="230" type="curve"/>
      <point x="1117" y="308"/>
      <point x="1188" y="380"/>
      <point x="1255" y="380" type="curve" smooth="yes"/>
      <point x="1348" y="380"/>
      <point x="1357" y="301"/>
      <point x="1357" y="167" type="curve" smooth="yes"/>
      <point x="1357" y="-67"/>
      <point x="1269" y="-318"/>
      <point x="1099" y="-318" type="curve" smooth="yes"/>
      <point x="1095" y="-318"/>
      <point x="1091" y="-317"/>
      <point x="1089" y="-317" type="curve"/>
      <point x="1083" y="-406" type="line"/>
      <point x="1103" y="-410"/>
      <point x="1131" y="-412"/>
      <point x="1167" y="-412" type="curve" smooth="yes"/>
      <point x="1449" y="-412"/>
      <point x="1641" y="-28"/>
      <point x="1641" y="232" type="curve" smooth="yes"/>
      <point x="1641" y="392"/>
      <point x="1605" y="554"/>
      <point x="1379" y="554" type="curve" smooth="yes"/>
      <point x="1251" y="554"/>
      <point x="1145" y="468"/>
      <point x="1069" y="374" type="curve"/>
      <point x="1088" y="492" type="line" smooth="yes"/>
      <point x="1106" y="602"/>
      <point x="1136" y="782"/>
      <point x="1136" y="840" type="curve" smooth="yes"/>
      <point x="1136" y="1060"/>
      <point x="1036" y="1136"/>
      <point x="884" y="1136" type="curve" smooth="yes"/>
      <point x="730" y="1136"/>
      <point x="603" y="1043"/>
    </contour>
  </outline>
</glyph>
<glyph name="Haabkhasian-cy" format="2">
  <advance width="1732"/>
  <unicode hex="04A8"/>
  <outline>
    <contour>
      <point x="751" y="-22" type="curve" smooth="yes"/>
      <point x="889" y="-22"/>
      <point x="983" y="-4"/>
      <point x="1081" y="28" type="curve"/>
      <point x="1149" y="0"/>
      <point x="1223" y="-12"/>
      <point x="1325" y="-12" type="curve" smooth="yes"/>
      <point x="1355" y="-12"/>
      <point x="1455" y="4"/>
      <point x="1509" y="12" type="curve"/>
      <point x="1525" y="118" type="line"/>
      <point x="1481" y="114"/>
      <point x="1418" y="103"/>
      <point x="1405" y="103" type="curve" smooth="yes"/>
      <point x="1338" y="103"/>
      <point x="1305" y="107"/>
      <point x="1272" y="118" type="curve"/>
      <point x="1534" y="276"/>
      <point x="1713" y="512"/>
      <point x="1713" y="816" type="curve" smooth="yes"/>
      <point x="1713" y="1057"/>
      <point x="1528" y="1217"/>
      <point x="1265" y="1217" type="curve" smooth="yes"/>
      <point x="974" y="1217"/>
      <point x="690" y="1052"/>
      <point x="690" y="597" type="curve" smooth="yes"/>
      <point x="690" y="365"/>
      <point x="815" y="226"/>
      <point x="935" y="118" type="curve"/>
      <point x="895" y="108"/>
      <point x="844" y="103"/>
      <point x="769" y="103" type="curve" smooth="yes"/>
      <point x="505" y="103"/>
      <point x="380" y="358"/>
      <point x="380" y="649" type="curve" smooth="yes"/>
      <point x="380" y="980"/>
      <point x="592" y="1371"/>
      <point x="925" y="1371" type="curve" smooth="yes"/>
      <point x="1025" y="1371"/>
      <point x="1119" y="1358"/>
      <point x="1141" y="1342" type="curve"/>
      <point x="1197" y="1425" type="line"/>
      <point x="1156" y="1464"/>
      <point x="1039" y="1502"/>
      <point x="905" y="1502" type="curve" smooth="yes"/>
      <point x="421" y="1502"/>
      <point x="65" y="1090"/>
      <point x="65" y="610" type="curve" smooth="yes"/>
      <point x="65" y="245"/>
      <point x="317" y="-22"/>
    </contour>
    <contour>
      <point x="1124" y="192" type="curve"/>
      <point x="1037" y="279"/>
      <point x="998" y="397"/>
      <point x="998" y="586" type="curve" smooth="yes"/>
      <point x="998" y="933"/>
      <point x="1119" y="1092"/>
      <point x="1255" y="1092" type="curve" smooth="yes"/>
      <point x="1366" y="1092"/>
      <point x="1405" y="991"/>
      <point x="1405" y="835" type="curve" smooth="yes"/>
      <point x="1405" y="505"/>
      <point x="1298" y="313"/>
    </contour>
  </outline>
</glyph>
<glyph name="haabkhasian-cy" format="2">
  <advance width="1414"/>
  <unicode hex="04A9"/>
  <outline>
    <contour>
      <point x="595" y="-20" type="curve" smooth="yes"/>
      <point x="704" y="-20"/>
      <point x="766" y="-8"/>
      <point x="861" y="16" type="curve"/>
      <point x="937" y="-6"/>
      <point x="1033" y="-20"/>
      <point x="1148" y="-20" type="curve" smooth="yes"/>
      <point x="1180" y="-20"/>
      <point x="1234" y="-14"/>
      <point x="1256" y="-8" type="curve"/>
      <point x="1268" y="82" type="line"/>
      <point x="1246" y="79"/>
      <point x="1204" y="77"/>
      <point x="1176" y="77" type="curve" smooth="yes"/>
      <point x="1135" y="77"/>
      <point x="1099" y="84"/>
      <point x="1067" y="94" type="curve"/>
      <point x="1254" y="196"/>
      <point x="1368" y="336"/>
      <point x="1368" y="566" type="curve" smooth="yes"/>
      <point x="1368" y="777"/>
      <point x="1229" y="884"/>
      <point x="1011" y="884" type="curve" smooth="yes"/>
      <point x="724" y="884"/>
      <point x="567" y="696"/>
      <point x="567" y="424" type="curve" smooth="yes"/>
      <point x="567" y="286"/>
      <point x="606" y="178"/>
      <point x="721" y="88" type="curve"/>
      <point x="675" y="83"/>
      <point x="643" y="81"/>
      <point x="629" y="81" type="curve" smooth="yes"/>
      <point x="460" y="81"/>
      <point x="418" y="308"/>
      <point x="418" y="425" type="curve" smooth="yes"/>
      <point x="418" y="779"/>
      <point x="523" y="1001"/>
      <point x="708" y="1001" type="curve" smooth="yes"/>
      <point x="769" y="1001"/>
      <point x="800" y="996"/>
      <point x="831" y="982" type="curve"/>
      <point x="879" y="1087" type="line"/>
      <point x="859" y="1107"/>
      <point x="795" y="1136"/>
      <point x="685" y="1136" type="curve" smooth="yes"/>
      <point x="332" y="1136"/>
      <point x="76" y="866"/>
      <point x="76" y="489" type="curve" smooth="yes"/>
      <point x="76" y="226"/>
      <point x="254" y="-20"/>
    </contour>
    <contour>
      <point x="999" y="787" type="curve" smooth="yes"/>
      <point x="1070" y="787"/>
      <point x="1093" y="724"/>
      <point x="1093" y="608" type="curve" smooth="yes"/>
      <point x="1093" y="358"/>
      <point x="1051" y="233"/>
      <point x="952" y="168" type="curve"/>
      <point x="877" y="248"/>
      <point x="847" y="362"/>
      <point x="847" y="457" type="curve" smooth="yes"/>
      <point x="847" y="638"/>
      <point x="898" y="787"/>
    </contour>
  </outline>
</glyph>
<glyph name="esdescender-cy" format="2">
  <advance width="936"/>
  <unicode hex="04AB"/>
  <outline>
    <contour>
      <point x="186" y="-459" type="curve"/>
      <point x="257" y="-540" type="line"/>
      <point x="373" y="-510"/>
      <point x="532" y="-381"/>
      <point x="532" y="-279" type="curve" smooth="yes"/>
      <point x="532" y="-194"/>
      <point x="488" y="-152"/>
      <point x="488" y="-106" type="curve" smooth="yes"/>
      <point x="488" y="-72"/>
      <point x="498" y="-40"/>
      <point x="526" y="-12" type="curve"/>
      <point x="706" y="14"/>
      <point x="823" y="115"/>
      <point x="869" y="189" type="curve"/>
      <point x="808" y="288" type="line"/>
      <point x="755" y="220"/>
      <point x="685" y="164"/>
      <point x="559" y="164" type="curve" smooth="yes"/>
      <point x="444" y="164"/>
      <point x="391" y="243"/>
      <point x="385" y="450" type="curve" smooth="yes"/>
      <point x="377" y="765"/>
      <point x="508" y="983"/>
      <point x="618" y="983" type="curve" smooth="yes"/>
      <point x="662" y="983"/>
      <point x="742" y="858"/>
      <point x="786" y="789" type="curve"/>
      <point x="810" y="789"/>
      <point x="833" y="789"/>
      <point x="857" y="789" type="curve"/>
      <point x="936" y="1098" type="line"/>
      <point x="872" y="1124"/>
      <point x="766" y="1136"/>
      <point x="687" y="1136" type="curve" smooth="yes"/>
      <point x="257" y="1136"/>
      <point x="53" y="769"/>
      <point x="58" y="439" type="curve"/>
      <point x="62" y="162"/>
      <point x="182" y="8"/>
      <point x="377" y="-16" type="curve"/>
      <point x="318" y="-58"/>
      <point x="267" y="-113"/>
      <point x="267" y="-169" type="curve" smooth="yes"/>
      <point x="267" y="-243"/>
      <point x="300" y="-263"/>
      <point x="300" y="-315" type="curve" smooth="yes"/>
      <point x="300" y="-375"/>
      <point x="236" y="-441"/>
    </contour>
  </outline>
</glyph>
<glyph name="ustrait-cy" format="2">
  <advance width="1060"/>
  <unicode hex="04AF"/>
  <anchor x="464" y="78" name="center"/>
  <outline>
    <contour>
      <point x="614" y="309" type="curve" smooth="yes"/>
      <point x="562" y="231" type="line"/>
      <point x="532" y="440" type="line"/>
      <point x="439" y="1002" type="line" smooth="yes"/>
      <point x="425" y="1084"/>
      <point x="356" y="1136"/>
      <point x="237" y="1136" type="curve" smooth="yes"/>
      <point x="101" y="1136"/>
      <point x="-5" y="1028"/>
      <point x="-23" y="1004" type="curve"/>
      <point x="5" y="927" type="line"/>
      <point x="43" y="958"/>
      <point x="64" y="960"/>
      <point x="80" y="960" type="curve" smooth="yes"/>
      <point x="98" y="960"/>
      <point x="113" y="946"/>
      <point x="122" y="905" type="curve" smooth="yes"/>
      <point x="309" y="27" type="line"/>
      <point x="221" y="-362" type="line" smooth="yes"/>
      <point x="202" y="-446"/>
      <point x="276" y="-508"/>
      <point x="414" y="-508" type="curve" smooth="yes"/>
      <point x="583" y="-508"/>
      <point x="677" y="-396"/>
      <point x="701" y="-368" type="curve"/>
      <point x="673" y="-297" type="line"/>
      <point x="629" y="-331"/>
      <point x="606" y="-342"/>
      <point x="581" y="-342" type="curve" smooth="yes"/>
      <point x="553" y="-342"/>
      <point x="539" y="-316"/>
      <point x="547" y="-267" type="curve" smooth="yes"/>
      <point x="606" y="100" type="line"/>
      <point x="637" y="135"/>
      <point x="669" y="172"/>
      <point x="704" y="211" type="curve" smooth="yes"/>
      <point x="888" y="433"/>
      <point x="1060" y="699"/>
      <point x="1060" y="925" type="curve" smooth="yes"/>
      <point x="1060" y="1041"/>
      <point x="1007" y="1136"/>
      <point x="894" y="1136" type="curve" smooth="yes"/>
      <point x="790" y="1136"/>
      <point x="742" y="1075"/>
      <point x="742" y="1002" type="curve" smooth="yes"/>
      <point x="742" y="938"/>
      <point x="774" y="838"/>
      <point x="774" y="788" type="curve" smooth="yes"/>
      <point x="774" y="626"/>
      <point x="721" y="470"/>
    </contour>
  </outline>
</glyph>
<glyph name="Tetse-cy" format="2">
  <advance width="2068"/>
  <unicode hex="04B4"/>
  <anchor x="853" y="-166" name="btm"/>
  <anchor x="859" y="1660" name="top"/>
  <outline>
    <contour>
      <point x="1695" y="-370" type="curve"/>
      <point x="1861" y="-370" type="line"/>
      <point x="1896" y="-279"/>
      <point x="1958" y="-100"/>
      <point x="1994" y="132" type="curve"/>
      <point x="1813" y="132" type="line"/>
      <point x="1975" y="1354" type="line"/>
      <point x="2145" y="1378" type="line"/>
      <point x="2155" y="1486" type="line"/>
      <point x="1507" y="1486" type="line"/>
      <point x="1495" y="1378" type="line"/>
      <point x="1639" y="1354" type="line"/>
      <point x="1471" y="116" type="line"/>
      <point x="779" y="116" type="line"/>
      <point x="947" y="1364" type="line"/>
      <point x="1141" y="1364" type="line"/>
      <point x="1163" y="1032" type="line"/>
      <point x="1347" y="1032" type="line"/>
      <point x="1381" y="1486" type="line"/>
      <point x="201" y="1486" type="line"/>
      <point x="117" y="1032" type="line"/>
      <point x="291" y="1032" type="line"/>
      <point x="393" y="1364" type="line"/>
      <point x="609" y="1364" type="line"/>
      <point x="443" y="130" type="line"/>
      <point x="311" y="102" type="line"/>
      <point x="299" y="0" type="line"/>
      <point x="1707" y="0" type="line"/>
      <point x="1715" y="-88"/>
      <point x="1701" y="-282"/>
    </contour>
  </outline>
</glyph>
<glyph name="Kahook-cy" format="2">
  <advance width="1349"/>
  <unicode hex="04C3"/>
  <outline>
    <contour>
      <point x="2" y="0" type="line"/>
      <point x="624" y="0" type="line"/>
      <point x="638" y="102" type="line"/>
      <point x="488" y="130" type="line"/>
      <point x="653" y="1358" type="line"/>
      <point x="807" y="1384" type="line"/>
      <point x="822" y="1486" type="line"/>
      <point x="187" y="1486" type="line"/>
      <point x="175" y="1384" type="line"/>
      <point x="311" y="1358" type="line"/>
      <point x="147" y="130" type="line"/>
      <point x="16" y="102" type="line"/>
    </contour>
    <contour>
      <point x="586" y="-394" type="curve" smooth="yes"/>
      <point x="948" y="-394"/>
      <point x="1297" y="-88"/>
      <point x="1297" y="388" type="curve" smooth="yes"/>
      <point x="1297" y="610"/>
      <point x="1123" y="845"/>
      <point x="801" y="845" type="curve" smooth="yes"/>
      <point x="674" y="845"/>
      <point x="587" y="831"/>
      <point x="550" y="817" type="curve"/>
      <point x="530" y="711" type="line"/>
      <point x="556" y="713"/>
      <point x="620" y="716"/>
      <point x="662" y="716" type="curve" smooth="yes"/>
      <point x="836" y="716"/>
      <point x="972" y="615"/>
      <point x="972" y="346" type="curve" smooth="yes"/>
      <point x="972" y="-114"/>
      <point x="763" y="-270"/>
      <point x="576" y="-270" type="curve" smooth="yes"/>
      <point x="546" y="-270"/>
      <point x="516" y="-270"/>
      <point x="500" y="-268" type="curve"/>
      <point x="486" y="-380" type="line"/>
      <point x="504" y="-388"/>
      <point x="558" y="-394"/>
    </contour>
    <contour>
      <point x="859" y="817" type="line"/>
      <point x="1312" y="1354" type="line"/>
      <point x="1442" y="1378" type="line"/>
      <point x="1456" y="1486" type="line"/>
      <point x="1004" y="1486" type="line"/>
      <point x="990" y="1378" type="line"/>
      <point x="1114" y="1354" type="line"/>
      <point x="714" y="833" type="line"/>
    </contour>
  </outline>
</glyph>
<glyph name="kahook-cy" format="2">
  <advance width="1223"/>
  <unicode hex="04C4"/>
  <outline>
    <contour>
      <point x="85" y="0" type="line"/>
      <point x="395" y="0" type="line"/>
      <point x="460" y="481" type="line"/>
      <point x="488" y="488"/>
      <point x="515" y="491"/>
      <point x="540" y="491" type="curve" smooth="yes"/>
      <point x="700" y="491"/>
      <point x="789" y="353"/>
      <point x="789" y="166" type="curve" smooth="yes"/>
      <point x="789" y="-72"/>
      <point x="667" y="-269"/>
      <point x="540" y="-269" type="curve" smooth="yes"/>
      <point x="510" y="-269"/>
      <point x="480" y="-269"/>
      <point x="464" y="-267" type="curve"/>
      <point x="452" y="-380" type="line"/>
      <point x="468" y="-388"/>
      <point x="522" y="-394"/>
      <point x="548" y="-394" type="curve" smooth="yes"/>
      <point x="846" y="-394"/>
      <point x="1089" y="-75"/>
      <point x="1089" y="175" type="curve" smooth="yes"/>
      <point x="1089" y="392"/>
      <point x="979" y="539"/>
      <point x="738" y="582" type="curve"/>
      <point x="881" y="646"/>
      <point x="976" y="727"/>
      <point x="1037" y="804" type="curve" smooth="yes"/>
      <point x="1100" y="885"/>
      <point x="1125" y="961"/>
      <point x="1125" y="1009" type="curve" smooth="yes"/>
      <point x="1125" y="1078"/>
      <point x="1085" y="1136"/>
      <point x="992" y="1136" type="curve" smooth="yes"/>
      <point x="930" y="1136"/>
      <point x="840" y="1088"/>
      <point x="840" y="985" type="curve" smooth="yes"/>
      <point x="840" y="895"/>
      <point x="803" y="801"/>
      <point x="736" y="713" type="curve" smooth="yes"/>
      <point x="712" y="681"/>
      <point x="672" y="643"/>
      <point x="628" y="610" type="curve"/>
      <point x="595" y="610"/>
      <point x="501" y="591"/>
      <point x="476" y="585" type="curve"/>
      <point x="547" y="1111" type="line"/>
      <point x="492" y="1138" type="line"/>
      <point x="123" y="1084" type="line"/>
      <point x="106" y="999" type="line"/>
      <point x="211" y="941" type="line"/>
    </contour>
  </outline>
</glyph>
<glyph name="Enhook-cy" format="2">
  <advance width="1621"/>
  <unicode hex="04C7"/>
  <anchor x="735" y="-166" name="btm"/>
  <anchor x="735" y="1660" name="top"/>
  <outline>
    <contour>
      <point x="763" y="-336" type="line"/>
      <point x="1033" y="-298"/>
      <point x="1283" y="-158"/>
      <point x="1363" y="74" type="curve" smooth="yes"/>
      <point x="1393" y="166"/>
      <point x="1471" y="804"/>
      <point x="1539" y="1356" type="curve"/>
      <point x="1681" y="1378" type="line"/>
      <point x="1693" y="1486" type="line"/>
      <point x="1075" y="1486" type="line"/>
      <point x="1061" y="1378" type="line"/>
      <point x="1205" y="1354" type="line"/>
      <point x="1185" y="1180"/>
      <point x="1165" y="1000"/>
      <point x="1141" y="824" type="curve"/>
      <point x="587" y="824" type="line"/>
      <point x="657" y="1356" type="line"/>
      <point x="823" y="1378" type="line"/>
      <point x="835" y="1486" type="line"/>
      <point x="187" y="1486" type="line"/>
      <point x="177" y="1378" type="line"/>
      <point x="319" y="1356" type="line"/>
      <point x="159" y="130" type="line"/>
      <point x="13" y="102" type="line"/>
      <point x="-1" y="0" type="line"/>
      <point x="659" y="0" type="line"/>
      <point x="665" y="102" type="line"/>
      <point x="497" y="130" type="line"/>
      <point x="569" y="688" type="line"/>
      <point x="1123" y="688" type="line"/>
      <point x="1093" y="476"/>
      <point x="1061" y="270"/>
      <point x="1027" y="84" type="curve" smooth="yes"/>
      <point x="1003" y="-44"/>
      <point x="925" y="-168"/>
      <point x="715" y="-234" type="curve"/>
    </contour>
  </outline>
</glyph>
<glyph name="enhook-cy" format="2">
  <advance width="1262"/>
  <unicode hex="04C8"/>
  <anchor x="780" y="-166" name="btm"/>
  <anchor x="696" y="1660" name="top"/>
  <outline>
    <contour>
      <point x="1064" y="123" type="curve"/>
      <point x="1200" y="1109" type="line"/>
      <point x="888" y="1109" type="line"/>
      <point x="821" y="634" type="line"/>
      <point x="480" y="634" type="line"/>
      <point x="544" y="1106" type="line"/>
      <point x="481" y="1136" type="line"/>
      <point x="122" y="1084" type="line"/>
      <point x="106" y="999" type="line"/>
      <point x="210" y="941" type="line"/>
      <point x="82" y="0" type="line"/>
      <point x="393" y="0" type="line"/>
      <point x="461" y="499" type="line"/>
      <point x="803" y="499" type="line"/>
      <point x="759" y="187" type="line" smooth="yes"/>
      <point x="727" y="-46"/>
      <point x="695" y="-252"/>
      <point x="509" y="-252" type="curve" smooth="yes"/>
      <point x="500" y="-252"/>
      <point x="454" y="-248"/>
      <point x="436" y="-242" type="curve"/>
      <point x="401" y="-359" type="line"/>
      <point x="427" y="-383"/>
      <point x="488" y="-395"/>
      <point x="565" y="-395" type="curve" smooth="yes"/>
      <point x="808" y="-395"/>
      <point x="1022" y="-216"/>
    </contour>
  </outline>
</glyph>
<glyph name="entail-cy" format="2">
  <advance width="1254"/>
  <unicode hex="04CA"/>
  <anchor x="810" y="-166" name="btm"/>
  <anchor x="722" y="1660" name="top"/>
  <outline>
    <contour>
      <point x="1036" y="220" type="curve" smooth="yes"/>
      <point x="1159" y="1110" type="line"/>
      <point x="847" y="1110" type="line"/>
      <point x="779" y="634" type="line"/>
      <point x="480" y="634" type="line"/>
      <point x="544" y="1106" type="line"/>
      <point x="481" y="1136" type="line"/>
      <point x="122" y="1084" type="line"/>
      <point x="106" y="999" type="line"/>
      <point x="210" y="941" type="line"/>
      <point x="82" y="0" type="line"/>
      <point x="393" y="0" type="line"/>
      <point x="461" y="499" type="line"/>
      <point x="761" y="499" type="line"/>
      <point x="711" y="139" type="line" smooth="yes"/>
      <point x="698" y="45"/>
      <point x="782" y="-20"/>
      <point x="919" y="-20" type="curve" smooth="yes"/>
      <point x="927" y="-20"/>
      <point x="935" y="-18"/>
      <point x="943" y="-18" type="curve"/>
      <point x="929" y="-140"/>
      <point x="791" y="-302"/>
      <point x="704" y="-357" type="curve"/>
      <point x="773" y="-433" type="line"/>
      <point x="977" y="-373"/>
      <point x="1191" y="-74"/>
      <point x="1191" y="121" type="curve"/>
      <point x="1163" y="190" type="line"/>
      <point x="1112" y="154"/>
      <point x="1095" y="146"/>
      <point x="1073" y="146" type="curve" smooth="yes"/>
      <point x="1045" y="146"/>
      <point x="1029" y="168"/>
    </contour>
  </outline>
</glyph>
<glyph name="Hahook-cy" format="2">
  <advance width="1310"/>
  <unicode hex="04FC"/>
  <outline>
    <contour>
      <point x="605" y="-406" type="line"/>
      <point x="891" y="-340"/>
      <point x="1107" y="-158"/>
      <point x="1109" y="132" type="curve" smooth="yes"/>
      <point x="1109" y="318"/>
      <point x="989" y="505"/>
      <point x="852" y="781" type="curve"/>
      <point x="1316" y="1356" type="line"/>
      <point x="1446" y="1378" type="line"/>
      <point x="1459" y="1486" type="line"/>
      <point x="951" y="1486" type="line"/>
      <point x="945" y="1378" type="line"/>
      <point x="1077" y="1356" type="line"/>
      <point x="782" y="929" type="line"/>
      <point x="612" y="1356" type="line"/>
      <point x="764" y="1380" type="line"/>
      <point x="772" y="1486" type="line"/>
      <point x="135" y="1486" type="line"/>
      <point x="120" y="1378" type="line"/>
      <point x="248" y="1354" type="line"/>
      <point x="542" y="748" type="line"/>
      <point x="64" y="130" type="line"/>
      <point x="-53" y="102" type="line"/>
      <point x="-67" y="0" type="line"/>
      <point x="437" y="0" type="line"/>
      <point x="447" y="102" type="line"/>
      <point x="309" y="130" type="line"/>
      <point x="612" y="584" type="line"/>
      <point x="715" y="366"/>
      <point x="795" y="168"/>
      <point x="795" y="18" type="curve" smooth="yes"/>
      <point x="795" y="-122"/>
      <point x="729" y="-226"/>
      <point x="569" y="-294" type="curve"/>
    </contour>
  </outline>
</glyph>
<glyph name="Komide-cy" format="2">
  <advance width="1348"/>
  <unicode hex="0500"/>
  <outline>
    <contour>
      <point x="576" y="-10" type="curve" smooth="yes"/>
      <point x="702" y="-10"/>
      <point x="800" y="0"/>
      <point x="920" y="0" type="curve" smooth="yes"/>
      <point x="1213" y="0" type="line"/>
      <point x="1223" y="103" type="line"/>
      <point x="1071" y="131" type="line"/>
      <point x="1231" y="1355" type="line"/>
      <point x="1383" y="1379" type="line"/>
      <point x="1393" y="1486" type="line"/>
      <point x="714" y="1486" type="line"/>
      <point x="702" y="1379" type="line"/>
      <point x="893" y="1355" type="line"/>
      <point x="832" y="902" type="line"/>
      <point x="802" y="912"/>
      <point x="755" y="918"/>
      <point x="697" y="918" type="curve" smooth="yes"/>
      <point x="293" y="918"/>
      <point x="34" y="745"/>
      <point x="34" y="384" type="curve" smooth="yes"/>
      <point x="34" y="129"/>
      <point x="302" y="-10"/>
    </contour>
    <contour>
      <point x="622" y="124" type="curve" smooth="yes"/>
      <point x="515" y="124"/>
      <point x="390" y="213"/>
      <point x="391" y="387" type="curve" smooth="yes"/>
      <point x="392" y="626"/>
      <point x="491" y="796"/>
      <point x="708" y="796" type="curve" smooth="yes"/>
      <point x="757" y="796"/>
      <point x="789" y="791"/>
      <point x="816" y="785" type="curve"/>
      <point x="731" y="137" type="line"/>
      <point x="707" y="127"/>
      <point x="661" y="124"/>
    </contour>
  </outline>
</glyph>
<glyph name="Komizje-cy" format="2">
  <advance width="1527"/>
  <unicode hex="0504"/>
  <outline>
    <contour>
      <point x="961" y="-22" type="curve" smooth="yes"/>
      <point x="1231" y="-22"/>
      <point x="1436" y="111"/>
      <point x="1474" y="390" type="curve" smooth="yes"/>
      <point x="1540" y="879" type="line"/>
      <point x="1232" y="879" type="line"/>
      <point x="1163" y="382" type="line" smooth="yes"/>
      <point x="1139" y="210"/>
      <point x="1139" y="85"/>
      <point x="988" y="85" type="curve" smooth="yes"/>
      <point x="872" y="85"/>
      <point x="789" y="214"/>
      <point x="719" y="362" type="curve"/>
      <point x="688" y="444"/>
      <point x="619" y="623"/>
      <point x="567" y="680" type="curve"/>
      <point x="795" y="754"/>
      <point x="912" y="935"/>
      <point x="912" y="1138" type="curve" smooth="yes"/>
      <point x="912" y="1390"/>
      <point x="729" y="1502"/>
      <point x="373" y="1502" type="curve" smooth="yes"/>
      <point x="281" y="1502"/>
      <point x="227" y="1498"/>
      <point x="181" y="1492" type="curve"/>
      <point x="165" y="1365" type="line"/>
      <point x="203" y="1375"/>
      <point x="246" y="1379"/>
      <point x="301" y="1379" type="curve" smooth="yes"/>
      <point x="479" y="1379"/>
      <point x="567" y="1271"/>
      <point x="567" y="1145" type="curve" smooth="yes"/>
      <point x="567" y="844"/>
      <point x="389" y="777"/>
      <point x="255" y="777" type="curve" smooth="yes"/>
      <point x="180" y="777"/>
      <point x="98" y="777"/>
      <point x="83" y="781" type="curve"/>
      <point x="66" y="646" type="line"/>
      <point x="271" y="646" type="line"/>
      <point x="365" y="418"/>
      <point x="441" y="277"/>
      <point x="504" y="167" type="curve" smooth="yes"/>
      <point x="574" y="47"/>
      <point x="718" y="-22"/>
    </contour>
  </outline>
</glyph>
<glyph name="komidzje-cy" format="2">
  <advance width="943"/>
  <unicode hex="0507"/>
  <outline>
    <contour>
      <point x="43" y="419" type="line"/>
      <point x="106" y="416"/>
      <point x="133" y="416"/>
      <point x="210" y="416" type="curve" smooth="yes"/>
      <point x="283" y="416"/>
      <point x="343" y="-20"/>
      <point x="593" y="-20" type="curve" smooth="yes"/>
      <point x="607" y="-20"/>
      <point x="620" y="-19"/>
      <point x="633" y="-17" type="curve"/>
      <point x="592" y="-66"/>
      <point x="544" y="-118"/>
      <point x="544" y="-213" type="curve" smooth="yes"/>
      <point x="544" y="-262"/>
      <point x="544" y="-303"/>
      <point x="535" y="-338" type="curve" smooth="yes"/>
      <point x="523" y="-383"/>
      <point x="498" y="-416"/>
      <point x="440" y="-439" type="curve"/>
      <point x="462" y="-502" type="line"/>
      <point x="618" y="-484"/>
      <point x="783" y="-371"/>
      <point x="783" y="-218" type="curve" smooth="yes"/>
      <point x="783" y="-161"/>
      <point x="768" y="-94"/>
      <point x="768" y="-53" type="curve" smooth="yes"/>
      <point x="768" y="-16"/>
      <point x="777" y="18"/>
      <point x="794" y="51" type="curve"/>
      <point x="831" y="79"/>
      <point x="855" y="108"/>
      <point x="864" y="121" type="curve"/>
      <point x="837" y="190" type="line"/>
      <point x="791" y="156"/>
      <point x="770" y="146"/>
      <point x="748" y="146" type="curve" smooth="yes"/>
      <point x="651" y="148"/>
      <point x="581" y="414"/>
      <point x="497" y="458" type="curve"/>
      <point x="681" y="505"/>
      <point x="822" y="586"/>
      <point x="822" y="796" type="curve" smooth="yes"/>
      <point x="822" y="1016"/>
      <point x="685" y="1130"/>
      <point x="365" y="1130" type="curve" smooth="yes"/>
      <point x="301" y="1130"/>
      <point x="173" y="1123"/>
      <point x="134" y="1119" type="curve"/>
      <point x="116" y="987" type="line"/>
      <point x="183" y="1016"/>
      <point x="227" y="1016"/>
      <point x="271" y="1016" type="curve" smooth="yes"/>
      <point x="404" y="1016"/>
      <point x="489" y="954"/>
      <point x="489" y="809" type="curve" smooth="yes"/>
      <point x="489" y="674"/>
      <point x="404" y="520"/>
      <point x="227" y="520" type="curve" smooth="yes"/>
      <point x="185" y="520"/>
      <point x="107" y="521"/>
      <point x="61" y="523" type="curve"/>
    </contour>
  </outline>
</glyph>
<glyph name="Komilje-cy" format="2">
  <advance width="1861"/>
  <unicode hex="0508"/>
  <outline>
    <contour>
      <point x="-53" y="6" type="line"/>
      <point x="-16" y="-6"/>
      <point x="26" y="-13"/>
      <point x="69" y="-13" type="curve" smooth="yes"/>
      <point x="246" y="-13"/>
      <point x="354" y="125"/>
      <point x="431" y="306" type="curve" smooth="yes"/>
      <point x="511" y="494"/>
      <point x="571" y="764"/>
      <point x="648" y="1232" type="curve" smooth="yes"/>
      <point x="669" y="1361" type="line"/>
      <point x="988" y="1361" type="line"/>
      <point x="860" y="378" type="line" smooth="yes"/>
      <point x="856" y="346"/>
      <point x="854" y="317"/>
      <point x="854" y="290" type="curve" smooth="yes"/>
      <point x="854" y="104"/>
      <point x="1018" y="-22"/>
      <point x="1268" y="-22" type="curve" smooth="yes"/>
      <point x="1581" y="-22"/>
      <point x="1768" y="110"/>
      <point x="1807" y="390" type="curve" smooth="yes"/>
      <point x="1875" y="879" type="line"/>
      <point x="1568" y="879" type="line"/>
      <point x="1494" y="382" type="line" smooth="yes"/>
      <point x="1468" y="210"/>
      <point x="1449" y="85"/>
      <point x="1310" y="85" type="curve" smooth="yes"/>
      <point x="1239" y="85"/>
      <point x="1185" y="141"/>
      <point x="1185" y="240" type="curve" smooth="yes"/>
      <point x="1185" y="279"/>
      <point x="1189" y="326"/>
      <point x="1196" y="378" type="curve" smooth="yes"/>
      <point x="1324" y="1355" type="line"/>
      <point x="1501" y="1379" type="line"/>
      <point x="1513" y="1486" type="line"/>
      <point x="334" y="1486" type="line"/>
      <point x="321" y="1379" type="line"/>
      <point x="518" y="1355" type="line"/>
      <point x="499" y="1240" type="line" smooth="yes"/>
      <point x="412" y="715"/>
      <point x="355" y="526"/>
      <point x="274" y="392" type="curve" smooth="yes"/>
      <point x="228" y="316"/>
      <point x="190" y="298"/>
      <point x="127" y="298" type="curve" smooth="yes"/>
      <point x="94" y="298"/>
      <point x="40" y="304"/>
      <point x="-5" y="312" type="curve"/>
    </contour>
  </outline>
</glyph>
<glyph name="Kominje-cy" format="2">
  <advance width="2051"/>
  <unicode hex="050A"/>
  <outline>
    <contour>
      <point x="1465" y="-22" type="curve" smooth="yes"/>
      <point x="1767" y="-22"/>
      <point x="1958" y="109"/>
      <point x="1997" y="390" type="curve" smooth="yes"/>
      <point x="2065" y="879" type="line"/>
      <point x="1756" y="879" type="line"/>
      <point x="1684" y="382" type="line" smooth="yes"/>
      <point x="1659" y="212"/>
      <point x="1635" y="86"/>
      <point x="1491" y="86" type="curve" smooth="yes"/>
      <point x="1417" y="86"/>
      <point x="1378" y="149"/>
      <point x="1378" y="278" type="curve" smooth="yes"/>
      <point x="1378" y="313"/>
      <point x="1381" y="352"/>
      <point x="1387" y="396" type="curve" smooth="yes"/>
      <point x="1515" y="1356" type="line"/>
      <point x="1665" y="1378" type="line"/>
      <point x="1677" y="1486" type="line"/>
      <point x="1037" y="1486" type="line"/>
      <point x="1025" y="1378" type="line"/>
      <point x="1177" y="1356" type="line"/>
      <point x="1109" y="824" type="line"/>
      <point x="580" y="824" type="line"/>
      <point x="650" y="1356" type="line"/>
      <point x="829" y="1378" type="line"/>
      <point x="841" y="1486" type="line"/>
      <point x="187" y="1486" type="line"/>
      <point x="173" y="1378" type="line"/>
      <point x="313" y="1356" type="line"/>
      <point x="148" y="130" type="line"/>
      <point x="11" y="102" type="line"/>
      <point x="3" y="0" type="line"/>
      <point x="648" y="0" type="line"/>
      <point x="656" y="102" type="line"/>
      <point x="486" y="130" type="line"/>
      <point x="560" y="688" type="line"/>
      <point x="1091" y="688" type="line"/>
      <point x="1078" y="585"/>
      <point x="1065" y="481"/>
      <point x="1051" y="378" type="curve" smooth="yes"/>
      <point x="1048" y="356"/>
      <point x="1047" y="334"/>
      <point x="1047" y="314" type="curve" smooth="yes"/>
      <point x="1047" y="100"/>
      <point x="1206" y="-22"/>
    </contour>
  </outline>
</glyph>
<glyph name="Komisje-cy" format="2">
  <advance width="1400"/>
  <unicode hex="050C"/>
  <outline>
    <contour>
      <point x="629" y="-16" type="curve" smooth="yes"/>
      <point x="925" y="-16"/>
      <point x="1238" y="128"/>
      <point x="1292" y="498" type="curve"/>
      <point x="1326" y="736" type="line"/>
      <point x="787" y="736" type="line"/>
      <point x="767" y="594" type="line"/>
      <point x="967" y="576" type="line"/>
      <point x="959" y="498" type="line" smooth="yes"/>
      <point x="923" y="150"/>
      <point x="791" y="130"/>
      <point x="695" y="130" type="curve" smooth="yes"/>
      <point x="487" y="130"/>
      <point x="429" y="398"/>
      <point x="429" y="642" type="curve" smooth="yes"/>
      <point x="429" y="1040"/>
      <point x="523" y="1380"/>
      <point x="889" y="1380" type="curve" smooth="yes"/>
      <point x="993" y="1380"/>
      <point x="1047" y="1348"/>
      <point x="1063" y="1326" type="curve"/>
      <point x="1071" y="1111" type="line"/>
      <point x="1303" y="1111" type="line"/>
      <point x="1369" y="1436" type="line"/>
      <point x="1275" y="1436"/>
      <point x="1127" y="1504"/>
      <point x="887" y="1504" type="curve" smooth="yes"/>
      <point x="339" y="1504"/>
      <point x="71" y="1172"/>
      <point x="71" y="612" type="curve" smooth="yes"/>
      <point x="71" y="278"/>
      <point x="239" y="-16"/>
    </contour>
  </outline>
</glyph>
<glyph name="Komitje-cy" format="2">
  <advance width="1522"/>
  <unicode hex="050E"/>
  <anchor x="661" y="-166" name="btm"/>
  <outline>
    <contour>
      <point x="102" y="920" type="line"/>
      <point x="281" y="920" type="line"/>
      <point x="431" y="1345" type="line"/>
      <point x="648" y="1371" type="line"/>
      <point x="516" y="382" type="line" smooth="yes"/>
      <point x="513" y="357"/>
      <point x="511" y="334"/>
      <point x="511" y="311" type="curve" smooth="yes"/>
      <point x="511" y="97"/>
      <point x="655" y="-22"/>
      <point x="913" y="-22" type="curve" smooth="yes"/>
      <point x="1217" y="-22"/>
      <point x="1431" y="108"/>
      <point x="1461" y="392" type="curve" smooth="yes"/>
      <point x="1495" y="628" type="line"/>
      <point x="1185" y="628" type="line"/>
      <point x="1151" y="383" type="line" smooth="yes"/>
      <point x="1127" y="208"/>
      <point x="1103" y="86"/>
      <point x="966" y="86" type="curve" smooth="yes"/>
      <point x="872" y="86"/>
      <point x="847" y="157"/>
      <point x="847" y="250" type="curve" smooth="yes"/>
      <point x="847" y="295"/>
      <point x="853" y="346"/>
      <point x="860" y="396" type="curve" smooth="yes"/>
      <point x="986" y="1371" type="line"/>
      <point x="1197" y="1345" type="line"/>
      <point x="1214" y="920" type="line"/>
      <point x="1387" y="920" type="line"/>
      <point x="1470" y="1486" type="line"/>
      <point x="191" y="1486" type="line"/>
    </contour>
  </outline>
</glyph>
<glyph name="reversedze-cy" format="2">
  <advance width="896"/>
  <unicode hex="0511"/>
  <outline>
    <contour>
      <point x="602" y="1134" type="curve" smooth="yes"/>
      <point x="341" y="1134"/>
      <point x="83" y="1019"/>
      <point x="83" y="788" type="curve" smooth="yes"/>
      <point x="83" y="636"/>
      <point x="219" y="525"/>
      <point x="435" y="561" type="curve"/>
      <point x="412" y="583" type="line"/>
      <point x="214" y="568"/>
      <point x="25" y="429"/>
      <point x="25" y="228" type="curve" smooth="yes"/>
      <point x="25" y="62"/>
      <point x="214" y="-28"/>
      <point x="437" y="-28" type="curve" smooth="yes"/>
      <point x="599" y="-28"/>
      <point x="721" y="18"/>
      <point x="834" y="102" type="curve"/>
      <point x="788" y="229" type="line"/>
      <point x="672" y="131"/>
      <point x="538" y="119"/>
      <point x="486" y="119" type="curve" smooth="yes"/>
      <point x="418" y="119"/>
      <point x="354" y="156"/>
      <point x="354" y="249" type="curve" smooth="yes"/>
      <point x="354" y="346"/>
      <point x="396" y="477"/>
      <point x="593" y="498" type="curve" smooth="yes"/>
      <point x="688" y="508" type="line"/>
      <point x="714" y="637" type="line"/>
      <point x="614" y="617" type="line"/>
      <point x="475" y="617"/>
      <point x="389" y="707"/>
      <point x="389" y="806" type="curve" smooth="yes"/>
      <point x="389" y="957"/>
      <point x="473" y="1003"/>
      <point x="611" y="1003" type="curve" smooth="yes"/>
      <point x="670" y="1003"/>
      <point x="783" y="961"/>
      <point x="863" y="860" type="curve"/>
      <point x="931" y="1057" type="line"/>
      <point x="882" y="1087"/>
      <point x="760" y="1134"/>
    </contour>
  </outline>
</glyph>
